M48
; DRILL file {KiCad (5.1.0)-1} date 5/22/2019 8:45:15 PM
; FORMAT={-:-/ absolute / inch / decimal}
; #@! TF.CreationDate,2019-05-22T20:45:15-07:00
; #@! TF.GenerationSoftware,Kicad,Pcbnew,(5.1.0)-1
; #@! TF.FileFunction,Plated,1,2,PTH
FMAT,2
INCH
T1C0.0157
T2C0.0394
T3C0.0440
%
G90
G05
T1
X3.86Y-3.0575
X4.7825Y-3.0075
X4.855Y-3.51
T2
X5.7925Y-2.905
X5.7925Y-3.005
X5.7925Y-3.105
X5.7925Y-3.205
X5.7925Y-3.305
X4.96Y-3.61
X5.06Y-3.61
X5.16Y-3.61
X5.26Y-3.61
X5.36Y-3.61
X3.6525Y-2.9
X3.6525Y-3.0
X3.6525Y-3.1
X3.6525Y-3.2
X3.6525Y-3.3
X4.0475Y-3.63
X4.1475Y-3.63
X4.2475Y-3.63
X4.3475Y-3.63
X4.4475Y-3.63
X4.5475Y-3.63
X5.5675Y-2.425
X5.5675Y-2.525
T3
X4.92Y-2.9125
X4.92Y-3.2125
X5.02Y-2.9125
X5.02Y-3.2125
X5.12Y-2.9125
X5.12Y-3.2125
X5.22Y-2.9125
X5.22Y-3.2125
X5.32Y-2.9125
X5.32Y-3.2125
X5.42Y-2.9125
X5.42Y-3.2125
X5.52Y-2.9125
X5.52Y-3.2125
X4.0075Y-2.905
X4.0075Y-3.205
X4.1075Y-2.905
X4.1075Y-3.205
X4.2075Y-2.905
X4.2075Y-3.205
X4.3075Y-2.905
X4.3075Y-3.205
X4.4075Y-2.905
X4.4075Y-3.205
X4.5075Y-2.905
X4.5075Y-3.205
X4.6075Y-2.905
X4.6075Y-3.205
T0
M30
