G04 #@! TF.GenerationSoftware,KiCad,Pcbnew,(5.1.0)-1*
G04 #@! TF.CreationDate,2019-05-22T20:45:13-07:00*
G04 #@! TF.ProjectId,CC_Interconnect,43435f49-6e74-4657-9263-6f6e6e656374,rev?*
G04 #@! TF.SameCoordinates,Original*
G04 #@! TF.FileFunction,Copper,L2,Bot*
G04 #@! TF.FilePolarity,Positive*
%FSLAX46Y46*%
G04 Gerber Fmt 4.6, Leading zero omitted, Abs format (unit mm)*
G04 Created by KiCad (PCBNEW (5.1.0)-1) date 2019-05-22 20:45:13*
%MOMM*%
%LPD*%
G04 APERTURE LIST*
%ADD10R,1.676400X1.676400*%
%ADD11C,1.676400*%
%ADD12O,1.700000X1.700000*%
%ADD13R,1.700000X1.700000*%
%ADD14C,0.800000*%
%ADD15C,0.406400*%
%ADD16C,0.254000*%
G04 APERTURE END LIST*
D10*
X117030500Y-73787000D03*
D11*
X114490500Y-73787000D03*
X111950500Y-73787000D03*
X109410500Y-73787000D03*
X106870500Y-73787000D03*
X104330500Y-73787000D03*
X101790500Y-73787000D03*
X101790500Y-81407000D03*
X104330500Y-81407000D03*
X106870500Y-81407000D03*
X109410500Y-81407000D03*
X111950500Y-81407000D03*
X114490500Y-81407000D03*
X117030500Y-81407000D03*
X140208000Y-81597500D03*
X137668000Y-81597500D03*
X135128000Y-81597500D03*
X132588000Y-81597500D03*
X130048000Y-81597500D03*
X127508000Y-81597500D03*
X124968000Y-81597500D03*
X124968000Y-73977500D03*
X127508000Y-73977500D03*
X130048000Y-73977500D03*
X132588000Y-73977500D03*
X135128000Y-73977500D03*
X137668000Y-73977500D03*
D10*
X140208000Y-73977500D03*
D12*
X102806500Y-92202000D03*
X105346500Y-92202000D03*
X107886500Y-92202000D03*
X110426500Y-92202000D03*
X112966500Y-92202000D03*
D13*
X115506500Y-92202000D03*
X136144000Y-91694000D03*
D12*
X133604000Y-91694000D03*
X131064000Y-91694000D03*
X128524000Y-91694000D03*
X125984000Y-91694000D03*
D13*
X147129500Y-83947000D03*
D12*
X147129500Y-81407000D03*
X147129500Y-78867000D03*
X147129500Y-76327000D03*
X147129500Y-73787000D03*
X92773500Y-73660000D03*
X92773500Y-76200000D03*
X92773500Y-78740000D03*
X92773500Y-81280000D03*
D13*
X92773500Y-83820000D03*
X141414500Y-61595000D03*
D12*
X141414500Y-64135000D03*
D14*
X123317000Y-89154000D03*
X121475500Y-76390500D03*
X98044000Y-77660500D03*
D15*
X128524000Y-89154000D02*
X131064000Y-91694000D01*
X123317000Y-89154000D02*
X128524000Y-89154000D01*
X146279501Y-80557001D02*
X147129500Y-81407000D01*
X145872199Y-80149699D02*
X146279501Y-80557001D01*
X129353055Y-80149699D02*
X145872199Y-80149699D01*
X127905254Y-81597500D02*
X129353055Y-80149699D01*
X127508000Y-81597500D02*
X127905254Y-81597500D01*
X109410500Y-78867000D02*
X106870500Y-81407000D01*
X147129500Y-78867000D02*
X109410500Y-78867000D01*
X146279501Y-75477001D02*
X147129500Y-76327000D01*
X143141699Y-72339199D02*
X146279501Y-75477001D01*
X115938301Y-72339199D02*
X143141699Y-72339199D01*
X114490500Y-73787000D02*
X115938301Y-72339199D01*
X95123000Y-76390500D02*
X92773500Y-78740000D01*
X121475500Y-76390500D02*
X95123000Y-76390500D01*
X139700000Y-81280000D02*
X137160000Y-81280000D01*
X116762900Y-92202000D02*
X115506500Y-92202000D01*
X125919599Y-83045301D02*
X116762900Y-92202000D01*
X136220199Y-83045301D02*
X125919599Y-83045301D01*
X137668000Y-81597500D02*
X136220199Y-83045301D01*
X121031000Y-81597500D02*
X110426500Y-92202000D01*
X124968000Y-81597500D02*
X121031000Y-81597500D01*
X102628699Y-82245199D02*
X101790500Y-81407000D01*
X103238301Y-82854801D02*
X102628699Y-82245199D01*
X110502699Y-82854801D02*
X103238301Y-82854801D01*
X111950500Y-81407000D02*
X110502699Y-82854801D01*
X104496501Y-91352001D02*
X105346500Y-92202000D01*
X97644001Y-84499501D02*
X104496501Y-91352001D01*
X97644001Y-78060499D02*
X97644001Y-84499501D01*
X98044000Y-77660500D02*
X97644001Y-78060499D01*
D16*
G36*
X151715001Y-108535000D02*
G01*
X87045000Y-108535000D01*
X87045000Y-84670000D01*
X91285428Y-84670000D01*
X91297688Y-84794482D01*
X91333998Y-84914180D01*
X91392963Y-85024494D01*
X91472315Y-85121185D01*
X91569006Y-85200537D01*
X91679320Y-85259502D01*
X91799018Y-85295812D01*
X91923500Y-85308072D01*
X92487750Y-85305000D01*
X92646500Y-85146250D01*
X92646500Y-83947000D01*
X92900500Y-83947000D01*
X92900500Y-85146250D01*
X93059250Y-85305000D01*
X93623500Y-85308072D01*
X93747982Y-85295812D01*
X93867680Y-85259502D01*
X93977994Y-85200537D01*
X94074685Y-85121185D01*
X94154037Y-85024494D01*
X94213002Y-84914180D01*
X94249312Y-84794482D01*
X94261572Y-84670000D01*
X94258500Y-84105750D01*
X94099750Y-83947000D01*
X92900500Y-83947000D01*
X92646500Y-83947000D01*
X91447250Y-83947000D01*
X91288500Y-84105750D01*
X91285428Y-84670000D01*
X87045000Y-84670000D01*
X87045000Y-73660000D01*
X91281315Y-73660000D01*
X91309987Y-73951111D01*
X91394901Y-74231034D01*
X91532794Y-74489014D01*
X91718366Y-74715134D01*
X91944486Y-74900706D01*
X91999291Y-74930000D01*
X91944486Y-74959294D01*
X91718366Y-75144866D01*
X91532794Y-75370986D01*
X91394901Y-75628966D01*
X91309987Y-75908889D01*
X91281315Y-76200000D01*
X91309987Y-76491111D01*
X91394901Y-76771034D01*
X91532794Y-77029014D01*
X91718366Y-77255134D01*
X91944486Y-77440706D01*
X91999291Y-77470000D01*
X91944486Y-77499294D01*
X91718366Y-77684866D01*
X91532794Y-77910986D01*
X91394901Y-78168966D01*
X91309987Y-78448889D01*
X91281315Y-78740000D01*
X91309987Y-79031111D01*
X91394901Y-79311034D01*
X91532794Y-79569014D01*
X91718366Y-79795134D01*
X91944486Y-79980706D01*
X91999291Y-80010000D01*
X91944486Y-80039294D01*
X91718366Y-80224866D01*
X91532794Y-80450986D01*
X91394901Y-80708966D01*
X91309987Y-80988889D01*
X91281315Y-81280000D01*
X91309987Y-81571111D01*
X91394901Y-81851034D01*
X91532794Y-82109014D01*
X91718366Y-82335134D01*
X91748187Y-82359607D01*
X91679320Y-82380498D01*
X91569006Y-82439463D01*
X91472315Y-82518815D01*
X91392963Y-82615506D01*
X91333998Y-82725820D01*
X91297688Y-82845518D01*
X91285428Y-82970000D01*
X91288500Y-83534250D01*
X91447250Y-83693000D01*
X92646500Y-83693000D01*
X92646500Y-83673000D01*
X92900500Y-83673000D01*
X92900500Y-83693000D01*
X94099750Y-83693000D01*
X94258500Y-83534250D01*
X94261572Y-82970000D01*
X94249312Y-82845518D01*
X94213002Y-82725820D01*
X94154037Y-82615506D01*
X94074685Y-82518815D01*
X93977994Y-82439463D01*
X93867680Y-82380498D01*
X93798813Y-82359607D01*
X93828634Y-82335134D01*
X94014206Y-82109014D01*
X94152099Y-81851034D01*
X94237013Y-81571111D01*
X94265685Y-81280000D01*
X94237013Y-80988889D01*
X94152099Y-80708966D01*
X94014206Y-80450986D01*
X93828634Y-80224866D01*
X93602514Y-80039294D01*
X93547709Y-80010000D01*
X93602514Y-79980706D01*
X93828634Y-79795134D01*
X94014206Y-79569014D01*
X94152099Y-79311034D01*
X94237013Y-79031111D01*
X94265685Y-78740000D01*
X94238178Y-78460716D01*
X95470194Y-77228700D01*
X97102582Y-77228700D01*
X97048774Y-77358602D01*
X97020965Y-77498410D01*
X96943692Y-77592568D01*
X96865859Y-77738183D01*
X96817930Y-77896184D01*
X96805801Y-78019330D01*
X96805801Y-78019336D01*
X96801747Y-78060499D01*
X96805801Y-78101662D01*
X96805802Y-84458328D01*
X96801747Y-84499501D01*
X96817930Y-84663816D01*
X96865859Y-84821817D01*
X96943692Y-84967432D01*
X97004216Y-85041180D01*
X97048438Y-85095065D01*
X97080414Y-85121307D01*
X102681257Y-90722150D01*
X102515389Y-90738487D01*
X102235466Y-90823401D01*
X101977486Y-90961294D01*
X101751366Y-91146866D01*
X101565794Y-91372986D01*
X101427901Y-91630966D01*
X101342987Y-91910889D01*
X101314315Y-92202000D01*
X101342987Y-92493111D01*
X101427901Y-92773034D01*
X101565794Y-93031014D01*
X101751366Y-93257134D01*
X101977486Y-93442706D01*
X102235466Y-93580599D01*
X102515389Y-93665513D01*
X102733550Y-93687000D01*
X102879450Y-93687000D01*
X103097611Y-93665513D01*
X103377534Y-93580599D01*
X103635514Y-93442706D01*
X103861634Y-93257134D01*
X104047206Y-93031014D01*
X104076500Y-92976209D01*
X104105794Y-93031014D01*
X104291366Y-93257134D01*
X104517486Y-93442706D01*
X104775466Y-93580599D01*
X105055389Y-93665513D01*
X105273550Y-93687000D01*
X105419450Y-93687000D01*
X105637611Y-93665513D01*
X105917534Y-93580599D01*
X106175514Y-93442706D01*
X106401634Y-93257134D01*
X106587206Y-93031014D01*
X106616500Y-92976209D01*
X106645794Y-93031014D01*
X106831366Y-93257134D01*
X107057486Y-93442706D01*
X107315466Y-93580599D01*
X107595389Y-93665513D01*
X107813550Y-93687000D01*
X107959450Y-93687000D01*
X108177611Y-93665513D01*
X108457534Y-93580599D01*
X108715514Y-93442706D01*
X108941634Y-93257134D01*
X109127206Y-93031014D01*
X109156500Y-92976209D01*
X109185794Y-93031014D01*
X109371366Y-93257134D01*
X109597486Y-93442706D01*
X109855466Y-93580599D01*
X110135389Y-93665513D01*
X110353550Y-93687000D01*
X110499450Y-93687000D01*
X110717611Y-93665513D01*
X110997534Y-93580599D01*
X111255514Y-93442706D01*
X111481634Y-93257134D01*
X111667206Y-93031014D01*
X111701701Y-92966477D01*
X111771322Y-93083355D01*
X111966231Y-93299588D01*
X112199580Y-93473641D01*
X112462401Y-93598825D01*
X112609610Y-93643476D01*
X112839500Y-93522155D01*
X112839500Y-92329000D01*
X112819500Y-92329000D01*
X112819500Y-92075000D01*
X112839500Y-92075000D01*
X112839500Y-92055000D01*
X113093500Y-92055000D01*
X113093500Y-92075000D01*
X113113500Y-92075000D01*
X113113500Y-92329000D01*
X113093500Y-92329000D01*
X113093500Y-93522155D01*
X113323390Y-93643476D01*
X113470599Y-93598825D01*
X113733420Y-93473641D01*
X113966769Y-93299588D01*
X114042534Y-93215534D01*
X114066998Y-93296180D01*
X114125963Y-93406494D01*
X114205315Y-93503185D01*
X114302006Y-93582537D01*
X114412320Y-93641502D01*
X114532018Y-93677812D01*
X114656500Y-93690072D01*
X116356500Y-93690072D01*
X116480982Y-93677812D01*
X116600680Y-93641502D01*
X116710994Y-93582537D01*
X116807685Y-93503185D01*
X116887037Y-93406494D01*
X116946002Y-93296180D01*
X116982312Y-93176482D01*
X116994572Y-93052000D01*
X116994572Y-93007639D01*
X117085217Y-92980142D01*
X117230832Y-92902309D01*
X117358464Y-92797564D01*
X117384711Y-92765582D01*
X121098232Y-89052061D01*
X122282000Y-89052061D01*
X122282000Y-89255939D01*
X122321774Y-89455898D01*
X122399795Y-89644256D01*
X122513063Y-89813774D01*
X122657226Y-89957937D01*
X122826744Y-90071205D01*
X123015102Y-90149226D01*
X123215061Y-90189000D01*
X123418939Y-90189000D01*
X123618898Y-90149226D01*
X123807256Y-90071205D01*
X123925496Y-89992200D01*
X128176807Y-89992200D01*
X128398757Y-90214150D01*
X128232889Y-90230487D01*
X127952966Y-90315401D01*
X127694986Y-90453294D01*
X127468866Y-90638866D01*
X127283294Y-90864986D01*
X127254000Y-90919791D01*
X127224706Y-90864986D01*
X127039134Y-90638866D01*
X126813014Y-90453294D01*
X126555034Y-90315401D01*
X126275111Y-90230487D01*
X126056950Y-90209000D01*
X125911050Y-90209000D01*
X125692889Y-90230487D01*
X125412966Y-90315401D01*
X125154986Y-90453294D01*
X124928866Y-90638866D01*
X124743294Y-90864986D01*
X124605401Y-91122966D01*
X124520487Y-91402889D01*
X124491815Y-91694000D01*
X124520487Y-91985111D01*
X124605401Y-92265034D01*
X124743294Y-92523014D01*
X124928866Y-92749134D01*
X125154986Y-92934706D01*
X125412966Y-93072599D01*
X125692889Y-93157513D01*
X125911050Y-93179000D01*
X126056950Y-93179000D01*
X126275111Y-93157513D01*
X126555034Y-93072599D01*
X126813014Y-92934706D01*
X127039134Y-92749134D01*
X127224706Y-92523014D01*
X127254000Y-92468209D01*
X127283294Y-92523014D01*
X127468866Y-92749134D01*
X127694986Y-92934706D01*
X127952966Y-93072599D01*
X128232889Y-93157513D01*
X128451050Y-93179000D01*
X128596950Y-93179000D01*
X128815111Y-93157513D01*
X129095034Y-93072599D01*
X129353014Y-92934706D01*
X129579134Y-92749134D01*
X129764706Y-92523014D01*
X129794000Y-92468209D01*
X129823294Y-92523014D01*
X130008866Y-92749134D01*
X130234986Y-92934706D01*
X130492966Y-93072599D01*
X130772889Y-93157513D01*
X130991050Y-93179000D01*
X131136950Y-93179000D01*
X131355111Y-93157513D01*
X131635034Y-93072599D01*
X131893014Y-92934706D01*
X132119134Y-92749134D01*
X132304706Y-92523014D01*
X132334000Y-92468209D01*
X132363294Y-92523014D01*
X132548866Y-92749134D01*
X132774986Y-92934706D01*
X133032966Y-93072599D01*
X133312889Y-93157513D01*
X133531050Y-93179000D01*
X133676950Y-93179000D01*
X133895111Y-93157513D01*
X134175034Y-93072599D01*
X134433014Y-92934706D01*
X134659134Y-92749134D01*
X134683607Y-92719313D01*
X134704498Y-92788180D01*
X134763463Y-92898494D01*
X134842815Y-92995185D01*
X134939506Y-93074537D01*
X135049820Y-93133502D01*
X135169518Y-93169812D01*
X135294000Y-93182072D01*
X135858250Y-93179000D01*
X136017000Y-93020250D01*
X136017000Y-91821000D01*
X136271000Y-91821000D01*
X136271000Y-93020250D01*
X136429750Y-93179000D01*
X136994000Y-93182072D01*
X137118482Y-93169812D01*
X137238180Y-93133502D01*
X137348494Y-93074537D01*
X137445185Y-92995185D01*
X137524537Y-92898494D01*
X137583502Y-92788180D01*
X137619812Y-92668482D01*
X137632072Y-92544000D01*
X137629000Y-91979750D01*
X137470250Y-91821000D01*
X136271000Y-91821000D01*
X136017000Y-91821000D01*
X135997000Y-91821000D01*
X135997000Y-91567000D01*
X136017000Y-91567000D01*
X136017000Y-90367750D01*
X136271000Y-90367750D01*
X136271000Y-91567000D01*
X137470250Y-91567000D01*
X137629000Y-91408250D01*
X137632072Y-90844000D01*
X137619812Y-90719518D01*
X137583502Y-90599820D01*
X137524537Y-90489506D01*
X137445185Y-90392815D01*
X137348494Y-90313463D01*
X137238180Y-90254498D01*
X137118482Y-90218188D01*
X136994000Y-90205928D01*
X136429750Y-90209000D01*
X136271000Y-90367750D01*
X136017000Y-90367750D01*
X135858250Y-90209000D01*
X135294000Y-90205928D01*
X135169518Y-90218188D01*
X135049820Y-90254498D01*
X134939506Y-90313463D01*
X134842815Y-90392815D01*
X134763463Y-90489506D01*
X134704498Y-90599820D01*
X134683607Y-90668687D01*
X134659134Y-90638866D01*
X134433014Y-90453294D01*
X134175034Y-90315401D01*
X133895111Y-90230487D01*
X133676950Y-90209000D01*
X133531050Y-90209000D01*
X133312889Y-90230487D01*
X133032966Y-90315401D01*
X132774986Y-90453294D01*
X132548866Y-90638866D01*
X132363294Y-90864986D01*
X132334000Y-90919791D01*
X132304706Y-90864986D01*
X132119134Y-90638866D01*
X131893014Y-90453294D01*
X131635034Y-90315401D01*
X131355111Y-90230487D01*
X131136950Y-90209000D01*
X130991050Y-90209000D01*
X130784716Y-90229322D01*
X129145811Y-88590418D01*
X129119564Y-88558436D01*
X128991932Y-88453691D01*
X128846317Y-88375858D01*
X128688316Y-88327929D01*
X128565170Y-88315800D01*
X128565163Y-88315800D01*
X128524000Y-88311746D01*
X128482837Y-88315800D01*
X123925496Y-88315800D01*
X123807256Y-88236795D01*
X123618898Y-88158774D01*
X123418939Y-88119000D01*
X123215061Y-88119000D01*
X123015102Y-88158774D01*
X122826744Y-88236795D01*
X122657226Y-88350063D01*
X122513063Y-88494226D01*
X122399795Y-88663744D01*
X122321774Y-88852102D01*
X122282000Y-89052061D01*
X121098232Y-89052061D01*
X125353293Y-84797000D01*
X145641428Y-84797000D01*
X145653688Y-84921482D01*
X145689998Y-85041180D01*
X145748963Y-85151494D01*
X145828315Y-85248185D01*
X145925006Y-85327537D01*
X146035320Y-85386502D01*
X146155018Y-85422812D01*
X146279500Y-85435072D01*
X146843750Y-85432000D01*
X147002500Y-85273250D01*
X147002500Y-84074000D01*
X147256500Y-84074000D01*
X147256500Y-85273250D01*
X147415250Y-85432000D01*
X147979500Y-85435072D01*
X148103982Y-85422812D01*
X148223680Y-85386502D01*
X148333994Y-85327537D01*
X148430685Y-85248185D01*
X148510037Y-85151494D01*
X148569002Y-85041180D01*
X148605312Y-84921482D01*
X148617572Y-84797000D01*
X148614500Y-84232750D01*
X148455750Y-84074000D01*
X147256500Y-84074000D01*
X147002500Y-84074000D01*
X145803250Y-84074000D01*
X145644500Y-84232750D01*
X145641428Y-84797000D01*
X125353293Y-84797000D01*
X126266793Y-83883501D01*
X136179036Y-83883501D01*
X136220199Y-83887555D01*
X136261362Y-83883501D01*
X136261369Y-83883501D01*
X136384515Y-83871372D01*
X136542516Y-83823443D01*
X136688131Y-83745610D01*
X136815763Y-83640865D01*
X136842010Y-83608883D01*
X137403870Y-83047023D01*
X137522902Y-83070700D01*
X137813098Y-83070700D01*
X138097717Y-83014086D01*
X138365822Y-82903033D01*
X138607110Y-82741809D01*
X138812309Y-82536610D01*
X138938000Y-82348501D01*
X139063691Y-82536610D01*
X139268890Y-82741809D01*
X139510178Y-82903033D01*
X139778283Y-83014086D01*
X140062902Y-83070700D01*
X140353098Y-83070700D01*
X140637717Y-83014086D01*
X140905822Y-82903033D01*
X141147110Y-82741809D01*
X141352309Y-82536610D01*
X141513533Y-82295322D01*
X141624586Y-82027217D01*
X141681200Y-81742598D01*
X141681200Y-81452402D01*
X141624586Y-81167783D01*
X141550075Y-80987899D01*
X145525006Y-80987899D01*
X145664822Y-81127715D01*
X145637315Y-81407000D01*
X145665987Y-81698111D01*
X145750901Y-81978034D01*
X145888794Y-82236014D01*
X146074366Y-82462134D01*
X146104187Y-82486607D01*
X146035320Y-82507498D01*
X145925006Y-82566463D01*
X145828315Y-82645815D01*
X145748963Y-82742506D01*
X145689998Y-82852820D01*
X145653688Y-82972518D01*
X145641428Y-83097000D01*
X145644500Y-83661250D01*
X145803250Y-83820000D01*
X147002500Y-83820000D01*
X147002500Y-83800000D01*
X147256500Y-83800000D01*
X147256500Y-83820000D01*
X148455750Y-83820000D01*
X148614500Y-83661250D01*
X148617572Y-83097000D01*
X148605312Y-82972518D01*
X148569002Y-82852820D01*
X148510037Y-82742506D01*
X148430685Y-82645815D01*
X148333994Y-82566463D01*
X148223680Y-82507498D01*
X148154813Y-82486607D01*
X148184634Y-82462134D01*
X148370206Y-82236014D01*
X148508099Y-81978034D01*
X148593013Y-81698111D01*
X148621685Y-81407000D01*
X148593013Y-81115889D01*
X148508099Y-80835966D01*
X148370206Y-80577986D01*
X148184634Y-80351866D01*
X147958514Y-80166294D01*
X147903709Y-80137000D01*
X147958514Y-80107706D01*
X148184634Y-79922134D01*
X148370206Y-79696014D01*
X148508099Y-79438034D01*
X148593013Y-79158111D01*
X148621685Y-78867000D01*
X148593013Y-78575889D01*
X148508099Y-78295966D01*
X148370206Y-78037986D01*
X148184634Y-77811866D01*
X147958514Y-77626294D01*
X147903709Y-77597000D01*
X147958514Y-77567706D01*
X148184634Y-77382134D01*
X148370206Y-77156014D01*
X148508099Y-76898034D01*
X148593013Y-76618111D01*
X148621685Y-76327000D01*
X148593013Y-76035889D01*
X148508099Y-75755966D01*
X148370206Y-75497986D01*
X148184634Y-75271866D01*
X147958514Y-75086294D01*
X147903709Y-75057000D01*
X147958514Y-75027706D01*
X148184634Y-74842134D01*
X148370206Y-74616014D01*
X148508099Y-74358034D01*
X148593013Y-74078111D01*
X148621685Y-73787000D01*
X148593013Y-73495889D01*
X148508099Y-73215966D01*
X148370206Y-72957986D01*
X148184634Y-72731866D01*
X147958514Y-72546294D01*
X147700534Y-72408401D01*
X147420611Y-72323487D01*
X147202450Y-72302000D01*
X147056550Y-72302000D01*
X146838389Y-72323487D01*
X146558466Y-72408401D01*
X146300486Y-72546294D01*
X146074366Y-72731866D01*
X145888794Y-72957986D01*
X145750901Y-73215966D01*
X145665987Y-73495889D01*
X145649650Y-73661757D01*
X143763510Y-71775617D01*
X143737263Y-71743635D01*
X143609631Y-71638890D01*
X143464016Y-71561057D01*
X143306015Y-71513128D01*
X143182869Y-71500999D01*
X143182862Y-71500999D01*
X143141699Y-71496945D01*
X143100536Y-71500999D01*
X115979464Y-71500999D01*
X115938301Y-71496945D01*
X115897138Y-71500999D01*
X115897131Y-71500999D01*
X115773985Y-71513128D01*
X115615984Y-71561057D01*
X115470369Y-71638890D01*
X115342737Y-71743635D01*
X115316495Y-71775612D01*
X114754630Y-72337477D01*
X114635598Y-72313800D01*
X114345402Y-72313800D01*
X114060783Y-72370414D01*
X113792678Y-72481467D01*
X113551390Y-72642691D01*
X113346191Y-72847890D01*
X113220500Y-73035999D01*
X113094809Y-72847890D01*
X112889610Y-72642691D01*
X112648322Y-72481467D01*
X112380217Y-72370414D01*
X112095598Y-72313800D01*
X111805402Y-72313800D01*
X111520783Y-72370414D01*
X111252678Y-72481467D01*
X111011390Y-72642691D01*
X110806191Y-72847890D01*
X110680500Y-73035999D01*
X110554809Y-72847890D01*
X110349610Y-72642691D01*
X110108322Y-72481467D01*
X109840217Y-72370414D01*
X109555598Y-72313800D01*
X109265402Y-72313800D01*
X108980783Y-72370414D01*
X108712678Y-72481467D01*
X108471390Y-72642691D01*
X108266191Y-72847890D01*
X108140500Y-73035999D01*
X108014809Y-72847890D01*
X107809610Y-72642691D01*
X107568322Y-72481467D01*
X107300217Y-72370414D01*
X107015598Y-72313800D01*
X106725402Y-72313800D01*
X106440783Y-72370414D01*
X106172678Y-72481467D01*
X105931390Y-72642691D01*
X105726191Y-72847890D01*
X105600500Y-73035999D01*
X105474809Y-72847890D01*
X105269610Y-72642691D01*
X105028322Y-72481467D01*
X104760217Y-72370414D01*
X104475598Y-72313800D01*
X104185402Y-72313800D01*
X103900783Y-72370414D01*
X103632678Y-72481467D01*
X103391390Y-72642691D01*
X103186191Y-72847890D01*
X103063211Y-73031943D01*
X103058344Y-73022838D01*
X102810475Y-72946630D01*
X101970105Y-73787000D01*
X102810475Y-74627370D01*
X103058344Y-74551162D01*
X103062899Y-74541592D01*
X103186191Y-74726110D01*
X103391390Y-74931309D01*
X103632678Y-75092533D01*
X103900783Y-75203586D01*
X104185402Y-75260200D01*
X104475598Y-75260200D01*
X104760217Y-75203586D01*
X105028322Y-75092533D01*
X105269610Y-74931309D01*
X105474809Y-74726110D01*
X105600500Y-74538001D01*
X105726191Y-74726110D01*
X105931390Y-74931309D01*
X106172678Y-75092533D01*
X106440783Y-75203586D01*
X106725402Y-75260200D01*
X107015598Y-75260200D01*
X107300217Y-75203586D01*
X107568322Y-75092533D01*
X107809610Y-74931309D01*
X108014809Y-74726110D01*
X108140500Y-74538001D01*
X108266191Y-74726110D01*
X108471390Y-74931309D01*
X108712678Y-75092533D01*
X108980783Y-75203586D01*
X109265402Y-75260200D01*
X109555598Y-75260200D01*
X109840217Y-75203586D01*
X110108322Y-75092533D01*
X110349610Y-74931309D01*
X110554809Y-74726110D01*
X110680500Y-74538001D01*
X110806191Y-74726110D01*
X111011390Y-74931309D01*
X111252678Y-75092533D01*
X111520783Y-75203586D01*
X111805402Y-75260200D01*
X112095598Y-75260200D01*
X112380217Y-75203586D01*
X112648322Y-75092533D01*
X112889610Y-74931309D01*
X113094809Y-74726110D01*
X113220500Y-74538001D01*
X113346191Y-74726110D01*
X113551390Y-74931309D01*
X113792678Y-75092533D01*
X114060783Y-75203586D01*
X114345402Y-75260200D01*
X114635598Y-75260200D01*
X114920217Y-75203586D01*
X115188322Y-75092533D01*
X115429610Y-74931309D01*
X115576903Y-74784016D01*
X115602798Y-74869380D01*
X115661763Y-74979694D01*
X115741115Y-75076385D01*
X115837806Y-75155737D01*
X115948120Y-75214702D01*
X116067818Y-75251012D01*
X116192300Y-75263272D01*
X117868700Y-75263272D01*
X117993182Y-75251012D01*
X118112880Y-75214702D01*
X118223194Y-75155737D01*
X118319885Y-75076385D01*
X118384644Y-74997475D01*
X124127630Y-74997475D01*
X124203838Y-75245344D01*
X124465865Y-75370063D01*
X124747189Y-75441268D01*
X125036999Y-75456219D01*
X125324157Y-75414345D01*
X125597628Y-75317254D01*
X125732162Y-75245344D01*
X125808370Y-74997475D01*
X124968000Y-74157105D01*
X124127630Y-74997475D01*
X118384644Y-74997475D01*
X118399237Y-74979694D01*
X118458202Y-74869380D01*
X118494512Y-74749682D01*
X118506772Y-74625200D01*
X118506772Y-73177399D01*
X123817049Y-73177399D01*
X123700156Y-73213338D01*
X123575437Y-73475365D01*
X123504232Y-73756689D01*
X123489281Y-74046499D01*
X123531155Y-74333657D01*
X123628246Y-74607128D01*
X123700156Y-74741662D01*
X123948025Y-74817870D01*
X124788395Y-73977500D01*
X124774253Y-73963358D01*
X124953858Y-73783753D01*
X124968000Y-73797895D01*
X124982143Y-73783753D01*
X125161748Y-73963358D01*
X125147605Y-73977500D01*
X125987975Y-74817870D01*
X126235844Y-74741662D01*
X126240399Y-74732092D01*
X126363691Y-74916610D01*
X126568890Y-75121809D01*
X126810178Y-75283033D01*
X127078283Y-75394086D01*
X127362902Y-75450700D01*
X127653098Y-75450700D01*
X127937717Y-75394086D01*
X128205822Y-75283033D01*
X128447110Y-75121809D01*
X128652309Y-74916610D01*
X128778000Y-74728501D01*
X128903691Y-74916610D01*
X129108890Y-75121809D01*
X129350178Y-75283033D01*
X129618283Y-75394086D01*
X129902902Y-75450700D01*
X130193098Y-75450700D01*
X130477717Y-75394086D01*
X130745822Y-75283033D01*
X130987110Y-75121809D01*
X131192309Y-74916610D01*
X131318000Y-74728501D01*
X131443691Y-74916610D01*
X131648890Y-75121809D01*
X131890178Y-75283033D01*
X132158283Y-75394086D01*
X132442902Y-75450700D01*
X132733098Y-75450700D01*
X133017717Y-75394086D01*
X133285822Y-75283033D01*
X133527110Y-75121809D01*
X133732309Y-74916610D01*
X133858000Y-74728501D01*
X133983691Y-74916610D01*
X134188890Y-75121809D01*
X134430178Y-75283033D01*
X134698283Y-75394086D01*
X134982902Y-75450700D01*
X135273098Y-75450700D01*
X135557717Y-75394086D01*
X135825822Y-75283033D01*
X136067110Y-75121809D01*
X136272309Y-74916610D01*
X136398000Y-74728501D01*
X136523691Y-74916610D01*
X136728890Y-75121809D01*
X136970178Y-75283033D01*
X137238283Y-75394086D01*
X137522902Y-75450700D01*
X137813098Y-75450700D01*
X138097717Y-75394086D01*
X138365822Y-75283033D01*
X138607110Y-75121809D01*
X138754403Y-74974516D01*
X138780298Y-75059880D01*
X138839263Y-75170194D01*
X138918615Y-75266885D01*
X139015306Y-75346237D01*
X139125620Y-75405202D01*
X139245318Y-75441512D01*
X139369800Y-75453772D01*
X141046200Y-75453772D01*
X141170682Y-75441512D01*
X141290380Y-75405202D01*
X141400694Y-75346237D01*
X141497385Y-75266885D01*
X141576737Y-75170194D01*
X141635702Y-75059880D01*
X141672012Y-74940182D01*
X141684272Y-74815700D01*
X141684272Y-73177399D01*
X142794506Y-73177399D01*
X145664822Y-76047716D01*
X145637315Y-76327000D01*
X145665987Y-76618111D01*
X145750901Y-76898034D01*
X145888794Y-77156014D01*
X146074366Y-77382134D01*
X146300486Y-77567706D01*
X146355291Y-77597000D01*
X146300486Y-77626294D01*
X146074366Y-77811866D01*
X145896333Y-78028800D01*
X109451659Y-78028800D01*
X109410499Y-78024746D01*
X109369339Y-78028800D01*
X109369330Y-78028800D01*
X109246184Y-78040929D01*
X109088183Y-78088858D01*
X108942568Y-78166691D01*
X108814936Y-78271436D01*
X108788694Y-78303412D01*
X107134630Y-79957477D01*
X107015598Y-79933800D01*
X106725402Y-79933800D01*
X106440783Y-79990414D01*
X106172678Y-80101467D01*
X105931390Y-80262691D01*
X105726191Y-80467890D01*
X105600500Y-80655999D01*
X105474809Y-80467890D01*
X105269610Y-80262691D01*
X105028322Y-80101467D01*
X104760217Y-79990414D01*
X104475598Y-79933800D01*
X104185402Y-79933800D01*
X103900783Y-79990414D01*
X103632678Y-80101467D01*
X103391390Y-80262691D01*
X103186191Y-80467890D01*
X103060500Y-80655999D01*
X102934809Y-80467890D01*
X102729610Y-80262691D01*
X102488322Y-80101467D01*
X102220217Y-79990414D01*
X101935598Y-79933800D01*
X101645402Y-79933800D01*
X101360783Y-79990414D01*
X101092678Y-80101467D01*
X100851390Y-80262691D01*
X100646191Y-80467890D01*
X100484967Y-80709178D01*
X100373914Y-80977283D01*
X100317300Y-81261902D01*
X100317300Y-81552098D01*
X100373914Y-81836717D01*
X100484967Y-82104822D01*
X100646191Y-82346110D01*
X100851390Y-82551309D01*
X101092678Y-82712533D01*
X101360783Y-82823586D01*
X101645402Y-82880200D01*
X101935598Y-82880200D01*
X102054629Y-82856523D01*
X102065113Y-82867007D01*
X102065118Y-82867011D01*
X102616494Y-83418388D01*
X102642737Y-83450365D01*
X102674713Y-83476607D01*
X102674715Y-83476609D01*
X102719342Y-83513233D01*
X102770369Y-83555110D01*
X102915984Y-83632943D01*
X103073985Y-83680872D01*
X103197131Y-83693001D01*
X103197140Y-83693001D01*
X103238300Y-83697055D01*
X103279460Y-83693001D01*
X110461536Y-83693001D01*
X110502699Y-83697055D01*
X110543862Y-83693001D01*
X110543869Y-83693001D01*
X110667015Y-83680872D01*
X110825016Y-83632943D01*
X110970631Y-83555110D01*
X111098263Y-83450365D01*
X111124510Y-83418383D01*
X111686370Y-82856523D01*
X111805402Y-82880200D01*
X112095598Y-82880200D01*
X112380217Y-82823586D01*
X112648322Y-82712533D01*
X112889610Y-82551309D01*
X113094809Y-82346110D01*
X113220500Y-82158001D01*
X113346191Y-82346110D01*
X113551390Y-82551309D01*
X113792678Y-82712533D01*
X114060783Y-82823586D01*
X114345402Y-82880200D01*
X114635598Y-82880200D01*
X114920217Y-82823586D01*
X115188322Y-82712533D01*
X115429610Y-82551309D01*
X115634809Y-82346110D01*
X115760500Y-82158001D01*
X115886191Y-82346110D01*
X116091390Y-82551309D01*
X116332678Y-82712533D01*
X116600783Y-82823586D01*
X116885402Y-82880200D01*
X117175598Y-82880200D01*
X117460217Y-82823586D01*
X117728322Y-82712533D01*
X117969610Y-82551309D01*
X118174809Y-82346110D01*
X118336033Y-82104822D01*
X118447086Y-81836717D01*
X118503700Y-81552098D01*
X118503700Y-81261902D01*
X118447086Y-80977283D01*
X118336033Y-80709178D01*
X118174809Y-80467890D01*
X117969610Y-80262691D01*
X117728322Y-80101467D01*
X117460217Y-79990414D01*
X117175598Y-79933800D01*
X116885402Y-79933800D01*
X116600783Y-79990414D01*
X116332678Y-80101467D01*
X116091390Y-80262691D01*
X115886191Y-80467890D01*
X115760500Y-80655999D01*
X115634809Y-80467890D01*
X115429610Y-80262691D01*
X115188322Y-80101467D01*
X114920217Y-79990414D01*
X114635598Y-79933800D01*
X114345402Y-79933800D01*
X114060783Y-79990414D01*
X113792678Y-80101467D01*
X113551390Y-80262691D01*
X113346191Y-80467890D01*
X113220500Y-80655999D01*
X113094809Y-80467890D01*
X112889610Y-80262691D01*
X112648322Y-80101467D01*
X112380217Y-79990414D01*
X112095598Y-79933800D01*
X111805402Y-79933800D01*
X111520783Y-79990414D01*
X111252678Y-80101467D01*
X111011390Y-80262691D01*
X110806191Y-80467890D01*
X110680500Y-80655999D01*
X110554809Y-80467890D01*
X110349610Y-80262691D01*
X110108322Y-80101467D01*
X109840217Y-79990414D01*
X109555598Y-79933800D01*
X109529094Y-79933800D01*
X109757694Y-79705200D01*
X128612160Y-79705200D01*
X128078240Y-80239121D01*
X127937717Y-80180914D01*
X127653098Y-80124300D01*
X127362902Y-80124300D01*
X127078283Y-80180914D01*
X126810178Y-80291967D01*
X126568890Y-80453191D01*
X126363691Y-80658390D01*
X126238000Y-80846499D01*
X126112309Y-80658390D01*
X125907110Y-80453191D01*
X125665822Y-80291967D01*
X125397717Y-80180914D01*
X125113098Y-80124300D01*
X124822902Y-80124300D01*
X124538283Y-80180914D01*
X124270178Y-80291967D01*
X124028890Y-80453191D01*
X123823691Y-80658390D01*
X123756265Y-80759300D01*
X121072163Y-80759300D01*
X121031000Y-80755246D01*
X120989837Y-80759300D01*
X120989830Y-80759300D01*
X120866684Y-80771429D01*
X120708683Y-80819358D01*
X120563068Y-80897191D01*
X120512040Y-80939069D01*
X120435436Y-81001936D01*
X120409194Y-81033912D01*
X110705785Y-90737322D01*
X110499450Y-90717000D01*
X110353550Y-90717000D01*
X110135389Y-90738487D01*
X109855466Y-90823401D01*
X109597486Y-90961294D01*
X109371366Y-91146866D01*
X109185794Y-91372986D01*
X109156500Y-91427791D01*
X109127206Y-91372986D01*
X108941634Y-91146866D01*
X108715514Y-90961294D01*
X108457534Y-90823401D01*
X108177611Y-90738487D01*
X107959450Y-90717000D01*
X107813550Y-90717000D01*
X107595389Y-90738487D01*
X107315466Y-90823401D01*
X107057486Y-90961294D01*
X106831366Y-91146866D01*
X106645794Y-91372986D01*
X106616500Y-91427791D01*
X106587206Y-91372986D01*
X106401634Y-91146866D01*
X106175514Y-90961294D01*
X105917534Y-90823401D01*
X105637611Y-90738487D01*
X105419450Y-90717000D01*
X105273550Y-90717000D01*
X105067216Y-90737322D01*
X98482201Y-84152308D01*
X98482201Y-78599267D01*
X98534256Y-78577705D01*
X98703774Y-78464437D01*
X98847937Y-78320274D01*
X98961205Y-78150756D01*
X99039226Y-77962398D01*
X99079000Y-77762439D01*
X99079000Y-77558561D01*
X99039226Y-77358602D01*
X98985418Y-77228700D01*
X120867004Y-77228700D01*
X120985244Y-77307705D01*
X121173602Y-77385726D01*
X121373561Y-77425500D01*
X121577439Y-77425500D01*
X121777398Y-77385726D01*
X121965756Y-77307705D01*
X122135274Y-77194437D01*
X122279437Y-77050274D01*
X122392705Y-76880756D01*
X122470726Y-76692398D01*
X122510500Y-76492439D01*
X122510500Y-76288561D01*
X122470726Y-76088602D01*
X122392705Y-75900244D01*
X122279437Y-75730726D01*
X122135274Y-75586563D01*
X121965756Y-75473295D01*
X121777398Y-75395274D01*
X121577439Y-75355500D01*
X121373561Y-75355500D01*
X121173602Y-75395274D01*
X120985244Y-75473295D01*
X120867004Y-75552300D01*
X95164163Y-75552300D01*
X95123000Y-75548246D01*
X95081837Y-75552300D01*
X95081830Y-75552300D01*
X94958684Y-75564429D01*
X94800683Y-75612358D01*
X94655068Y-75690191D01*
X94565846Y-75763414D01*
X94527436Y-75794936D01*
X94501194Y-75826912D01*
X94253350Y-76074757D01*
X94237013Y-75908889D01*
X94152099Y-75628966D01*
X94014206Y-75370986D01*
X93828634Y-75144866D01*
X93602514Y-74959294D01*
X93547709Y-74930000D01*
X93602514Y-74900706D01*
X93716725Y-74806975D01*
X100950130Y-74806975D01*
X101026338Y-75054844D01*
X101288365Y-75179563D01*
X101569689Y-75250768D01*
X101859499Y-75265719D01*
X102146657Y-75223845D01*
X102420128Y-75126754D01*
X102554662Y-75054844D01*
X102630870Y-74806975D01*
X101790500Y-73966605D01*
X100950130Y-74806975D01*
X93716725Y-74806975D01*
X93828634Y-74715134D01*
X94014206Y-74489014D01*
X94152099Y-74231034D01*
X94237013Y-73951111D01*
X94246380Y-73855999D01*
X100311781Y-73855999D01*
X100353655Y-74143157D01*
X100450746Y-74416628D01*
X100522656Y-74551162D01*
X100770525Y-74627370D01*
X101610895Y-73787000D01*
X100770525Y-72946630D01*
X100522656Y-73022838D01*
X100397937Y-73284865D01*
X100326732Y-73566189D01*
X100311781Y-73855999D01*
X94246380Y-73855999D01*
X94265685Y-73660000D01*
X94237013Y-73368889D01*
X94152099Y-73088966D01*
X94014206Y-72830986D01*
X93961715Y-72767025D01*
X100950130Y-72767025D01*
X101790500Y-73607395D01*
X102630870Y-72767025D01*
X102554662Y-72519156D01*
X102292635Y-72394437D01*
X102011311Y-72323232D01*
X101721501Y-72308281D01*
X101434343Y-72350155D01*
X101160872Y-72447246D01*
X101026338Y-72519156D01*
X100950130Y-72767025D01*
X93961715Y-72767025D01*
X93828634Y-72604866D01*
X93602514Y-72419294D01*
X93344534Y-72281401D01*
X93064611Y-72196487D01*
X92846450Y-72175000D01*
X92700550Y-72175000D01*
X92482389Y-72196487D01*
X92202466Y-72281401D01*
X91944486Y-72419294D01*
X91718366Y-72604866D01*
X91532794Y-72830986D01*
X91394901Y-73088966D01*
X91309987Y-73368889D01*
X91281315Y-73660000D01*
X87045000Y-73660000D01*
X87045000Y-64491890D01*
X139973024Y-64491890D01*
X140017675Y-64639099D01*
X140142859Y-64901920D01*
X140316912Y-65135269D01*
X140533145Y-65330178D01*
X140783248Y-65479157D01*
X141057609Y-65576481D01*
X141287500Y-65455814D01*
X141287500Y-64262000D01*
X141541500Y-64262000D01*
X141541500Y-65455814D01*
X141771391Y-65576481D01*
X142045752Y-65479157D01*
X142295855Y-65330178D01*
X142512088Y-65135269D01*
X142686141Y-64901920D01*
X142811325Y-64639099D01*
X142855976Y-64491890D01*
X142734655Y-64262000D01*
X141541500Y-64262000D01*
X141287500Y-64262000D01*
X140094345Y-64262000D01*
X139973024Y-64491890D01*
X87045000Y-64491890D01*
X87045000Y-60745000D01*
X139926428Y-60745000D01*
X139926428Y-62445000D01*
X139938688Y-62569482D01*
X139974998Y-62689180D01*
X140033963Y-62799494D01*
X140113315Y-62896185D01*
X140210006Y-62975537D01*
X140320320Y-63034502D01*
X140400966Y-63058966D01*
X140316912Y-63134731D01*
X140142859Y-63368080D01*
X140017675Y-63630901D01*
X139973024Y-63778110D01*
X140094345Y-64008000D01*
X141287500Y-64008000D01*
X141287500Y-63988000D01*
X141541500Y-63988000D01*
X141541500Y-64008000D01*
X142734655Y-64008000D01*
X142855976Y-63778110D01*
X142811325Y-63630901D01*
X142686141Y-63368080D01*
X142512088Y-63134731D01*
X142428034Y-63058966D01*
X142508680Y-63034502D01*
X142618994Y-62975537D01*
X142715685Y-62896185D01*
X142795037Y-62799494D01*
X142854002Y-62689180D01*
X142890312Y-62569482D01*
X142902572Y-62445000D01*
X142902572Y-60745000D01*
X142890312Y-60620518D01*
X142854002Y-60500820D01*
X142795037Y-60390506D01*
X142715685Y-60293815D01*
X142618994Y-60214463D01*
X142508680Y-60155498D01*
X142388982Y-60119188D01*
X142264500Y-60106928D01*
X140564500Y-60106928D01*
X140440018Y-60119188D01*
X140320320Y-60155498D01*
X140210006Y-60214463D01*
X140113315Y-60293815D01*
X140033963Y-60390506D01*
X139974998Y-60500820D01*
X139938688Y-60620518D01*
X139926428Y-60745000D01*
X87045000Y-60745000D01*
X87045000Y-54025000D01*
X151715000Y-54025000D01*
X151715001Y-108535000D01*
X151715001Y-108535000D01*
G37*
X151715001Y-108535000D02*
X87045000Y-108535000D01*
X87045000Y-84670000D01*
X91285428Y-84670000D01*
X91297688Y-84794482D01*
X91333998Y-84914180D01*
X91392963Y-85024494D01*
X91472315Y-85121185D01*
X91569006Y-85200537D01*
X91679320Y-85259502D01*
X91799018Y-85295812D01*
X91923500Y-85308072D01*
X92487750Y-85305000D01*
X92646500Y-85146250D01*
X92646500Y-83947000D01*
X92900500Y-83947000D01*
X92900500Y-85146250D01*
X93059250Y-85305000D01*
X93623500Y-85308072D01*
X93747982Y-85295812D01*
X93867680Y-85259502D01*
X93977994Y-85200537D01*
X94074685Y-85121185D01*
X94154037Y-85024494D01*
X94213002Y-84914180D01*
X94249312Y-84794482D01*
X94261572Y-84670000D01*
X94258500Y-84105750D01*
X94099750Y-83947000D01*
X92900500Y-83947000D01*
X92646500Y-83947000D01*
X91447250Y-83947000D01*
X91288500Y-84105750D01*
X91285428Y-84670000D01*
X87045000Y-84670000D01*
X87045000Y-73660000D01*
X91281315Y-73660000D01*
X91309987Y-73951111D01*
X91394901Y-74231034D01*
X91532794Y-74489014D01*
X91718366Y-74715134D01*
X91944486Y-74900706D01*
X91999291Y-74930000D01*
X91944486Y-74959294D01*
X91718366Y-75144866D01*
X91532794Y-75370986D01*
X91394901Y-75628966D01*
X91309987Y-75908889D01*
X91281315Y-76200000D01*
X91309987Y-76491111D01*
X91394901Y-76771034D01*
X91532794Y-77029014D01*
X91718366Y-77255134D01*
X91944486Y-77440706D01*
X91999291Y-77470000D01*
X91944486Y-77499294D01*
X91718366Y-77684866D01*
X91532794Y-77910986D01*
X91394901Y-78168966D01*
X91309987Y-78448889D01*
X91281315Y-78740000D01*
X91309987Y-79031111D01*
X91394901Y-79311034D01*
X91532794Y-79569014D01*
X91718366Y-79795134D01*
X91944486Y-79980706D01*
X91999291Y-80010000D01*
X91944486Y-80039294D01*
X91718366Y-80224866D01*
X91532794Y-80450986D01*
X91394901Y-80708966D01*
X91309987Y-80988889D01*
X91281315Y-81280000D01*
X91309987Y-81571111D01*
X91394901Y-81851034D01*
X91532794Y-82109014D01*
X91718366Y-82335134D01*
X91748187Y-82359607D01*
X91679320Y-82380498D01*
X91569006Y-82439463D01*
X91472315Y-82518815D01*
X91392963Y-82615506D01*
X91333998Y-82725820D01*
X91297688Y-82845518D01*
X91285428Y-82970000D01*
X91288500Y-83534250D01*
X91447250Y-83693000D01*
X92646500Y-83693000D01*
X92646500Y-83673000D01*
X92900500Y-83673000D01*
X92900500Y-83693000D01*
X94099750Y-83693000D01*
X94258500Y-83534250D01*
X94261572Y-82970000D01*
X94249312Y-82845518D01*
X94213002Y-82725820D01*
X94154037Y-82615506D01*
X94074685Y-82518815D01*
X93977994Y-82439463D01*
X93867680Y-82380498D01*
X93798813Y-82359607D01*
X93828634Y-82335134D01*
X94014206Y-82109014D01*
X94152099Y-81851034D01*
X94237013Y-81571111D01*
X94265685Y-81280000D01*
X94237013Y-80988889D01*
X94152099Y-80708966D01*
X94014206Y-80450986D01*
X93828634Y-80224866D01*
X93602514Y-80039294D01*
X93547709Y-80010000D01*
X93602514Y-79980706D01*
X93828634Y-79795134D01*
X94014206Y-79569014D01*
X94152099Y-79311034D01*
X94237013Y-79031111D01*
X94265685Y-78740000D01*
X94238178Y-78460716D01*
X95470194Y-77228700D01*
X97102582Y-77228700D01*
X97048774Y-77358602D01*
X97020965Y-77498410D01*
X96943692Y-77592568D01*
X96865859Y-77738183D01*
X96817930Y-77896184D01*
X96805801Y-78019330D01*
X96805801Y-78019336D01*
X96801747Y-78060499D01*
X96805801Y-78101662D01*
X96805802Y-84458328D01*
X96801747Y-84499501D01*
X96817930Y-84663816D01*
X96865859Y-84821817D01*
X96943692Y-84967432D01*
X97004216Y-85041180D01*
X97048438Y-85095065D01*
X97080414Y-85121307D01*
X102681257Y-90722150D01*
X102515389Y-90738487D01*
X102235466Y-90823401D01*
X101977486Y-90961294D01*
X101751366Y-91146866D01*
X101565794Y-91372986D01*
X101427901Y-91630966D01*
X101342987Y-91910889D01*
X101314315Y-92202000D01*
X101342987Y-92493111D01*
X101427901Y-92773034D01*
X101565794Y-93031014D01*
X101751366Y-93257134D01*
X101977486Y-93442706D01*
X102235466Y-93580599D01*
X102515389Y-93665513D01*
X102733550Y-93687000D01*
X102879450Y-93687000D01*
X103097611Y-93665513D01*
X103377534Y-93580599D01*
X103635514Y-93442706D01*
X103861634Y-93257134D01*
X104047206Y-93031014D01*
X104076500Y-92976209D01*
X104105794Y-93031014D01*
X104291366Y-93257134D01*
X104517486Y-93442706D01*
X104775466Y-93580599D01*
X105055389Y-93665513D01*
X105273550Y-93687000D01*
X105419450Y-93687000D01*
X105637611Y-93665513D01*
X105917534Y-93580599D01*
X106175514Y-93442706D01*
X106401634Y-93257134D01*
X106587206Y-93031014D01*
X106616500Y-92976209D01*
X106645794Y-93031014D01*
X106831366Y-93257134D01*
X107057486Y-93442706D01*
X107315466Y-93580599D01*
X107595389Y-93665513D01*
X107813550Y-93687000D01*
X107959450Y-93687000D01*
X108177611Y-93665513D01*
X108457534Y-93580599D01*
X108715514Y-93442706D01*
X108941634Y-93257134D01*
X109127206Y-93031014D01*
X109156500Y-92976209D01*
X109185794Y-93031014D01*
X109371366Y-93257134D01*
X109597486Y-93442706D01*
X109855466Y-93580599D01*
X110135389Y-93665513D01*
X110353550Y-93687000D01*
X110499450Y-93687000D01*
X110717611Y-93665513D01*
X110997534Y-93580599D01*
X111255514Y-93442706D01*
X111481634Y-93257134D01*
X111667206Y-93031014D01*
X111701701Y-92966477D01*
X111771322Y-93083355D01*
X111966231Y-93299588D01*
X112199580Y-93473641D01*
X112462401Y-93598825D01*
X112609610Y-93643476D01*
X112839500Y-93522155D01*
X112839500Y-92329000D01*
X112819500Y-92329000D01*
X112819500Y-92075000D01*
X112839500Y-92075000D01*
X112839500Y-92055000D01*
X113093500Y-92055000D01*
X113093500Y-92075000D01*
X113113500Y-92075000D01*
X113113500Y-92329000D01*
X113093500Y-92329000D01*
X113093500Y-93522155D01*
X113323390Y-93643476D01*
X113470599Y-93598825D01*
X113733420Y-93473641D01*
X113966769Y-93299588D01*
X114042534Y-93215534D01*
X114066998Y-93296180D01*
X114125963Y-93406494D01*
X114205315Y-93503185D01*
X114302006Y-93582537D01*
X114412320Y-93641502D01*
X114532018Y-93677812D01*
X114656500Y-93690072D01*
X116356500Y-93690072D01*
X116480982Y-93677812D01*
X116600680Y-93641502D01*
X116710994Y-93582537D01*
X116807685Y-93503185D01*
X116887037Y-93406494D01*
X116946002Y-93296180D01*
X116982312Y-93176482D01*
X116994572Y-93052000D01*
X116994572Y-93007639D01*
X117085217Y-92980142D01*
X117230832Y-92902309D01*
X117358464Y-92797564D01*
X117384711Y-92765582D01*
X121098232Y-89052061D01*
X122282000Y-89052061D01*
X122282000Y-89255939D01*
X122321774Y-89455898D01*
X122399795Y-89644256D01*
X122513063Y-89813774D01*
X122657226Y-89957937D01*
X122826744Y-90071205D01*
X123015102Y-90149226D01*
X123215061Y-90189000D01*
X123418939Y-90189000D01*
X123618898Y-90149226D01*
X123807256Y-90071205D01*
X123925496Y-89992200D01*
X128176807Y-89992200D01*
X128398757Y-90214150D01*
X128232889Y-90230487D01*
X127952966Y-90315401D01*
X127694986Y-90453294D01*
X127468866Y-90638866D01*
X127283294Y-90864986D01*
X127254000Y-90919791D01*
X127224706Y-90864986D01*
X127039134Y-90638866D01*
X126813014Y-90453294D01*
X126555034Y-90315401D01*
X126275111Y-90230487D01*
X126056950Y-90209000D01*
X125911050Y-90209000D01*
X125692889Y-90230487D01*
X125412966Y-90315401D01*
X125154986Y-90453294D01*
X124928866Y-90638866D01*
X124743294Y-90864986D01*
X124605401Y-91122966D01*
X124520487Y-91402889D01*
X124491815Y-91694000D01*
X124520487Y-91985111D01*
X124605401Y-92265034D01*
X124743294Y-92523014D01*
X124928866Y-92749134D01*
X125154986Y-92934706D01*
X125412966Y-93072599D01*
X125692889Y-93157513D01*
X125911050Y-93179000D01*
X126056950Y-93179000D01*
X126275111Y-93157513D01*
X126555034Y-93072599D01*
X126813014Y-92934706D01*
X127039134Y-92749134D01*
X127224706Y-92523014D01*
X127254000Y-92468209D01*
X127283294Y-92523014D01*
X127468866Y-92749134D01*
X127694986Y-92934706D01*
X127952966Y-93072599D01*
X128232889Y-93157513D01*
X128451050Y-93179000D01*
X128596950Y-93179000D01*
X128815111Y-93157513D01*
X129095034Y-93072599D01*
X129353014Y-92934706D01*
X129579134Y-92749134D01*
X129764706Y-92523014D01*
X129794000Y-92468209D01*
X129823294Y-92523014D01*
X130008866Y-92749134D01*
X130234986Y-92934706D01*
X130492966Y-93072599D01*
X130772889Y-93157513D01*
X130991050Y-93179000D01*
X131136950Y-93179000D01*
X131355111Y-93157513D01*
X131635034Y-93072599D01*
X131893014Y-92934706D01*
X132119134Y-92749134D01*
X132304706Y-92523014D01*
X132334000Y-92468209D01*
X132363294Y-92523014D01*
X132548866Y-92749134D01*
X132774986Y-92934706D01*
X133032966Y-93072599D01*
X133312889Y-93157513D01*
X133531050Y-93179000D01*
X133676950Y-93179000D01*
X133895111Y-93157513D01*
X134175034Y-93072599D01*
X134433014Y-92934706D01*
X134659134Y-92749134D01*
X134683607Y-92719313D01*
X134704498Y-92788180D01*
X134763463Y-92898494D01*
X134842815Y-92995185D01*
X134939506Y-93074537D01*
X135049820Y-93133502D01*
X135169518Y-93169812D01*
X135294000Y-93182072D01*
X135858250Y-93179000D01*
X136017000Y-93020250D01*
X136017000Y-91821000D01*
X136271000Y-91821000D01*
X136271000Y-93020250D01*
X136429750Y-93179000D01*
X136994000Y-93182072D01*
X137118482Y-93169812D01*
X137238180Y-93133502D01*
X137348494Y-93074537D01*
X137445185Y-92995185D01*
X137524537Y-92898494D01*
X137583502Y-92788180D01*
X137619812Y-92668482D01*
X137632072Y-92544000D01*
X137629000Y-91979750D01*
X137470250Y-91821000D01*
X136271000Y-91821000D01*
X136017000Y-91821000D01*
X135997000Y-91821000D01*
X135997000Y-91567000D01*
X136017000Y-91567000D01*
X136017000Y-90367750D01*
X136271000Y-90367750D01*
X136271000Y-91567000D01*
X137470250Y-91567000D01*
X137629000Y-91408250D01*
X137632072Y-90844000D01*
X137619812Y-90719518D01*
X137583502Y-90599820D01*
X137524537Y-90489506D01*
X137445185Y-90392815D01*
X137348494Y-90313463D01*
X137238180Y-90254498D01*
X137118482Y-90218188D01*
X136994000Y-90205928D01*
X136429750Y-90209000D01*
X136271000Y-90367750D01*
X136017000Y-90367750D01*
X135858250Y-90209000D01*
X135294000Y-90205928D01*
X135169518Y-90218188D01*
X135049820Y-90254498D01*
X134939506Y-90313463D01*
X134842815Y-90392815D01*
X134763463Y-90489506D01*
X134704498Y-90599820D01*
X134683607Y-90668687D01*
X134659134Y-90638866D01*
X134433014Y-90453294D01*
X134175034Y-90315401D01*
X133895111Y-90230487D01*
X133676950Y-90209000D01*
X133531050Y-90209000D01*
X133312889Y-90230487D01*
X133032966Y-90315401D01*
X132774986Y-90453294D01*
X132548866Y-90638866D01*
X132363294Y-90864986D01*
X132334000Y-90919791D01*
X132304706Y-90864986D01*
X132119134Y-90638866D01*
X131893014Y-90453294D01*
X131635034Y-90315401D01*
X131355111Y-90230487D01*
X131136950Y-90209000D01*
X130991050Y-90209000D01*
X130784716Y-90229322D01*
X129145811Y-88590418D01*
X129119564Y-88558436D01*
X128991932Y-88453691D01*
X128846317Y-88375858D01*
X128688316Y-88327929D01*
X128565170Y-88315800D01*
X128565163Y-88315800D01*
X128524000Y-88311746D01*
X128482837Y-88315800D01*
X123925496Y-88315800D01*
X123807256Y-88236795D01*
X123618898Y-88158774D01*
X123418939Y-88119000D01*
X123215061Y-88119000D01*
X123015102Y-88158774D01*
X122826744Y-88236795D01*
X122657226Y-88350063D01*
X122513063Y-88494226D01*
X122399795Y-88663744D01*
X122321774Y-88852102D01*
X122282000Y-89052061D01*
X121098232Y-89052061D01*
X125353293Y-84797000D01*
X145641428Y-84797000D01*
X145653688Y-84921482D01*
X145689998Y-85041180D01*
X145748963Y-85151494D01*
X145828315Y-85248185D01*
X145925006Y-85327537D01*
X146035320Y-85386502D01*
X146155018Y-85422812D01*
X146279500Y-85435072D01*
X146843750Y-85432000D01*
X147002500Y-85273250D01*
X147002500Y-84074000D01*
X147256500Y-84074000D01*
X147256500Y-85273250D01*
X147415250Y-85432000D01*
X147979500Y-85435072D01*
X148103982Y-85422812D01*
X148223680Y-85386502D01*
X148333994Y-85327537D01*
X148430685Y-85248185D01*
X148510037Y-85151494D01*
X148569002Y-85041180D01*
X148605312Y-84921482D01*
X148617572Y-84797000D01*
X148614500Y-84232750D01*
X148455750Y-84074000D01*
X147256500Y-84074000D01*
X147002500Y-84074000D01*
X145803250Y-84074000D01*
X145644500Y-84232750D01*
X145641428Y-84797000D01*
X125353293Y-84797000D01*
X126266793Y-83883501D01*
X136179036Y-83883501D01*
X136220199Y-83887555D01*
X136261362Y-83883501D01*
X136261369Y-83883501D01*
X136384515Y-83871372D01*
X136542516Y-83823443D01*
X136688131Y-83745610D01*
X136815763Y-83640865D01*
X136842010Y-83608883D01*
X137403870Y-83047023D01*
X137522902Y-83070700D01*
X137813098Y-83070700D01*
X138097717Y-83014086D01*
X138365822Y-82903033D01*
X138607110Y-82741809D01*
X138812309Y-82536610D01*
X138938000Y-82348501D01*
X139063691Y-82536610D01*
X139268890Y-82741809D01*
X139510178Y-82903033D01*
X139778283Y-83014086D01*
X140062902Y-83070700D01*
X140353098Y-83070700D01*
X140637717Y-83014086D01*
X140905822Y-82903033D01*
X141147110Y-82741809D01*
X141352309Y-82536610D01*
X141513533Y-82295322D01*
X141624586Y-82027217D01*
X141681200Y-81742598D01*
X141681200Y-81452402D01*
X141624586Y-81167783D01*
X141550075Y-80987899D01*
X145525006Y-80987899D01*
X145664822Y-81127715D01*
X145637315Y-81407000D01*
X145665987Y-81698111D01*
X145750901Y-81978034D01*
X145888794Y-82236014D01*
X146074366Y-82462134D01*
X146104187Y-82486607D01*
X146035320Y-82507498D01*
X145925006Y-82566463D01*
X145828315Y-82645815D01*
X145748963Y-82742506D01*
X145689998Y-82852820D01*
X145653688Y-82972518D01*
X145641428Y-83097000D01*
X145644500Y-83661250D01*
X145803250Y-83820000D01*
X147002500Y-83820000D01*
X147002500Y-83800000D01*
X147256500Y-83800000D01*
X147256500Y-83820000D01*
X148455750Y-83820000D01*
X148614500Y-83661250D01*
X148617572Y-83097000D01*
X148605312Y-82972518D01*
X148569002Y-82852820D01*
X148510037Y-82742506D01*
X148430685Y-82645815D01*
X148333994Y-82566463D01*
X148223680Y-82507498D01*
X148154813Y-82486607D01*
X148184634Y-82462134D01*
X148370206Y-82236014D01*
X148508099Y-81978034D01*
X148593013Y-81698111D01*
X148621685Y-81407000D01*
X148593013Y-81115889D01*
X148508099Y-80835966D01*
X148370206Y-80577986D01*
X148184634Y-80351866D01*
X147958514Y-80166294D01*
X147903709Y-80137000D01*
X147958514Y-80107706D01*
X148184634Y-79922134D01*
X148370206Y-79696014D01*
X148508099Y-79438034D01*
X148593013Y-79158111D01*
X148621685Y-78867000D01*
X148593013Y-78575889D01*
X148508099Y-78295966D01*
X148370206Y-78037986D01*
X148184634Y-77811866D01*
X147958514Y-77626294D01*
X147903709Y-77597000D01*
X147958514Y-77567706D01*
X148184634Y-77382134D01*
X148370206Y-77156014D01*
X148508099Y-76898034D01*
X148593013Y-76618111D01*
X148621685Y-76327000D01*
X148593013Y-76035889D01*
X148508099Y-75755966D01*
X148370206Y-75497986D01*
X148184634Y-75271866D01*
X147958514Y-75086294D01*
X147903709Y-75057000D01*
X147958514Y-75027706D01*
X148184634Y-74842134D01*
X148370206Y-74616014D01*
X148508099Y-74358034D01*
X148593013Y-74078111D01*
X148621685Y-73787000D01*
X148593013Y-73495889D01*
X148508099Y-73215966D01*
X148370206Y-72957986D01*
X148184634Y-72731866D01*
X147958514Y-72546294D01*
X147700534Y-72408401D01*
X147420611Y-72323487D01*
X147202450Y-72302000D01*
X147056550Y-72302000D01*
X146838389Y-72323487D01*
X146558466Y-72408401D01*
X146300486Y-72546294D01*
X146074366Y-72731866D01*
X145888794Y-72957986D01*
X145750901Y-73215966D01*
X145665987Y-73495889D01*
X145649650Y-73661757D01*
X143763510Y-71775617D01*
X143737263Y-71743635D01*
X143609631Y-71638890D01*
X143464016Y-71561057D01*
X143306015Y-71513128D01*
X143182869Y-71500999D01*
X143182862Y-71500999D01*
X143141699Y-71496945D01*
X143100536Y-71500999D01*
X115979464Y-71500999D01*
X115938301Y-71496945D01*
X115897138Y-71500999D01*
X115897131Y-71500999D01*
X115773985Y-71513128D01*
X115615984Y-71561057D01*
X115470369Y-71638890D01*
X115342737Y-71743635D01*
X115316495Y-71775612D01*
X114754630Y-72337477D01*
X114635598Y-72313800D01*
X114345402Y-72313800D01*
X114060783Y-72370414D01*
X113792678Y-72481467D01*
X113551390Y-72642691D01*
X113346191Y-72847890D01*
X113220500Y-73035999D01*
X113094809Y-72847890D01*
X112889610Y-72642691D01*
X112648322Y-72481467D01*
X112380217Y-72370414D01*
X112095598Y-72313800D01*
X111805402Y-72313800D01*
X111520783Y-72370414D01*
X111252678Y-72481467D01*
X111011390Y-72642691D01*
X110806191Y-72847890D01*
X110680500Y-73035999D01*
X110554809Y-72847890D01*
X110349610Y-72642691D01*
X110108322Y-72481467D01*
X109840217Y-72370414D01*
X109555598Y-72313800D01*
X109265402Y-72313800D01*
X108980783Y-72370414D01*
X108712678Y-72481467D01*
X108471390Y-72642691D01*
X108266191Y-72847890D01*
X108140500Y-73035999D01*
X108014809Y-72847890D01*
X107809610Y-72642691D01*
X107568322Y-72481467D01*
X107300217Y-72370414D01*
X107015598Y-72313800D01*
X106725402Y-72313800D01*
X106440783Y-72370414D01*
X106172678Y-72481467D01*
X105931390Y-72642691D01*
X105726191Y-72847890D01*
X105600500Y-73035999D01*
X105474809Y-72847890D01*
X105269610Y-72642691D01*
X105028322Y-72481467D01*
X104760217Y-72370414D01*
X104475598Y-72313800D01*
X104185402Y-72313800D01*
X103900783Y-72370414D01*
X103632678Y-72481467D01*
X103391390Y-72642691D01*
X103186191Y-72847890D01*
X103063211Y-73031943D01*
X103058344Y-73022838D01*
X102810475Y-72946630D01*
X101970105Y-73787000D01*
X102810475Y-74627370D01*
X103058344Y-74551162D01*
X103062899Y-74541592D01*
X103186191Y-74726110D01*
X103391390Y-74931309D01*
X103632678Y-75092533D01*
X103900783Y-75203586D01*
X104185402Y-75260200D01*
X104475598Y-75260200D01*
X104760217Y-75203586D01*
X105028322Y-75092533D01*
X105269610Y-74931309D01*
X105474809Y-74726110D01*
X105600500Y-74538001D01*
X105726191Y-74726110D01*
X105931390Y-74931309D01*
X106172678Y-75092533D01*
X106440783Y-75203586D01*
X106725402Y-75260200D01*
X107015598Y-75260200D01*
X107300217Y-75203586D01*
X107568322Y-75092533D01*
X107809610Y-74931309D01*
X108014809Y-74726110D01*
X108140500Y-74538001D01*
X108266191Y-74726110D01*
X108471390Y-74931309D01*
X108712678Y-75092533D01*
X108980783Y-75203586D01*
X109265402Y-75260200D01*
X109555598Y-75260200D01*
X109840217Y-75203586D01*
X110108322Y-75092533D01*
X110349610Y-74931309D01*
X110554809Y-74726110D01*
X110680500Y-74538001D01*
X110806191Y-74726110D01*
X111011390Y-74931309D01*
X111252678Y-75092533D01*
X111520783Y-75203586D01*
X111805402Y-75260200D01*
X112095598Y-75260200D01*
X112380217Y-75203586D01*
X112648322Y-75092533D01*
X112889610Y-74931309D01*
X113094809Y-74726110D01*
X113220500Y-74538001D01*
X113346191Y-74726110D01*
X113551390Y-74931309D01*
X113792678Y-75092533D01*
X114060783Y-75203586D01*
X114345402Y-75260200D01*
X114635598Y-75260200D01*
X114920217Y-75203586D01*
X115188322Y-75092533D01*
X115429610Y-74931309D01*
X115576903Y-74784016D01*
X115602798Y-74869380D01*
X115661763Y-74979694D01*
X115741115Y-75076385D01*
X115837806Y-75155737D01*
X115948120Y-75214702D01*
X116067818Y-75251012D01*
X116192300Y-75263272D01*
X117868700Y-75263272D01*
X117993182Y-75251012D01*
X118112880Y-75214702D01*
X118223194Y-75155737D01*
X118319885Y-75076385D01*
X118384644Y-74997475D01*
X124127630Y-74997475D01*
X124203838Y-75245344D01*
X124465865Y-75370063D01*
X124747189Y-75441268D01*
X125036999Y-75456219D01*
X125324157Y-75414345D01*
X125597628Y-75317254D01*
X125732162Y-75245344D01*
X125808370Y-74997475D01*
X124968000Y-74157105D01*
X124127630Y-74997475D01*
X118384644Y-74997475D01*
X118399237Y-74979694D01*
X118458202Y-74869380D01*
X118494512Y-74749682D01*
X118506772Y-74625200D01*
X118506772Y-73177399D01*
X123817049Y-73177399D01*
X123700156Y-73213338D01*
X123575437Y-73475365D01*
X123504232Y-73756689D01*
X123489281Y-74046499D01*
X123531155Y-74333657D01*
X123628246Y-74607128D01*
X123700156Y-74741662D01*
X123948025Y-74817870D01*
X124788395Y-73977500D01*
X124774253Y-73963358D01*
X124953858Y-73783753D01*
X124968000Y-73797895D01*
X124982143Y-73783753D01*
X125161748Y-73963358D01*
X125147605Y-73977500D01*
X125987975Y-74817870D01*
X126235844Y-74741662D01*
X126240399Y-74732092D01*
X126363691Y-74916610D01*
X126568890Y-75121809D01*
X126810178Y-75283033D01*
X127078283Y-75394086D01*
X127362902Y-75450700D01*
X127653098Y-75450700D01*
X127937717Y-75394086D01*
X128205822Y-75283033D01*
X128447110Y-75121809D01*
X128652309Y-74916610D01*
X128778000Y-74728501D01*
X128903691Y-74916610D01*
X129108890Y-75121809D01*
X129350178Y-75283033D01*
X129618283Y-75394086D01*
X129902902Y-75450700D01*
X130193098Y-75450700D01*
X130477717Y-75394086D01*
X130745822Y-75283033D01*
X130987110Y-75121809D01*
X131192309Y-74916610D01*
X131318000Y-74728501D01*
X131443691Y-74916610D01*
X131648890Y-75121809D01*
X131890178Y-75283033D01*
X132158283Y-75394086D01*
X132442902Y-75450700D01*
X132733098Y-75450700D01*
X133017717Y-75394086D01*
X133285822Y-75283033D01*
X133527110Y-75121809D01*
X133732309Y-74916610D01*
X133858000Y-74728501D01*
X133983691Y-74916610D01*
X134188890Y-75121809D01*
X134430178Y-75283033D01*
X134698283Y-75394086D01*
X134982902Y-75450700D01*
X135273098Y-75450700D01*
X135557717Y-75394086D01*
X135825822Y-75283033D01*
X136067110Y-75121809D01*
X136272309Y-74916610D01*
X136398000Y-74728501D01*
X136523691Y-74916610D01*
X136728890Y-75121809D01*
X136970178Y-75283033D01*
X137238283Y-75394086D01*
X137522902Y-75450700D01*
X137813098Y-75450700D01*
X138097717Y-75394086D01*
X138365822Y-75283033D01*
X138607110Y-75121809D01*
X138754403Y-74974516D01*
X138780298Y-75059880D01*
X138839263Y-75170194D01*
X138918615Y-75266885D01*
X139015306Y-75346237D01*
X139125620Y-75405202D01*
X139245318Y-75441512D01*
X139369800Y-75453772D01*
X141046200Y-75453772D01*
X141170682Y-75441512D01*
X141290380Y-75405202D01*
X141400694Y-75346237D01*
X141497385Y-75266885D01*
X141576737Y-75170194D01*
X141635702Y-75059880D01*
X141672012Y-74940182D01*
X141684272Y-74815700D01*
X141684272Y-73177399D01*
X142794506Y-73177399D01*
X145664822Y-76047716D01*
X145637315Y-76327000D01*
X145665987Y-76618111D01*
X145750901Y-76898034D01*
X145888794Y-77156014D01*
X146074366Y-77382134D01*
X146300486Y-77567706D01*
X146355291Y-77597000D01*
X146300486Y-77626294D01*
X146074366Y-77811866D01*
X145896333Y-78028800D01*
X109451659Y-78028800D01*
X109410499Y-78024746D01*
X109369339Y-78028800D01*
X109369330Y-78028800D01*
X109246184Y-78040929D01*
X109088183Y-78088858D01*
X108942568Y-78166691D01*
X108814936Y-78271436D01*
X108788694Y-78303412D01*
X107134630Y-79957477D01*
X107015598Y-79933800D01*
X106725402Y-79933800D01*
X106440783Y-79990414D01*
X106172678Y-80101467D01*
X105931390Y-80262691D01*
X105726191Y-80467890D01*
X105600500Y-80655999D01*
X105474809Y-80467890D01*
X105269610Y-80262691D01*
X105028322Y-80101467D01*
X104760217Y-79990414D01*
X104475598Y-79933800D01*
X104185402Y-79933800D01*
X103900783Y-79990414D01*
X103632678Y-80101467D01*
X103391390Y-80262691D01*
X103186191Y-80467890D01*
X103060500Y-80655999D01*
X102934809Y-80467890D01*
X102729610Y-80262691D01*
X102488322Y-80101467D01*
X102220217Y-79990414D01*
X101935598Y-79933800D01*
X101645402Y-79933800D01*
X101360783Y-79990414D01*
X101092678Y-80101467D01*
X100851390Y-80262691D01*
X100646191Y-80467890D01*
X100484967Y-80709178D01*
X100373914Y-80977283D01*
X100317300Y-81261902D01*
X100317300Y-81552098D01*
X100373914Y-81836717D01*
X100484967Y-82104822D01*
X100646191Y-82346110D01*
X100851390Y-82551309D01*
X101092678Y-82712533D01*
X101360783Y-82823586D01*
X101645402Y-82880200D01*
X101935598Y-82880200D01*
X102054629Y-82856523D01*
X102065113Y-82867007D01*
X102065118Y-82867011D01*
X102616494Y-83418388D01*
X102642737Y-83450365D01*
X102674713Y-83476607D01*
X102674715Y-83476609D01*
X102719342Y-83513233D01*
X102770369Y-83555110D01*
X102915984Y-83632943D01*
X103073985Y-83680872D01*
X103197131Y-83693001D01*
X103197140Y-83693001D01*
X103238300Y-83697055D01*
X103279460Y-83693001D01*
X110461536Y-83693001D01*
X110502699Y-83697055D01*
X110543862Y-83693001D01*
X110543869Y-83693001D01*
X110667015Y-83680872D01*
X110825016Y-83632943D01*
X110970631Y-83555110D01*
X111098263Y-83450365D01*
X111124510Y-83418383D01*
X111686370Y-82856523D01*
X111805402Y-82880200D01*
X112095598Y-82880200D01*
X112380217Y-82823586D01*
X112648322Y-82712533D01*
X112889610Y-82551309D01*
X113094809Y-82346110D01*
X113220500Y-82158001D01*
X113346191Y-82346110D01*
X113551390Y-82551309D01*
X113792678Y-82712533D01*
X114060783Y-82823586D01*
X114345402Y-82880200D01*
X114635598Y-82880200D01*
X114920217Y-82823586D01*
X115188322Y-82712533D01*
X115429610Y-82551309D01*
X115634809Y-82346110D01*
X115760500Y-82158001D01*
X115886191Y-82346110D01*
X116091390Y-82551309D01*
X116332678Y-82712533D01*
X116600783Y-82823586D01*
X116885402Y-82880200D01*
X117175598Y-82880200D01*
X117460217Y-82823586D01*
X117728322Y-82712533D01*
X117969610Y-82551309D01*
X118174809Y-82346110D01*
X118336033Y-82104822D01*
X118447086Y-81836717D01*
X118503700Y-81552098D01*
X118503700Y-81261902D01*
X118447086Y-80977283D01*
X118336033Y-80709178D01*
X118174809Y-80467890D01*
X117969610Y-80262691D01*
X117728322Y-80101467D01*
X117460217Y-79990414D01*
X117175598Y-79933800D01*
X116885402Y-79933800D01*
X116600783Y-79990414D01*
X116332678Y-80101467D01*
X116091390Y-80262691D01*
X115886191Y-80467890D01*
X115760500Y-80655999D01*
X115634809Y-80467890D01*
X115429610Y-80262691D01*
X115188322Y-80101467D01*
X114920217Y-79990414D01*
X114635598Y-79933800D01*
X114345402Y-79933800D01*
X114060783Y-79990414D01*
X113792678Y-80101467D01*
X113551390Y-80262691D01*
X113346191Y-80467890D01*
X113220500Y-80655999D01*
X113094809Y-80467890D01*
X112889610Y-80262691D01*
X112648322Y-80101467D01*
X112380217Y-79990414D01*
X112095598Y-79933800D01*
X111805402Y-79933800D01*
X111520783Y-79990414D01*
X111252678Y-80101467D01*
X111011390Y-80262691D01*
X110806191Y-80467890D01*
X110680500Y-80655999D01*
X110554809Y-80467890D01*
X110349610Y-80262691D01*
X110108322Y-80101467D01*
X109840217Y-79990414D01*
X109555598Y-79933800D01*
X109529094Y-79933800D01*
X109757694Y-79705200D01*
X128612160Y-79705200D01*
X128078240Y-80239121D01*
X127937717Y-80180914D01*
X127653098Y-80124300D01*
X127362902Y-80124300D01*
X127078283Y-80180914D01*
X126810178Y-80291967D01*
X126568890Y-80453191D01*
X126363691Y-80658390D01*
X126238000Y-80846499D01*
X126112309Y-80658390D01*
X125907110Y-80453191D01*
X125665822Y-80291967D01*
X125397717Y-80180914D01*
X125113098Y-80124300D01*
X124822902Y-80124300D01*
X124538283Y-80180914D01*
X124270178Y-80291967D01*
X124028890Y-80453191D01*
X123823691Y-80658390D01*
X123756265Y-80759300D01*
X121072163Y-80759300D01*
X121031000Y-80755246D01*
X120989837Y-80759300D01*
X120989830Y-80759300D01*
X120866684Y-80771429D01*
X120708683Y-80819358D01*
X120563068Y-80897191D01*
X120512040Y-80939069D01*
X120435436Y-81001936D01*
X120409194Y-81033912D01*
X110705785Y-90737322D01*
X110499450Y-90717000D01*
X110353550Y-90717000D01*
X110135389Y-90738487D01*
X109855466Y-90823401D01*
X109597486Y-90961294D01*
X109371366Y-91146866D01*
X109185794Y-91372986D01*
X109156500Y-91427791D01*
X109127206Y-91372986D01*
X108941634Y-91146866D01*
X108715514Y-90961294D01*
X108457534Y-90823401D01*
X108177611Y-90738487D01*
X107959450Y-90717000D01*
X107813550Y-90717000D01*
X107595389Y-90738487D01*
X107315466Y-90823401D01*
X107057486Y-90961294D01*
X106831366Y-91146866D01*
X106645794Y-91372986D01*
X106616500Y-91427791D01*
X106587206Y-91372986D01*
X106401634Y-91146866D01*
X106175514Y-90961294D01*
X105917534Y-90823401D01*
X105637611Y-90738487D01*
X105419450Y-90717000D01*
X105273550Y-90717000D01*
X105067216Y-90737322D01*
X98482201Y-84152308D01*
X98482201Y-78599267D01*
X98534256Y-78577705D01*
X98703774Y-78464437D01*
X98847937Y-78320274D01*
X98961205Y-78150756D01*
X99039226Y-77962398D01*
X99079000Y-77762439D01*
X99079000Y-77558561D01*
X99039226Y-77358602D01*
X98985418Y-77228700D01*
X120867004Y-77228700D01*
X120985244Y-77307705D01*
X121173602Y-77385726D01*
X121373561Y-77425500D01*
X121577439Y-77425500D01*
X121777398Y-77385726D01*
X121965756Y-77307705D01*
X122135274Y-77194437D01*
X122279437Y-77050274D01*
X122392705Y-76880756D01*
X122470726Y-76692398D01*
X122510500Y-76492439D01*
X122510500Y-76288561D01*
X122470726Y-76088602D01*
X122392705Y-75900244D01*
X122279437Y-75730726D01*
X122135274Y-75586563D01*
X121965756Y-75473295D01*
X121777398Y-75395274D01*
X121577439Y-75355500D01*
X121373561Y-75355500D01*
X121173602Y-75395274D01*
X120985244Y-75473295D01*
X120867004Y-75552300D01*
X95164163Y-75552300D01*
X95123000Y-75548246D01*
X95081837Y-75552300D01*
X95081830Y-75552300D01*
X94958684Y-75564429D01*
X94800683Y-75612358D01*
X94655068Y-75690191D01*
X94565846Y-75763414D01*
X94527436Y-75794936D01*
X94501194Y-75826912D01*
X94253350Y-76074757D01*
X94237013Y-75908889D01*
X94152099Y-75628966D01*
X94014206Y-75370986D01*
X93828634Y-75144866D01*
X93602514Y-74959294D01*
X93547709Y-74930000D01*
X93602514Y-74900706D01*
X93716725Y-74806975D01*
X100950130Y-74806975D01*
X101026338Y-75054844D01*
X101288365Y-75179563D01*
X101569689Y-75250768D01*
X101859499Y-75265719D01*
X102146657Y-75223845D01*
X102420128Y-75126754D01*
X102554662Y-75054844D01*
X102630870Y-74806975D01*
X101790500Y-73966605D01*
X100950130Y-74806975D01*
X93716725Y-74806975D01*
X93828634Y-74715134D01*
X94014206Y-74489014D01*
X94152099Y-74231034D01*
X94237013Y-73951111D01*
X94246380Y-73855999D01*
X100311781Y-73855999D01*
X100353655Y-74143157D01*
X100450746Y-74416628D01*
X100522656Y-74551162D01*
X100770525Y-74627370D01*
X101610895Y-73787000D01*
X100770525Y-72946630D01*
X100522656Y-73022838D01*
X100397937Y-73284865D01*
X100326732Y-73566189D01*
X100311781Y-73855999D01*
X94246380Y-73855999D01*
X94265685Y-73660000D01*
X94237013Y-73368889D01*
X94152099Y-73088966D01*
X94014206Y-72830986D01*
X93961715Y-72767025D01*
X100950130Y-72767025D01*
X101790500Y-73607395D01*
X102630870Y-72767025D01*
X102554662Y-72519156D01*
X102292635Y-72394437D01*
X102011311Y-72323232D01*
X101721501Y-72308281D01*
X101434343Y-72350155D01*
X101160872Y-72447246D01*
X101026338Y-72519156D01*
X100950130Y-72767025D01*
X93961715Y-72767025D01*
X93828634Y-72604866D01*
X93602514Y-72419294D01*
X93344534Y-72281401D01*
X93064611Y-72196487D01*
X92846450Y-72175000D01*
X92700550Y-72175000D01*
X92482389Y-72196487D01*
X92202466Y-72281401D01*
X91944486Y-72419294D01*
X91718366Y-72604866D01*
X91532794Y-72830986D01*
X91394901Y-73088966D01*
X91309987Y-73368889D01*
X91281315Y-73660000D01*
X87045000Y-73660000D01*
X87045000Y-64491890D01*
X139973024Y-64491890D01*
X140017675Y-64639099D01*
X140142859Y-64901920D01*
X140316912Y-65135269D01*
X140533145Y-65330178D01*
X140783248Y-65479157D01*
X141057609Y-65576481D01*
X141287500Y-65455814D01*
X141287500Y-64262000D01*
X141541500Y-64262000D01*
X141541500Y-65455814D01*
X141771391Y-65576481D01*
X142045752Y-65479157D01*
X142295855Y-65330178D01*
X142512088Y-65135269D01*
X142686141Y-64901920D01*
X142811325Y-64639099D01*
X142855976Y-64491890D01*
X142734655Y-64262000D01*
X141541500Y-64262000D01*
X141287500Y-64262000D01*
X140094345Y-64262000D01*
X139973024Y-64491890D01*
X87045000Y-64491890D01*
X87045000Y-60745000D01*
X139926428Y-60745000D01*
X139926428Y-62445000D01*
X139938688Y-62569482D01*
X139974998Y-62689180D01*
X140033963Y-62799494D01*
X140113315Y-62896185D01*
X140210006Y-62975537D01*
X140320320Y-63034502D01*
X140400966Y-63058966D01*
X140316912Y-63134731D01*
X140142859Y-63368080D01*
X140017675Y-63630901D01*
X139973024Y-63778110D01*
X140094345Y-64008000D01*
X141287500Y-64008000D01*
X141287500Y-63988000D01*
X141541500Y-63988000D01*
X141541500Y-64008000D01*
X142734655Y-64008000D01*
X142855976Y-63778110D01*
X142811325Y-63630901D01*
X142686141Y-63368080D01*
X142512088Y-63134731D01*
X142428034Y-63058966D01*
X142508680Y-63034502D01*
X142618994Y-62975537D01*
X142715685Y-62896185D01*
X142795037Y-62799494D01*
X142854002Y-62689180D01*
X142890312Y-62569482D01*
X142902572Y-62445000D01*
X142902572Y-60745000D01*
X142890312Y-60620518D01*
X142854002Y-60500820D01*
X142795037Y-60390506D01*
X142715685Y-60293815D01*
X142618994Y-60214463D01*
X142508680Y-60155498D01*
X142388982Y-60119188D01*
X142264500Y-60106928D01*
X140564500Y-60106928D01*
X140440018Y-60119188D01*
X140320320Y-60155498D01*
X140210006Y-60214463D01*
X140113315Y-60293815D01*
X140033963Y-60390506D01*
X139974998Y-60500820D01*
X139938688Y-60620518D01*
X139926428Y-60745000D01*
X87045000Y-60745000D01*
X87045000Y-54025000D01*
X151715000Y-54025000D01*
X151715001Y-108535000D01*
M02*
