G04 #@! TF.GenerationSoftware,KiCad,Pcbnew,(5.1.0)-1*
G04 #@! TF.CreationDate,2019-05-27T15:49:11-07:00*
G04 #@! TF.ProjectId,CC_Interconnect,43435f49-6e74-4657-9263-6f6e6e656374,rev?*
G04 #@! TF.SameCoordinates,Original*
G04 #@! TF.FileFunction,Copper,L1,Top*
G04 #@! TF.FilePolarity,Positive*
%FSLAX46Y46*%
G04 Gerber Fmt 4.6, Leading zero omitted, Abs format (unit mm)*
G04 Created by KiCad (PCBNEW (5.1.0)-1) date 2019-05-27 15:49:11*
%MOMM*%
%LPD*%
G04 APERTURE LIST*
%ADD10R,1.676400X1.676400*%
%ADD11C,1.676400*%
%ADD12R,1.700000X1.700000*%
%ADD13O,1.700000X1.700000*%
%ADD14C,0.100000*%
%ADD15C,1.150000*%
%ADD16C,0.901600*%
%ADD17C,0.635000*%
%ADD18C,0.406400*%
%ADD19C,0.254000*%
G04 APERTURE END LIST*
D10*
X121920000Y-26670000D03*
D11*
X121920000Y-29210000D03*
X121920000Y-31750000D03*
X121920000Y-34290000D03*
X121920000Y-36830000D03*
X121920000Y-39370000D03*
X121920000Y-41910000D03*
X129540000Y-41910000D03*
X129540000Y-39370000D03*
X129540000Y-36830000D03*
X129540000Y-34290000D03*
X129540000Y-31750000D03*
X129540000Y-29210000D03*
X129540000Y-26670000D03*
D12*
X110490000Y-16510000D03*
D13*
X110490000Y-19050000D03*
D12*
X120650000Y-53340000D03*
D13*
X118110000Y-53340000D03*
X115570000Y-53340000D03*
X113030000Y-53340000D03*
X110490000Y-53340000D03*
X107950000Y-53340000D03*
D12*
X80010000Y-58420000D03*
D13*
X80010000Y-60960000D03*
X80010000Y-63500000D03*
X80010000Y-66040000D03*
X80010000Y-68580000D03*
X80010000Y-71120000D03*
X80010000Y-73660000D03*
X80010000Y-76200000D03*
X140970000Y-26670000D03*
X143510000Y-26670000D03*
X146050000Y-26670000D03*
X148590000Y-26670000D03*
X151130000Y-26670000D03*
X153670000Y-26670000D03*
X156210000Y-26670000D03*
D12*
X158750000Y-26670000D03*
X143510000Y-74930000D03*
D13*
X143510000Y-72390000D03*
X143510000Y-69850000D03*
X143510000Y-67310000D03*
X143510000Y-64770000D03*
X143510000Y-62230000D03*
X143510000Y-59690000D03*
X143510000Y-57150000D03*
D14*
G36*
X116044505Y-57846204D02*
G01*
X116068773Y-57849804D01*
X116092572Y-57855765D01*
X116115671Y-57864030D01*
X116137850Y-57874520D01*
X116158893Y-57887132D01*
X116178599Y-57901747D01*
X116196777Y-57918223D01*
X116213253Y-57936401D01*
X116227868Y-57956107D01*
X116240480Y-57977150D01*
X116250970Y-57999329D01*
X116259235Y-58022428D01*
X116265196Y-58046227D01*
X116268796Y-58070495D01*
X116270000Y-58094999D01*
X116270000Y-58745001D01*
X116268796Y-58769505D01*
X116265196Y-58793773D01*
X116259235Y-58817572D01*
X116250970Y-58840671D01*
X116240480Y-58862850D01*
X116227868Y-58883893D01*
X116213253Y-58903599D01*
X116196777Y-58921777D01*
X116178599Y-58938253D01*
X116158893Y-58952868D01*
X116137850Y-58965480D01*
X116115671Y-58975970D01*
X116092572Y-58984235D01*
X116068773Y-58990196D01*
X116044505Y-58993796D01*
X116020001Y-58995000D01*
X115119999Y-58995000D01*
X115095495Y-58993796D01*
X115071227Y-58990196D01*
X115047428Y-58984235D01*
X115024329Y-58975970D01*
X115002150Y-58965480D01*
X114981107Y-58952868D01*
X114961401Y-58938253D01*
X114943223Y-58921777D01*
X114926747Y-58903599D01*
X114912132Y-58883893D01*
X114899520Y-58862850D01*
X114889030Y-58840671D01*
X114880765Y-58817572D01*
X114874804Y-58793773D01*
X114871204Y-58769505D01*
X114870000Y-58745001D01*
X114870000Y-58094999D01*
X114871204Y-58070495D01*
X114874804Y-58046227D01*
X114880765Y-58022428D01*
X114889030Y-57999329D01*
X114899520Y-57977150D01*
X114912132Y-57956107D01*
X114926747Y-57936401D01*
X114943223Y-57918223D01*
X114961401Y-57901747D01*
X114981107Y-57887132D01*
X115002150Y-57874520D01*
X115024329Y-57864030D01*
X115047428Y-57855765D01*
X115071227Y-57849804D01*
X115095495Y-57846204D01*
X115119999Y-57845000D01*
X116020001Y-57845000D01*
X116044505Y-57846204D01*
X116044505Y-57846204D01*
G37*
D15*
X115570000Y-58420000D03*
D14*
G36*
X116044505Y-59896204D02*
G01*
X116068773Y-59899804D01*
X116092572Y-59905765D01*
X116115671Y-59914030D01*
X116137850Y-59924520D01*
X116158893Y-59937132D01*
X116178599Y-59951747D01*
X116196777Y-59968223D01*
X116213253Y-59986401D01*
X116227868Y-60006107D01*
X116240480Y-60027150D01*
X116250970Y-60049329D01*
X116259235Y-60072428D01*
X116265196Y-60096227D01*
X116268796Y-60120495D01*
X116270000Y-60144999D01*
X116270000Y-60795001D01*
X116268796Y-60819505D01*
X116265196Y-60843773D01*
X116259235Y-60867572D01*
X116250970Y-60890671D01*
X116240480Y-60912850D01*
X116227868Y-60933893D01*
X116213253Y-60953599D01*
X116196777Y-60971777D01*
X116178599Y-60988253D01*
X116158893Y-61002868D01*
X116137850Y-61015480D01*
X116115671Y-61025970D01*
X116092572Y-61034235D01*
X116068773Y-61040196D01*
X116044505Y-61043796D01*
X116020001Y-61045000D01*
X115119999Y-61045000D01*
X115095495Y-61043796D01*
X115071227Y-61040196D01*
X115047428Y-61034235D01*
X115024329Y-61025970D01*
X115002150Y-61015480D01*
X114981107Y-61002868D01*
X114961401Y-60988253D01*
X114943223Y-60971777D01*
X114926747Y-60953599D01*
X114912132Y-60933893D01*
X114899520Y-60912850D01*
X114889030Y-60890671D01*
X114880765Y-60867572D01*
X114874804Y-60843773D01*
X114871204Y-60819505D01*
X114870000Y-60795001D01*
X114870000Y-60144999D01*
X114871204Y-60120495D01*
X114874804Y-60096227D01*
X114880765Y-60072428D01*
X114889030Y-60049329D01*
X114899520Y-60027150D01*
X114912132Y-60006107D01*
X114926747Y-59986401D01*
X114943223Y-59968223D01*
X114961401Y-59951747D01*
X114981107Y-59937132D01*
X115002150Y-59924520D01*
X115024329Y-59914030D01*
X115047428Y-59905765D01*
X115071227Y-59899804D01*
X115095495Y-59896204D01*
X115119999Y-59895000D01*
X116020001Y-59895000D01*
X116044505Y-59896204D01*
X116044505Y-59896204D01*
G37*
D15*
X115570000Y-60470000D03*
D14*
G36*
X114894505Y-62801204D02*
G01*
X114918773Y-62804804D01*
X114942572Y-62810765D01*
X114965671Y-62819030D01*
X114987850Y-62829520D01*
X115008893Y-62842132D01*
X115028599Y-62856747D01*
X115046777Y-62873223D01*
X115063253Y-62891401D01*
X115077868Y-62911107D01*
X115090480Y-62932150D01*
X115100970Y-62954329D01*
X115109235Y-62977428D01*
X115115196Y-63001227D01*
X115118796Y-63025495D01*
X115120000Y-63049999D01*
X115120000Y-63950001D01*
X115118796Y-63974505D01*
X115115196Y-63998773D01*
X115109235Y-64022572D01*
X115100970Y-64045671D01*
X115090480Y-64067850D01*
X115077868Y-64088893D01*
X115063253Y-64108599D01*
X115046777Y-64126777D01*
X115028599Y-64143253D01*
X115008893Y-64157868D01*
X114987850Y-64170480D01*
X114965671Y-64180970D01*
X114942572Y-64189235D01*
X114918773Y-64195196D01*
X114894505Y-64198796D01*
X114870001Y-64200000D01*
X114219999Y-64200000D01*
X114195495Y-64198796D01*
X114171227Y-64195196D01*
X114147428Y-64189235D01*
X114124329Y-64180970D01*
X114102150Y-64170480D01*
X114081107Y-64157868D01*
X114061401Y-64143253D01*
X114043223Y-64126777D01*
X114026747Y-64108599D01*
X114012132Y-64088893D01*
X113999520Y-64067850D01*
X113989030Y-64045671D01*
X113980765Y-64022572D01*
X113974804Y-63998773D01*
X113971204Y-63974505D01*
X113970000Y-63950001D01*
X113970000Y-63049999D01*
X113971204Y-63025495D01*
X113974804Y-63001227D01*
X113980765Y-62977428D01*
X113989030Y-62954329D01*
X113999520Y-62932150D01*
X114012132Y-62911107D01*
X114026747Y-62891401D01*
X114043223Y-62873223D01*
X114061401Y-62856747D01*
X114081107Y-62842132D01*
X114102150Y-62829520D01*
X114124329Y-62819030D01*
X114147428Y-62810765D01*
X114171227Y-62804804D01*
X114195495Y-62801204D01*
X114219999Y-62800000D01*
X114870001Y-62800000D01*
X114894505Y-62801204D01*
X114894505Y-62801204D01*
G37*
D15*
X114545000Y-63500000D03*
D14*
G36*
X116944505Y-62801204D02*
G01*
X116968773Y-62804804D01*
X116992572Y-62810765D01*
X117015671Y-62819030D01*
X117037850Y-62829520D01*
X117058893Y-62842132D01*
X117078599Y-62856747D01*
X117096777Y-62873223D01*
X117113253Y-62891401D01*
X117127868Y-62911107D01*
X117140480Y-62932150D01*
X117150970Y-62954329D01*
X117159235Y-62977428D01*
X117165196Y-63001227D01*
X117168796Y-63025495D01*
X117170000Y-63049999D01*
X117170000Y-63950001D01*
X117168796Y-63974505D01*
X117165196Y-63998773D01*
X117159235Y-64022572D01*
X117150970Y-64045671D01*
X117140480Y-64067850D01*
X117127868Y-64088893D01*
X117113253Y-64108599D01*
X117096777Y-64126777D01*
X117078599Y-64143253D01*
X117058893Y-64157868D01*
X117037850Y-64170480D01*
X117015671Y-64180970D01*
X116992572Y-64189235D01*
X116968773Y-64195196D01*
X116944505Y-64198796D01*
X116920001Y-64200000D01*
X116269999Y-64200000D01*
X116245495Y-64198796D01*
X116221227Y-64195196D01*
X116197428Y-64189235D01*
X116174329Y-64180970D01*
X116152150Y-64170480D01*
X116131107Y-64157868D01*
X116111401Y-64143253D01*
X116093223Y-64126777D01*
X116076747Y-64108599D01*
X116062132Y-64088893D01*
X116049520Y-64067850D01*
X116039030Y-64045671D01*
X116030765Y-64022572D01*
X116024804Y-63998773D01*
X116021204Y-63974505D01*
X116020000Y-63950001D01*
X116020000Y-63049999D01*
X116021204Y-63025495D01*
X116024804Y-63001227D01*
X116030765Y-62977428D01*
X116039030Y-62954329D01*
X116049520Y-62932150D01*
X116062132Y-62911107D01*
X116076747Y-62891401D01*
X116093223Y-62873223D01*
X116111401Y-62856747D01*
X116131107Y-62842132D01*
X116152150Y-62829520D01*
X116174329Y-62819030D01*
X116197428Y-62810765D01*
X116221227Y-62804804D01*
X116245495Y-62801204D01*
X116269999Y-62800000D01*
X116920001Y-62800000D01*
X116944505Y-62801204D01*
X116944505Y-62801204D01*
G37*
D15*
X116595000Y-63500000D03*
D10*
X85090000Y-27940000D03*
D11*
X85090000Y-30480000D03*
X85090000Y-33020000D03*
X85090000Y-35560000D03*
X85090000Y-38100000D03*
X85090000Y-40640000D03*
X85090000Y-43180000D03*
X92710000Y-43180000D03*
X92710000Y-40640000D03*
X92710000Y-38100000D03*
X92710000Y-35560000D03*
X92710000Y-33020000D03*
X92710000Y-30480000D03*
X92710000Y-27940000D03*
D16*
X125500000Y-25450000D03*
X98570000Y-26290000D03*
X111760000Y-59690000D03*
X91440000Y-58420000D03*
X138100000Y-54180000D03*
X76220000Y-53350000D03*
X89200000Y-38130000D03*
X86870000Y-61510000D03*
X126220000Y-49940000D03*
X99430000Y-37960000D03*
X104140000Y-33020000D03*
X129740000Y-45360000D03*
X128040000Y-53450000D03*
X99170000Y-46780000D03*
X92080000Y-46710000D03*
D17*
X110490000Y-16510000D02*
X116560000Y-16510000D01*
X116560000Y-16510000D02*
X125500000Y-25450000D01*
X110490000Y-16510000D02*
X108350000Y-16510000D01*
X108350000Y-16510000D02*
X98570000Y-26290000D01*
D18*
X114545000Y-61495000D02*
X115570000Y-60470000D01*
X114545000Y-63500000D02*
X114545000Y-61495000D01*
X115570000Y-60470000D02*
X112540000Y-60470000D01*
X112540000Y-60470000D02*
X111760000Y-59690000D01*
X115570000Y-58420000D02*
X91440000Y-58420000D01*
X116370000Y-58420000D02*
X115570000Y-58420000D01*
X133222473Y-58420000D02*
X116370000Y-58420000D01*
X137462473Y-54180000D02*
X133222473Y-58420000D01*
X138100000Y-54180000D02*
X137462473Y-54180000D01*
X89200000Y-41212746D02*
X89200000Y-38130000D01*
X76220000Y-53350000D02*
X77062746Y-53350000D01*
X77062746Y-53350000D02*
X89200000Y-41212746D01*
X97802473Y-49940000D02*
X126220000Y-49940000D01*
X86870000Y-61510000D02*
X86870000Y-60872473D01*
X86870000Y-60872473D02*
X97802473Y-49940000D01*
X99430000Y-37960000D02*
X104140000Y-33250000D01*
X104140000Y-33250000D02*
X104140000Y-33020000D01*
X129740000Y-45360000D02*
X129740000Y-51750000D01*
X129740000Y-51750000D02*
X128040000Y-53450000D01*
X99170000Y-46780000D02*
X92150000Y-46780000D01*
X92150000Y-46780000D02*
X92080000Y-46710000D01*
D19*
G36*
X165710001Y-81890000D02*
G01*
X69240000Y-81890000D01*
X69240000Y-76556890D01*
X78568524Y-76556890D01*
X78613175Y-76704099D01*
X78738359Y-76966920D01*
X78912412Y-77200269D01*
X79128645Y-77395178D01*
X79378748Y-77544157D01*
X79653109Y-77641481D01*
X79883000Y-77520814D01*
X79883000Y-76327000D01*
X80137000Y-76327000D01*
X80137000Y-77520814D01*
X80366891Y-77641481D01*
X80641252Y-77544157D01*
X80891355Y-77395178D01*
X81107588Y-77200269D01*
X81281641Y-76966920D01*
X81406825Y-76704099D01*
X81451476Y-76556890D01*
X81330155Y-76327000D01*
X80137000Y-76327000D01*
X79883000Y-76327000D01*
X78689845Y-76327000D01*
X78568524Y-76556890D01*
X69240000Y-76556890D01*
X69240000Y-60960000D01*
X78517815Y-60960000D01*
X78546487Y-61251111D01*
X78631401Y-61531034D01*
X78769294Y-61789014D01*
X78954866Y-62015134D01*
X79180986Y-62200706D01*
X79235791Y-62230000D01*
X79180986Y-62259294D01*
X78954866Y-62444866D01*
X78769294Y-62670986D01*
X78631401Y-62928966D01*
X78546487Y-63208889D01*
X78517815Y-63500000D01*
X78546487Y-63791111D01*
X78631401Y-64071034D01*
X78769294Y-64329014D01*
X78954866Y-64555134D01*
X79180986Y-64740706D01*
X79235791Y-64770000D01*
X79180986Y-64799294D01*
X78954866Y-64984866D01*
X78769294Y-65210986D01*
X78631401Y-65468966D01*
X78546487Y-65748889D01*
X78517815Y-66040000D01*
X78546487Y-66331111D01*
X78631401Y-66611034D01*
X78769294Y-66869014D01*
X78954866Y-67095134D01*
X79180986Y-67280706D01*
X79235791Y-67310000D01*
X79180986Y-67339294D01*
X78954866Y-67524866D01*
X78769294Y-67750986D01*
X78631401Y-68008966D01*
X78546487Y-68288889D01*
X78517815Y-68580000D01*
X78546487Y-68871111D01*
X78631401Y-69151034D01*
X78769294Y-69409014D01*
X78954866Y-69635134D01*
X79180986Y-69820706D01*
X79235791Y-69850000D01*
X79180986Y-69879294D01*
X78954866Y-70064866D01*
X78769294Y-70290986D01*
X78631401Y-70548966D01*
X78546487Y-70828889D01*
X78517815Y-71120000D01*
X78546487Y-71411111D01*
X78631401Y-71691034D01*
X78769294Y-71949014D01*
X78954866Y-72175134D01*
X79180986Y-72360706D01*
X79235791Y-72390000D01*
X79180986Y-72419294D01*
X78954866Y-72604866D01*
X78769294Y-72830986D01*
X78631401Y-73088966D01*
X78546487Y-73368889D01*
X78517815Y-73660000D01*
X78546487Y-73951111D01*
X78631401Y-74231034D01*
X78769294Y-74489014D01*
X78954866Y-74715134D01*
X79180986Y-74900706D01*
X79245523Y-74935201D01*
X79128645Y-75004822D01*
X78912412Y-75199731D01*
X78738359Y-75433080D01*
X78613175Y-75695901D01*
X78568524Y-75843110D01*
X78689845Y-76073000D01*
X79883000Y-76073000D01*
X79883000Y-76053000D01*
X80137000Y-76053000D01*
X80137000Y-76073000D01*
X81330155Y-76073000D01*
X81451476Y-75843110D01*
X81406825Y-75695901D01*
X81281641Y-75433080D01*
X81107588Y-75199731D01*
X80891355Y-75004822D01*
X80774477Y-74935201D01*
X80839014Y-74900706D01*
X81065134Y-74715134D01*
X81250706Y-74489014D01*
X81388599Y-74231034D01*
X81473513Y-73951111D01*
X81502185Y-73660000D01*
X81473513Y-73368889D01*
X81388599Y-73088966D01*
X81250706Y-72830986D01*
X81065134Y-72604866D01*
X80839014Y-72419294D01*
X80784209Y-72390000D01*
X80839014Y-72360706D01*
X81065134Y-72175134D01*
X81250706Y-71949014D01*
X81388599Y-71691034D01*
X81473513Y-71411111D01*
X81502185Y-71120000D01*
X81473513Y-70828889D01*
X81388599Y-70548966D01*
X81250706Y-70290986D01*
X81065134Y-70064866D01*
X80839014Y-69879294D01*
X80784209Y-69850000D01*
X80839014Y-69820706D01*
X81065134Y-69635134D01*
X81250706Y-69409014D01*
X81388599Y-69151034D01*
X81473513Y-68871111D01*
X81502185Y-68580000D01*
X81473513Y-68288889D01*
X81388599Y-68008966D01*
X81250706Y-67750986D01*
X81065134Y-67524866D01*
X80839014Y-67339294D01*
X80784209Y-67310000D01*
X80839014Y-67280706D01*
X81065134Y-67095134D01*
X81250706Y-66869014D01*
X81388599Y-66611034D01*
X81473513Y-66331111D01*
X81502185Y-66040000D01*
X81473513Y-65748889D01*
X81388599Y-65468966D01*
X81250706Y-65210986D01*
X81065134Y-64984866D01*
X80839014Y-64799294D01*
X80784209Y-64770000D01*
X80839014Y-64740706D01*
X81065134Y-64555134D01*
X81250706Y-64329014D01*
X81388599Y-64071034D01*
X81473513Y-63791111D01*
X81502185Y-63500000D01*
X81473513Y-63208889D01*
X81388599Y-62928966D01*
X81250706Y-62670986D01*
X81065134Y-62444866D01*
X80839014Y-62259294D01*
X80784209Y-62230000D01*
X80839014Y-62200706D01*
X81065134Y-62015134D01*
X81250706Y-61789014D01*
X81388599Y-61531034D01*
X81427420Y-61403058D01*
X85784200Y-61403058D01*
X85784200Y-61616942D01*
X85825926Y-61826716D01*
X85907776Y-62024319D01*
X86026604Y-62202157D01*
X86177843Y-62353396D01*
X86355681Y-62472224D01*
X86553284Y-62554074D01*
X86763058Y-62595800D01*
X86976942Y-62595800D01*
X87186716Y-62554074D01*
X87384319Y-62472224D01*
X87562157Y-62353396D01*
X87713396Y-62202157D01*
X87832224Y-62024319D01*
X87914074Y-61826716D01*
X87955800Y-61616942D01*
X87955800Y-61403058D01*
X87914074Y-61193284D01*
X87861502Y-61066364D01*
X90361952Y-58565914D01*
X90395926Y-58736716D01*
X90477776Y-58934319D01*
X90596604Y-59112157D01*
X90747843Y-59263396D01*
X90925681Y-59382224D01*
X91123284Y-59464074D01*
X91333058Y-59505800D01*
X91546942Y-59505800D01*
X91756716Y-59464074D01*
X91954319Y-59382224D01*
X92132157Y-59263396D01*
X92137353Y-59258200D01*
X110763595Y-59258200D01*
X110715926Y-59373284D01*
X110674200Y-59583058D01*
X110674200Y-59796942D01*
X110715926Y-60006716D01*
X110797776Y-60204319D01*
X110916604Y-60382157D01*
X111067843Y-60533396D01*
X111245681Y-60652224D01*
X111443284Y-60734074D01*
X111653058Y-60775800D01*
X111660406Y-60775800D01*
X111918192Y-61033586D01*
X111944436Y-61065564D01*
X112072068Y-61170309D01*
X112217683Y-61248142D01*
X112375684Y-61296071D01*
X112498830Y-61308200D01*
X112498837Y-61308200D01*
X112540000Y-61312254D01*
X112581163Y-61308200D01*
X113725750Y-61308200D01*
X113718929Y-61330685D01*
X113702746Y-61495000D01*
X113706801Y-61536172D01*
X113706801Y-62327855D01*
X113592038Y-62422038D01*
X113481595Y-62556613D01*
X113399528Y-62710149D01*
X113348992Y-62876745D01*
X113331928Y-63049999D01*
X113331928Y-63950001D01*
X113348992Y-64123255D01*
X113399528Y-64289851D01*
X113481595Y-64443387D01*
X113592038Y-64577962D01*
X113726613Y-64688405D01*
X113880149Y-64770472D01*
X114046745Y-64821008D01*
X114219999Y-64838072D01*
X114870001Y-64838072D01*
X115043255Y-64821008D01*
X115209851Y-64770472D01*
X115363387Y-64688405D01*
X115497962Y-64577962D01*
X115503342Y-64571406D01*
X115568815Y-64651185D01*
X115665506Y-64730537D01*
X115775820Y-64789502D01*
X115895518Y-64825812D01*
X116020000Y-64838072D01*
X116309250Y-64835000D01*
X116468000Y-64676250D01*
X116468000Y-63627000D01*
X116722000Y-63627000D01*
X116722000Y-64676250D01*
X116880750Y-64835000D01*
X117170000Y-64838072D01*
X117294482Y-64825812D01*
X117414180Y-64789502D01*
X117524494Y-64730537D01*
X117621185Y-64651185D01*
X117700537Y-64554494D01*
X117759502Y-64444180D01*
X117795812Y-64324482D01*
X117808072Y-64200000D01*
X117805000Y-63785750D01*
X117646250Y-63627000D01*
X116722000Y-63627000D01*
X116468000Y-63627000D01*
X116448000Y-63627000D01*
X116448000Y-63373000D01*
X116468000Y-63373000D01*
X116468000Y-62323750D01*
X116722000Y-62323750D01*
X116722000Y-63373000D01*
X117646250Y-63373000D01*
X117805000Y-63214250D01*
X117808072Y-62800000D01*
X117795812Y-62675518D01*
X117759502Y-62555820D01*
X117700537Y-62445506D01*
X117621185Y-62348815D01*
X117524494Y-62269463D01*
X117414180Y-62210498D01*
X117294482Y-62174188D01*
X117170000Y-62161928D01*
X116880750Y-62165000D01*
X116722000Y-62323750D01*
X116468000Y-62323750D01*
X116309250Y-62165000D01*
X116020000Y-62161928D01*
X115895518Y-62174188D01*
X115775820Y-62210498D01*
X115665506Y-62269463D01*
X115568815Y-62348815D01*
X115503342Y-62428594D01*
X115497962Y-62422038D01*
X115383200Y-62327855D01*
X115383200Y-61842193D01*
X115542321Y-61683072D01*
X116020001Y-61683072D01*
X116193255Y-61666008D01*
X116359851Y-61615472D01*
X116513387Y-61533405D01*
X116647962Y-61422962D01*
X116758405Y-61288387D01*
X116840472Y-61134851D01*
X116891008Y-60968255D01*
X116908072Y-60795001D01*
X116908072Y-60144999D01*
X116891008Y-59971745D01*
X116840472Y-59805149D01*
X116778924Y-59690000D01*
X142017815Y-59690000D01*
X142046487Y-59981111D01*
X142131401Y-60261034D01*
X142269294Y-60519014D01*
X142454866Y-60745134D01*
X142680986Y-60930706D01*
X142735791Y-60960000D01*
X142680986Y-60989294D01*
X142454866Y-61174866D01*
X142269294Y-61400986D01*
X142131401Y-61658966D01*
X142046487Y-61938889D01*
X142017815Y-62230000D01*
X142046487Y-62521111D01*
X142131401Y-62801034D01*
X142269294Y-63059014D01*
X142454866Y-63285134D01*
X142680986Y-63470706D01*
X142735791Y-63500000D01*
X142680986Y-63529294D01*
X142454866Y-63714866D01*
X142269294Y-63940986D01*
X142131401Y-64198966D01*
X142046487Y-64478889D01*
X142017815Y-64770000D01*
X142046487Y-65061111D01*
X142131401Y-65341034D01*
X142269294Y-65599014D01*
X142454866Y-65825134D01*
X142680986Y-66010706D01*
X142735791Y-66040000D01*
X142680986Y-66069294D01*
X142454866Y-66254866D01*
X142269294Y-66480986D01*
X142131401Y-66738966D01*
X142046487Y-67018889D01*
X142017815Y-67310000D01*
X142046487Y-67601111D01*
X142131401Y-67881034D01*
X142269294Y-68139014D01*
X142454866Y-68365134D01*
X142680986Y-68550706D01*
X142735791Y-68580000D01*
X142680986Y-68609294D01*
X142454866Y-68794866D01*
X142269294Y-69020986D01*
X142131401Y-69278966D01*
X142046487Y-69558889D01*
X142017815Y-69850000D01*
X142046487Y-70141111D01*
X142131401Y-70421034D01*
X142269294Y-70679014D01*
X142454866Y-70905134D01*
X142680986Y-71090706D01*
X142735791Y-71120000D01*
X142680986Y-71149294D01*
X142454866Y-71334866D01*
X142269294Y-71560986D01*
X142131401Y-71818966D01*
X142046487Y-72098889D01*
X142017815Y-72390000D01*
X142046487Y-72681111D01*
X142131401Y-72961034D01*
X142269294Y-73219014D01*
X142454866Y-73445134D01*
X142484687Y-73469607D01*
X142415820Y-73490498D01*
X142305506Y-73549463D01*
X142208815Y-73628815D01*
X142129463Y-73725506D01*
X142070498Y-73835820D01*
X142034188Y-73955518D01*
X142021928Y-74080000D01*
X142021928Y-75780000D01*
X142034188Y-75904482D01*
X142070498Y-76024180D01*
X142129463Y-76134494D01*
X142208815Y-76231185D01*
X142305506Y-76310537D01*
X142415820Y-76369502D01*
X142535518Y-76405812D01*
X142660000Y-76418072D01*
X144360000Y-76418072D01*
X144484482Y-76405812D01*
X144604180Y-76369502D01*
X144714494Y-76310537D01*
X144811185Y-76231185D01*
X144890537Y-76134494D01*
X144949502Y-76024180D01*
X144985812Y-75904482D01*
X144998072Y-75780000D01*
X144998072Y-74080000D01*
X144985812Y-73955518D01*
X144949502Y-73835820D01*
X144890537Y-73725506D01*
X144811185Y-73628815D01*
X144714494Y-73549463D01*
X144604180Y-73490498D01*
X144535313Y-73469607D01*
X144565134Y-73445134D01*
X144750706Y-73219014D01*
X144888599Y-72961034D01*
X144973513Y-72681111D01*
X145002185Y-72390000D01*
X144973513Y-72098889D01*
X144888599Y-71818966D01*
X144750706Y-71560986D01*
X144565134Y-71334866D01*
X144339014Y-71149294D01*
X144284209Y-71120000D01*
X144339014Y-71090706D01*
X144565134Y-70905134D01*
X144750706Y-70679014D01*
X144888599Y-70421034D01*
X144973513Y-70141111D01*
X145002185Y-69850000D01*
X144973513Y-69558889D01*
X144888599Y-69278966D01*
X144750706Y-69020986D01*
X144565134Y-68794866D01*
X144339014Y-68609294D01*
X144284209Y-68580000D01*
X144339014Y-68550706D01*
X144565134Y-68365134D01*
X144750706Y-68139014D01*
X144888599Y-67881034D01*
X144973513Y-67601111D01*
X145002185Y-67310000D01*
X144973513Y-67018889D01*
X144888599Y-66738966D01*
X144750706Y-66480986D01*
X144565134Y-66254866D01*
X144339014Y-66069294D01*
X144284209Y-66040000D01*
X144339014Y-66010706D01*
X144565134Y-65825134D01*
X144750706Y-65599014D01*
X144888599Y-65341034D01*
X144973513Y-65061111D01*
X145002185Y-64770000D01*
X144973513Y-64478889D01*
X144888599Y-64198966D01*
X144750706Y-63940986D01*
X144565134Y-63714866D01*
X144339014Y-63529294D01*
X144284209Y-63500000D01*
X144339014Y-63470706D01*
X144565134Y-63285134D01*
X144750706Y-63059014D01*
X144888599Y-62801034D01*
X144973513Y-62521111D01*
X145002185Y-62230000D01*
X144973513Y-61938889D01*
X144888599Y-61658966D01*
X144750706Y-61400986D01*
X144565134Y-61174866D01*
X144339014Y-60989294D01*
X144284209Y-60960000D01*
X144339014Y-60930706D01*
X144565134Y-60745134D01*
X144750706Y-60519014D01*
X144888599Y-60261034D01*
X144973513Y-59981111D01*
X145002185Y-59690000D01*
X144973513Y-59398889D01*
X144888599Y-59118966D01*
X144750706Y-58860986D01*
X144565134Y-58634866D01*
X144339014Y-58449294D01*
X144274477Y-58414799D01*
X144391355Y-58345178D01*
X144607588Y-58150269D01*
X144781641Y-57916920D01*
X144906825Y-57654099D01*
X144951476Y-57506890D01*
X144830155Y-57277000D01*
X143637000Y-57277000D01*
X143637000Y-57297000D01*
X143383000Y-57297000D01*
X143383000Y-57277000D01*
X142189845Y-57277000D01*
X142068524Y-57506890D01*
X142113175Y-57654099D01*
X142238359Y-57916920D01*
X142412412Y-58150269D01*
X142628645Y-58345178D01*
X142745523Y-58414799D01*
X142680986Y-58449294D01*
X142454866Y-58634866D01*
X142269294Y-58860986D01*
X142131401Y-59118966D01*
X142046487Y-59398889D01*
X142017815Y-59690000D01*
X116778924Y-59690000D01*
X116758405Y-59651613D01*
X116647962Y-59517038D01*
X116560184Y-59445000D01*
X116647962Y-59372962D01*
X116742145Y-59258200D01*
X133181310Y-59258200D01*
X133222473Y-59262254D01*
X133263636Y-59258200D01*
X133263643Y-59258200D01*
X133386789Y-59246071D01*
X133544790Y-59198142D01*
X133690405Y-59120309D01*
X133818037Y-59015564D01*
X133844284Y-58983582D01*
X136034756Y-56793110D01*
X142068524Y-56793110D01*
X142189845Y-57023000D01*
X143383000Y-57023000D01*
X143383000Y-55829186D01*
X143637000Y-55829186D01*
X143637000Y-57023000D01*
X144830155Y-57023000D01*
X144951476Y-56793110D01*
X144906825Y-56645901D01*
X144781641Y-56383080D01*
X144607588Y-56149731D01*
X144391355Y-55954822D01*
X144141252Y-55805843D01*
X143866891Y-55708519D01*
X143637000Y-55829186D01*
X143383000Y-55829186D01*
X143153109Y-55708519D01*
X142878748Y-55805843D01*
X142628645Y-55954822D01*
X142412412Y-56149731D01*
X142238359Y-56383080D01*
X142113175Y-56645901D01*
X142068524Y-56793110D01*
X136034756Y-56793110D01*
X137656364Y-55171502D01*
X137783284Y-55224074D01*
X137993058Y-55265800D01*
X138206942Y-55265800D01*
X138416716Y-55224074D01*
X138614319Y-55142224D01*
X138792157Y-55023396D01*
X138943396Y-54872157D01*
X139062224Y-54694319D01*
X139144074Y-54496716D01*
X139185800Y-54286942D01*
X139185800Y-54073058D01*
X139144074Y-53863284D01*
X139062224Y-53665681D01*
X138943396Y-53487843D01*
X138792157Y-53336604D01*
X138614319Y-53217776D01*
X138416716Y-53135926D01*
X138206942Y-53094200D01*
X137993058Y-53094200D01*
X137783284Y-53135926D01*
X137585681Y-53217776D01*
X137407843Y-53336604D01*
X137400609Y-53343838D01*
X137298157Y-53353929D01*
X137140156Y-53401858D01*
X136994541Y-53479691D01*
X136866909Y-53584436D01*
X136840662Y-53616418D01*
X132875280Y-57581800D01*
X116742145Y-57581800D01*
X116647962Y-57467038D01*
X116513387Y-57356595D01*
X116359851Y-57274528D01*
X116193255Y-57223992D01*
X116020001Y-57206928D01*
X115119999Y-57206928D01*
X114946745Y-57223992D01*
X114780149Y-57274528D01*
X114626613Y-57356595D01*
X114492038Y-57467038D01*
X114397855Y-57581800D01*
X92137353Y-57581800D01*
X92132157Y-57576604D01*
X91954319Y-57457776D01*
X91756716Y-57375926D01*
X91585914Y-57341952D01*
X95587866Y-53340000D01*
X106457815Y-53340000D01*
X106486487Y-53631111D01*
X106571401Y-53911034D01*
X106709294Y-54169014D01*
X106894866Y-54395134D01*
X107120986Y-54580706D01*
X107378966Y-54718599D01*
X107658889Y-54803513D01*
X107877050Y-54825000D01*
X108022950Y-54825000D01*
X108241111Y-54803513D01*
X108521034Y-54718599D01*
X108779014Y-54580706D01*
X109005134Y-54395134D01*
X109190706Y-54169014D01*
X109220000Y-54114209D01*
X109249294Y-54169014D01*
X109434866Y-54395134D01*
X109660986Y-54580706D01*
X109918966Y-54718599D01*
X110198889Y-54803513D01*
X110417050Y-54825000D01*
X110562950Y-54825000D01*
X110781111Y-54803513D01*
X111061034Y-54718599D01*
X111319014Y-54580706D01*
X111545134Y-54395134D01*
X111730706Y-54169014D01*
X111760000Y-54114209D01*
X111789294Y-54169014D01*
X111974866Y-54395134D01*
X112200986Y-54580706D01*
X112458966Y-54718599D01*
X112738889Y-54803513D01*
X112957050Y-54825000D01*
X113102950Y-54825000D01*
X113321111Y-54803513D01*
X113601034Y-54718599D01*
X113859014Y-54580706D01*
X114085134Y-54395134D01*
X114270706Y-54169014D01*
X114300000Y-54114209D01*
X114329294Y-54169014D01*
X114514866Y-54395134D01*
X114740986Y-54580706D01*
X114998966Y-54718599D01*
X115278889Y-54803513D01*
X115497050Y-54825000D01*
X115642950Y-54825000D01*
X115861111Y-54803513D01*
X116141034Y-54718599D01*
X116399014Y-54580706D01*
X116625134Y-54395134D01*
X116810706Y-54169014D01*
X116845201Y-54104477D01*
X116914822Y-54221355D01*
X117109731Y-54437588D01*
X117343080Y-54611641D01*
X117605901Y-54736825D01*
X117753110Y-54781476D01*
X117983000Y-54660155D01*
X117983000Y-53467000D01*
X117963000Y-53467000D01*
X117963000Y-53213000D01*
X117983000Y-53213000D01*
X117983000Y-52019845D01*
X118237000Y-52019845D01*
X118237000Y-53213000D01*
X118257000Y-53213000D01*
X118257000Y-53467000D01*
X118237000Y-53467000D01*
X118237000Y-54660155D01*
X118466890Y-54781476D01*
X118614099Y-54736825D01*
X118876920Y-54611641D01*
X119110269Y-54437588D01*
X119186034Y-54353534D01*
X119210498Y-54434180D01*
X119269463Y-54544494D01*
X119348815Y-54641185D01*
X119445506Y-54720537D01*
X119555820Y-54779502D01*
X119675518Y-54815812D01*
X119800000Y-54828072D01*
X121500000Y-54828072D01*
X121624482Y-54815812D01*
X121744180Y-54779502D01*
X121854494Y-54720537D01*
X121951185Y-54641185D01*
X122030537Y-54544494D01*
X122089502Y-54434180D01*
X122125812Y-54314482D01*
X122138072Y-54190000D01*
X122138072Y-53343058D01*
X126954200Y-53343058D01*
X126954200Y-53556942D01*
X126995926Y-53766716D01*
X127077776Y-53964319D01*
X127196604Y-54142157D01*
X127347843Y-54293396D01*
X127525681Y-54412224D01*
X127723284Y-54494074D01*
X127933058Y-54535800D01*
X128146942Y-54535800D01*
X128356716Y-54494074D01*
X128554319Y-54412224D01*
X128732157Y-54293396D01*
X128883396Y-54142157D01*
X129002224Y-53964319D01*
X129084074Y-53766716D01*
X129125800Y-53556942D01*
X129125800Y-53549593D01*
X130303588Y-52371806D01*
X130335564Y-52345564D01*
X130440309Y-52217932D01*
X130518142Y-52072317D01*
X130566071Y-51914316D01*
X130578200Y-51791170D01*
X130578200Y-51791164D01*
X130582254Y-51750001D01*
X130578200Y-51708838D01*
X130578200Y-46057353D01*
X130583396Y-46052157D01*
X130702224Y-45874319D01*
X130784074Y-45676716D01*
X130825800Y-45466942D01*
X130825800Y-45253058D01*
X130784074Y-45043284D01*
X130702224Y-44845681D01*
X130583396Y-44667843D01*
X130432157Y-44516604D01*
X130254319Y-44397776D01*
X130056716Y-44315926D01*
X129846942Y-44274200D01*
X129633058Y-44274200D01*
X129423284Y-44315926D01*
X129225681Y-44397776D01*
X129047843Y-44516604D01*
X128896604Y-44667843D01*
X128777776Y-44845681D01*
X128695926Y-45043284D01*
X128654200Y-45253058D01*
X128654200Y-45466942D01*
X128695926Y-45676716D01*
X128777776Y-45874319D01*
X128896604Y-46052157D01*
X128901800Y-46057353D01*
X128901801Y-51402805D01*
X127940407Y-52364200D01*
X127933058Y-52364200D01*
X127723284Y-52405926D01*
X127525681Y-52487776D01*
X127347843Y-52606604D01*
X127196604Y-52757843D01*
X127077776Y-52935681D01*
X126995926Y-53133284D01*
X126954200Y-53343058D01*
X122138072Y-53343058D01*
X122138072Y-52490000D01*
X122125812Y-52365518D01*
X122089502Y-52245820D01*
X122030537Y-52135506D01*
X121951185Y-52038815D01*
X121854494Y-51959463D01*
X121744180Y-51900498D01*
X121624482Y-51864188D01*
X121500000Y-51851928D01*
X119800000Y-51851928D01*
X119675518Y-51864188D01*
X119555820Y-51900498D01*
X119445506Y-51959463D01*
X119348815Y-52038815D01*
X119269463Y-52135506D01*
X119210498Y-52245820D01*
X119186034Y-52326466D01*
X119110269Y-52242412D01*
X118876920Y-52068359D01*
X118614099Y-51943175D01*
X118466890Y-51898524D01*
X118237000Y-52019845D01*
X117983000Y-52019845D01*
X117753110Y-51898524D01*
X117605901Y-51943175D01*
X117343080Y-52068359D01*
X117109731Y-52242412D01*
X116914822Y-52458645D01*
X116845201Y-52575523D01*
X116810706Y-52510986D01*
X116625134Y-52284866D01*
X116399014Y-52099294D01*
X116141034Y-51961401D01*
X115861111Y-51876487D01*
X115642950Y-51855000D01*
X115497050Y-51855000D01*
X115278889Y-51876487D01*
X114998966Y-51961401D01*
X114740986Y-52099294D01*
X114514866Y-52284866D01*
X114329294Y-52510986D01*
X114300000Y-52565791D01*
X114270706Y-52510986D01*
X114085134Y-52284866D01*
X113859014Y-52099294D01*
X113601034Y-51961401D01*
X113321111Y-51876487D01*
X113102950Y-51855000D01*
X112957050Y-51855000D01*
X112738889Y-51876487D01*
X112458966Y-51961401D01*
X112200986Y-52099294D01*
X111974866Y-52284866D01*
X111789294Y-52510986D01*
X111760000Y-52565791D01*
X111730706Y-52510986D01*
X111545134Y-52284866D01*
X111319014Y-52099294D01*
X111061034Y-51961401D01*
X110781111Y-51876487D01*
X110562950Y-51855000D01*
X110417050Y-51855000D01*
X110198889Y-51876487D01*
X109918966Y-51961401D01*
X109660986Y-52099294D01*
X109434866Y-52284866D01*
X109249294Y-52510986D01*
X109220000Y-52565791D01*
X109190706Y-52510986D01*
X109005134Y-52284866D01*
X108779014Y-52099294D01*
X108521034Y-51961401D01*
X108241111Y-51876487D01*
X108022950Y-51855000D01*
X107877050Y-51855000D01*
X107658889Y-51876487D01*
X107378966Y-51961401D01*
X107120986Y-52099294D01*
X106894866Y-52284866D01*
X106709294Y-52510986D01*
X106571401Y-52768966D01*
X106486487Y-53048889D01*
X106457815Y-53340000D01*
X95587866Y-53340000D01*
X98149667Y-50778200D01*
X125522647Y-50778200D01*
X125527843Y-50783396D01*
X125705681Y-50902224D01*
X125903284Y-50984074D01*
X126113058Y-51025800D01*
X126326942Y-51025800D01*
X126536716Y-50984074D01*
X126734319Y-50902224D01*
X126912157Y-50783396D01*
X127063396Y-50632157D01*
X127182224Y-50454319D01*
X127264074Y-50256716D01*
X127305800Y-50046942D01*
X127305800Y-49833058D01*
X127264074Y-49623284D01*
X127182224Y-49425681D01*
X127063396Y-49247843D01*
X126912157Y-49096604D01*
X126734319Y-48977776D01*
X126536716Y-48895926D01*
X126326942Y-48854200D01*
X126113058Y-48854200D01*
X125903284Y-48895926D01*
X125705681Y-48977776D01*
X125527843Y-49096604D01*
X125522647Y-49101800D01*
X97843636Y-49101800D01*
X97802473Y-49097746D01*
X97761310Y-49101800D01*
X97761303Y-49101800D01*
X97638157Y-49113929D01*
X97480156Y-49161858D01*
X97334541Y-49239691D01*
X97206909Y-49344436D01*
X97180667Y-49376412D01*
X86306413Y-60250667D01*
X86274437Y-60276909D01*
X86248195Y-60308885D01*
X86248192Y-60308888D01*
X86169691Y-60404542D01*
X86091858Y-60550157D01*
X86066329Y-60634315D01*
X86043929Y-60708157D01*
X86033838Y-60810609D01*
X86026604Y-60817843D01*
X85907776Y-60995681D01*
X85825926Y-61193284D01*
X85784200Y-61403058D01*
X81427420Y-61403058D01*
X81473513Y-61251111D01*
X81502185Y-60960000D01*
X81473513Y-60668889D01*
X81388599Y-60388966D01*
X81250706Y-60130986D01*
X81065134Y-59904866D01*
X81035313Y-59880393D01*
X81104180Y-59859502D01*
X81214494Y-59800537D01*
X81311185Y-59721185D01*
X81390537Y-59624494D01*
X81449502Y-59514180D01*
X81485812Y-59394482D01*
X81498072Y-59270000D01*
X81498072Y-57570000D01*
X81485812Y-57445518D01*
X81449502Y-57325820D01*
X81390537Y-57215506D01*
X81311185Y-57118815D01*
X81214494Y-57039463D01*
X81104180Y-56980498D01*
X80984482Y-56944188D01*
X80860000Y-56931928D01*
X79160000Y-56931928D01*
X79035518Y-56944188D01*
X78915820Y-56980498D01*
X78805506Y-57039463D01*
X78708815Y-57118815D01*
X78629463Y-57215506D01*
X78570498Y-57325820D01*
X78534188Y-57445518D01*
X78521928Y-57570000D01*
X78521928Y-59270000D01*
X78534188Y-59394482D01*
X78570498Y-59514180D01*
X78629463Y-59624494D01*
X78708815Y-59721185D01*
X78805506Y-59800537D01*
X78915820Y-59859502D01*
X78984687Y-59880393D01*
X78954866Y-59904866D01*
X78769294Y-60130986D01*
X78631401Y-60388966D01*
X78546487Y-60668889D01*
X78517815Y-60960000D01*
X69240000Y-60960000D01*
X69240000Y-53243058D01*
X75134200Y-53243058D01*
X75134200Y-53456942D01*
X75175926Y-53666716D01*
X75257776Y-53864319D01*
X75376604Y-54042157D01*
X75527843Y-54193396D01*
X75705681Y-54312224D01*
X75903284Y-54394074D01*
X76113058Y-54435800D01*
X76326942Y-54435800D01*
X76536716Y-54394074D01*
X76734319Y-54312224D01*
X76912157Y-54193396D01*
X76917353Y-54188200D01*
X77021583Y-54188200D01*
X77062746Y-54192254D01*
X77103909Y-54188200D01*
X77103916Y-54188200D01*
X77227062Y-54176071D01*
X77385063Y-54128142D01*
X77530678Y-54050309D01*
X77658310Y-53945564D01*
X77684557Y-53913582D01*
X84995081Y-46603058D01*
X90994200Y-46603058D01*
X90994200Y-46816942D01*
X91035926Y-47026716D01*
X91117776Y-47224319D01*
X91236604Y-47402157D01*
X91387843Y-47553396D01*
X91565681Y-47672224D01*
X91763284Y-47754074D01*
X91973058Y-47795800D01*
X92186942Y-47795800D01*
X92396716Y-47754074D01*
X92594319Y-47672224D01*
X92675171Y-47618200D01*
X98472647Y-47618200D01*
X98477843Y-47623396D01*
X98655681Y-47742224D01*
X98853284Y-47824074D01*
X99063058Y-47865800D01*
X99276942Y-47865800D01*
X99486716Y-47824074D01*
X99684319Y-47742224D01*
X99862157Y-47623396D01*
X100013396Y-47472157D01*
X100132224Y-47294319D01*
X100214074Y-47096716D01*
X100255800Y-46886942D01*
X100255800Y-46673058D01*
X100214074Y-46463284D01*
X100132224Y-46265681D01*
X100013396Y-46087843D01*
X99862157Y-45936604D01*
X99684319Y-45817776D01*
X99486716Y-45735926D01*
X99276942Y-45694200D01*
X99063058Y-45694200D01*
X98853284Y-45735926D01*
X98655681Y-45817776D01*
X98477843Y-45936604D01*
X98472647Y-45941800D01*
X92847353Y-45941800D01*
X92772157Y-45866604D01*
X92594319Y-45747776D01*
X92396716Y-45665926D01*
X92186942Y-45624200D01*
X91973058Y-45624200D01*
X91763284Y-45665926D01*
X91565681Y-45747776D01*
X91387843Y-45866604D01*
X91236604Y-46017843D01*
X91117776Y-46195681D01*
X91035926Y-46393284D01*
X90994200Y-46603058D01*
X84995081Y-46603058D01*
X89763589Y-41834551D01*
X89795564Y-41808310D01*
X89832410Y-41763414D01*
X89900309Y-41680678D01*
X89954598Y-41579110D01*
X89978142Y-41535063D01*
X90026071Y-41377062D01*
X90038200Y-41253916D01*
X90038200Y-41253907D01*
X90042254Y-41212747D01*
X90038200Y-41171587D01*
X90038200Y-38827353D01*
X90043396Y-38822157D01*
X90162224Y-38644319D01*
X90244074Y-38446716D01*
X90285800Y-38236942D01*
X90285800Y-38023058D01*
X90244074Y-37813284D01*
X90162224Y-37615681D01*
X90043396Y-37437843D01*
X89892157Y-37286604D01*
X89714319Y-37167776D01*
X89516716Y-37085926D01*
X89306942Y-37044200D01*
X89093058Y-37044200D01*
X88883284Y-37085926D01*
X88685681Y-37167776D01*
X88507843Y-37286604D01*
X88356604Y-37437843D01*
X88237776Y-37615681D01*
X88155926Y-37813284D01*
X88114200Y-38023058D01*
X88114200Y-38236942D01*
X88155926Y-38446716D01*
X88237776Y-38644319D01*
X88356604Y-38822157D01*
X88361801Y-38827354D01*
X88361800Y-40865552D01*
X86494530Y-42732822D01*
X86429754Y-42550372D01*
X86357844Y-42415838D01*
X86109975Y-42339630D01*
X85269605Y-43180000D01*
X85283748Y-43194143D01*
X85104143Y-43373748D01*
X85090000Y-43359605D01*
X84249630Y-44199975D01*
X84325838Y-44447844D01*
X84587865Y-44572563D01*
X84641272Y-44586081D01*
X76797416Y-52429937D01*
X76734319Y-52387776D01*
X76536716Y-52305926D01*
X76326942Y-52264200D01*
X76113058Y-52264200D01*
X75903284Y-52305926D01*
X75705681Y-52387776D01*
X75527843Y-52506604D01*
X75376604Y-52657843D01*
X75257776Y-52835681D01*
X75175926Y-53033284D01*
X75134200Y-53243058D01*
X69240000Y-53243058D01*
X69240000Y-43248999D01*
X83611281Y-43248999D01*
X83653155Y-43536157D01*
X83750246Y-43809628D01*
X83822156Y-43944162D01*
X84070025Y-44020370D01*
X84910395Y-43180000D01*
X84070025Y-42339630D01*
X83822156Y-42415838D01*
X83697437Y-42677865D01*
X83626232Y-42959189D01*
X83611281Y-43248999D01*
X69240000Y-43248999D01*
X69240000Y-27101800D01*
X83613728Y-27101800D01*
X83613728Y-28778200D01*
X83625988Y-28902682D01*
X83662298Y-29022380D01*
X83721263Y-29132694D01*
X83800615Y-29229385D01*
X83897306Y-29308737D01*
X84007620Y-29367702D01*
X84092984Y-29393597D01*
X83945691Y-29540890D01*
X83784467Y-29782178D01*
X83673414Y-30050283D01*
X83616800Y-30334902D01*
X83616800Y-30625098D01*
X83673414Y-30909717D01*
X83784467Y-31177822D01*
X83945691Y-31419110D01*
X84150890Y-31624309D01*
X84338999Y-31750000D01*
X84150890Y-31875691D01*
X83945691Y-32080890D01*
X83784467Y-32322178D01*
X83673414Y-32590283D01*
X83616800Y-32874902D01*
X83616800Y-33165098D01*
X83673414Y-33449717D01*
X83784467Y-33717822D01*
X83945691Y-33959110D01*
X84150890Y-34164309D01*
X84338999Y-34290000D01*
X84150890Y-34415691D01*
X83945691Y-34620890D01*
X83784467Y-34862178D01*
X83673414Y-35130283D01*
X83616800Y-35414902D01*
X83616800Y-35705098D01*
X83673414Y-35989717D01*
X83784467Y-36257822D01*
X83945691Y-36499110D01*
X84150890Y-36704309D01*
X84338999Y-36830000D01*
X84150890Y-36955691D01*
X83945691Y-37160890D01*
X83784467Y-37402178D01*
X83673414Y-37670283D01*
X83616800Y-37954902D01*
X83616800Y-38245098D01*
X83673414Y-38529717D01*
X83784467Y-38797822D01*
X83945691Y-39039110D01*
X84150890Y-39244309D01*
X84338999Y-39370000D01*
X84150890Y-39495691D01*
X83945691Y-39700890D01*
X83784467Y-39942178D01*
X83673414Y-40210283D01*
X83616800Y-40494902D01*
X83616800Y-40785098D01*
X83673414Y-41069717D01*
X83784467Y-41337822D01*
X83945691Y-41579110D01*
X84150890Y-41784309D01*
X84334943Y-41907289D01*
X84325838Y-41912156D01*
X84249630Y-42160025D01*
X85090000Y-43000395D01*
X85930370Y-42160025D01*
X85854162Y-41912156D01*
X85844592Y-41907601D01*
X86029110Y-41784309D01*
X86234309Y-41579110D01*
X86395533Y-41337822D01*
X86506586Y-41069717D01*
X86563200Y-40785098D01*
X86563200Y-40494902D01*
X86506586Y-40210283D01*
X86395533Y-39942178D01*
X86234309Y-39700890D01*
X86029110Y-39495691D01*
X85841001Y-39370000D01*
X86029110Y-39244309D01*
X86234309Y-39039110D01*
X86395533Y-38797822D01*
X86506586Y-38529717D01*
X86563200Y-38245098D01*
X86563200Y-37954902D01*
X86506586Y-37670283D01*
X86395533Y-37402178D01*
X86234309Y-37160890D01*
X86029110Y-36955691D01*
X85841001Y-36830000D01*
X86029110Y-36704309D01*
X86234309Y-36499110D01*
X86395533Y-36257822D01*
X86506586Y-35989717D01*
X86563200Y-35705098D01*
X86563200Y-35414902D01*
X86506586Y-35130283D01*
X86395533Y-34862178D01*
X86234309Y-34620890D01*
X86029110Y-34415691D01*
X85841001Y-34290000D01*
X86029110Y-34164309D01*
X86234309Y-33959110D01*
X86395533Y-33717822D01*
X86506586Y-33449717D01*
X86563200Y-33165098D01*
X86563200Y-32874902D01*
X86506586Y-32590283D01*
X86395533Y-32322178D01*
X86234309Y-32080890D01*
X86029110Y-31875691D01*
X85841001Y-31750000D01*
X86029110Y-31624309D01*
X86234309Y-31419110D01*
X86395533Y-31177822D01*
X86506586Y-30909717D01*
X86563200Y-30625098D01*
X86563200Y-30334902D01*
X86506586Y-30050283D01*
X86395533Y-29782178D01*
X86234309Y-29540890D01*
X86087016Y-29393597D01*
X86172380Y-29367702D01*
X86282694Y-29308737D01*
X86379385Y-29229385D01*
X86458737Y-29132694D01*
X86517702Y-29022380D01*
X86554012Y-28902682D01*
X86566272Y-28778200D01*
X86566272Y-27794902D01*
X91236800Y-27794902D01*
X91236800Y-28085098D01*
X91293414Y-28369717D01*
X91404467Y-28637822D01*
X91565691Y-28879110D01*
X91770890Y-29084309D01*
X91958999Y-29210000D01*
X91770890Y-29335691D01*
X91565691Y-29540890D01*
X91404467Y-29782178D01*
X91293414Y-30050283D01*
X91236800Y-30334902D01*
X91236800Y-30625098D01*
X91293414Y-30909717D01*
X91404467Y-31177822D01*
X91565691Y-31419110D01*
X91770890Y-31624309D01*
X91958999Y-31750000D01*
X91770890Y-31875691D01*
X91565691Y-32080890D01*
X91404467Y-32322178D01*
X91293414Y-32590283D01*
X91236800Y-32874902D01*
X91236800Y-33165098D01*
X91293414Y-33449717D01*
X91404467Y-33717822D01*
X91565691Y-33959110D01*
X91770890Y-34164309D01*
X91958999Y-34290000D01*
X91770890Y-34415691D01*
X91565691Y-34620890D01*
X91404467Y-34862178D01*
X91293414Y-35130283D01*
X91236800Y-35414902D01*
X91236800Y-35705098D01*
X91293414Y-35989717D01*
X91404467Y-36257822D01*
X91565691Y-36499110D01*
X91770890Y-36704309D01*
X91958999Y-36830000D01*
X91770890Y-36955691D01*
X91565691Y-37160890D01*
X91404467Y-37402178D01*
X91293414Y-37670283D01*
X91236800Y-37954902D01*
X91236800Y-38245098D01*
X91293414Y-38529717D01*
X91404467Y-38797822D01*
X91565691Y-39039110D01*
X91770890Y-39244309D01*
X91958999Y-39370000D01*
X91770890Y-39495691D01*
X91565691Y-39700890D01*
X91404467Y-39942178D01*
X91293414Y-40210283D01*
X91236800Y-40494902D01*
X91236800Y-40785098D01*
X91293414Y-41069717D01*
X91404467Y-41337822D01*
X91565691Y-41579110D01*
X91770890Y-41784309D01*
X91958999Y-41910000D01*
X91770890Y-42035691D01*
X91565691Y-42240890D01*
X91404467Y-42482178D01*
X91293414Y-42750283D01*
X91236800Y-43034902D01*
X91236800Y-43325098D01*
X91293414Y-43609717D01*
X91404467Y-43877822D01*
X91565691Y-44119110D01*
X91770890Y-44324309D01*
X92012178Y-44485533D01*
X92280283Y-44596586D01*
X92564902Y-44653200D01*
X92855098Y-44653200D01*
X93139717Y-44596586D01*
X93407822Y-44485533D01*
X93649110Y-44324309D01*
X93854309Y-44119110D01*
X94015533Y-43877822D01*
X94126586Y-43609717D01*
X94183200Y-43325098D01*
X94183200Y-43034902D01*
X94162329Y-42929975D01*
X121079630Y-42929975D01*
X121155838Y-43177844D01*
X121417865Y-43302563D01*
X121699189Y-43373768D01*
X121988999Y-43388719D01*
X122276157Y-43346845D01*
X122549628Y-43249754D01*
X122684162Y-43177844D01*
X122760370Y-42929975D01*
X121920000Y-42089605D01*
X121079630Y-42929975D01*
X94162329Y-42929975D01*
X94126586Y-42750283D01*
X94015533Y-42482178D01*
X93854309Y-42240890D01*
X93649110Y-42035691D01*
X93564265Y-41978999D01*
X120441281Y-41978999D01*
X120483155Y-42266157D01*
X120580246Y-42539628D01*
X120652156Y-42674162D01*
X120900025Y-42750370D01*
X121740395Y-41910000D01*
X122099605Y-41910000D01*
X122939975Y-42750370D01*
X123187844Y-42674162D01*
X123312563Y-42412135D01*
X123383768Y-42130811D01*
X123398719Y-41841001D01*
X123356845Y-41553843D01*
X123259754Y-41280372D01*
X123187844Y-41145838D01*
X122939975Y-41069630D01*
X122099605Y-41910000D01*
X121740395Y-41910000D01*
X120900025Y-41069630D01*
X120652156Y-41145838D01*
X120527437Y-41407865D01*
X120456232Y-41689189D01*
X120441281Y-41978999D01*
X93564265Y-41978999D01*
X93461001Y-41910000D01*
X93649110Y-41784309D01*
X93854309Y-41579110D01*
X94015533Y-41337822D01*
X94126586Y-41069717D01*
X94183200Y-40785098D01*
X94183200Y-40494902D01*
X94126586Y-40210283D01*
X94015533Y-39942178D01*
X93854309Y-39700890D01*
X93649110Y-39495691D01*
X93461001Y-39370000D01*
X93649110Y-39244309D01*
X93854309Y-39039110D01*
X94015533Y-38797822D01*
X94126586Y-38529717D01*
X94183200Y-38245098D01*
X94183200Y-37954902D01*
X94162943Y-37853058D01*
X98344200Y-37853058D01*
X98344200Y-38066942D01*
X98385926Y-38276716D01*
X98467776Y-38474319D01*
X98586604Y-38652157D01*
X98737843Y-38803396D01*
X98915681Y-38922224D01*
X99113284Y-39004074D01*
X99323058Y-39045800D01*
X99536942Y-39045800D01*
X99746716Y-39004074D01*
X99944319Y-38922224D01*
X100122157Y-38803396D01*
X100273396Y-38652157D01*
X100392224Y-38474319D01*
X100474074Y-38276716D01*
X100515800Y-38066942D01*
X100515800Y-38059593D01*
X104549931Y-34025463D01*
X104654319Y-33982224D01*
X104832157Y-33863396D01*
X104983396Y-33712157D01*
X105102224Y-33534319D01*
X105184074Y-33336716D01*
X105225800Y-33126942D01*
X105225800Y-32913058D01*
X105184074Y-32703284D01*
X105102224Y-32505681D01*
X104983396Y-32327843D01*
X104832157Y-32176604D01*
X104654319Y-32057776D01*
X104456716Y-31975926D01*
X104246942Y-31934200D01*
X104033058Y-31934200D01*
X103823284Y-31975926D01*
X103625681Y-32057776D01*
X103447843Y-32176604D01*
X103296604Y-32327843D01*
X103177776Y-32505681D01*
X103095926Y-32703284D01*
X103054200Y-32913058D01*
X103054200Y-33126942D01*
X103058093Y-33146513D01*
X99330407Y-36874200D01*
X99323058Y-36874200D01*
X99113284Y-36915926D01*
X98915681Y-36997776D01*
X98737843Y-37116604D01*
X98586604Y-37267843D01*
X98467776Y-37445681D01*
X98385926Y-37643284D01*
X98344200Y-37853058D01*
X94162943Y-37853058D01*
X94126586Y-37670283D01*
X94015533Y-37402178D01*
X93854309Y-37160890D01*
X93649110Y-36955691D01*
X93461001Y-36830000D01*
X93649110Y-36704309D01*
X93854309Y-36499110D01*
X94015533Y-36257822D01*
X94126586Y-35989717D01*
X94183200Y-35705098D01*
X94183200Y-35414902D01*
X94126586Y-35130283D01*
X94015533Y-34862178D01*
X93854309Y-34620890D01*
X93649110Y-34415691D01*
X93461001Y-34290000D01*
X93649110Y-34164309D01*
X93854309Y-33959110D01*
X94015533Y-33717822D01*
X94126586Y-33449717D01*
X94183200Y-33165098D01*
X94183200Y-32874902D01*
X94126586Y-32590283D01*
X94015533Y-32322178D01*
X93854309Y-32080890D01*
X93649110Y-31875691D01*
X93461001Y-31750000D01*
X93649110Y-31624309D01*
X93854309Y-31419110D01*
X94015533Y-31177822D01*
X94126586Y-30909717D01*
X94183200Y-30625098D01*
X94183200Y-30334902D01*
X94126586Y-30050283D01*
X94015533Y-29782178D01*
X93854309Y-29540890D01*
X93649110Y-29335691D01*
X93461001Y-29210000D01*
X93649110Y-29084309D01*
X93854309Y-28879110D01*
X94015533Y-28637822D01*
X94126586Y-28369717D01*
X94183200Y-28085098D01*
X94183200Y-27794902D01*
X94126586Y-27510283D01*
X94015533Y-27242178D01*
X93854309Y-27000890D01*
X93649110Y-26795691D01*
X93407822Y-26634467D01*
X93139717Y-26523414D01*
X92855098Y-26466800D01*
X92564902Y-26466800D01*
X92280283Y-26523414D01*
X92012178Y-26634467D01*
X91770890Y-26795691D01*
X91565691Y-27000890D01*
X91404467Y-27242178D01*
X91293414Y-27510283D01*
X91236800Y-27794902D01*
X86566272Y-27794902D01*
X86566272Y-27101800D01*
X86554012Y-26977318D01*
X86517702Y-26857620D01*
X86458737Y-26747306D01*
X86379385Y-26650615D01*
X86282694Y-26571263D01*
X86172380Y-26512298D01*
X86052682Y-26475988D01*
X85928200Y-26463728D01*
X84251800Y-26463728D01*
X84127318Y-26475988D01*
X84007620Y-26512298D01*
X83897306Y-26571263D01*
X83800615Y-26650615D01*
X83721263Y-26747306D01*
X83662298Y-26857620D01*
X83625988Y-26977318D01*
X83613728Y-27101800D01*
X69240000Y-27101800D01*
X69240000Y-26183058D01*
X97484200Y-26183058D01*
X97484200Y-26396942D01*
X97525926Y-26606716D01*
X97607776Y-26804319D01*
X97726604Y-26982157D01*
X97877843Y-27133396D01*
X98055681Y-27252224D01*
X98253284Y-27334074D01*
X98463058Y-27375800D01*
X98676942Y-27375800D01*
X98886716Y-27334074D01*
X99084319Y-27252224D01*
X99262157Y-27133396D01*
X99413396Y-26982157D01*
X99532224Y-26804319D01*
X99614074Y-26606716D01*
X99617489Y-26589549D01*
X100375238Y-25831800D01*
X120443728Y-25831800D01*
X120443728Y-27508200D01*
X120455988Y-27632682D01*
X120492298Y-27752380D01*
X120551263Y-27862694D01*
X120630615Y-27959385D01*
X120727306Y-28038737D01*
X120837620Y-28097702D01*
X120922984Y-28123597D01*
X120775691Y-28270890D01*
X120614467Y-28512178D01*
X120503414Y-28780283D01*
X120446800Y-29064902D01*
X120446800Y-29355098D01*
X120503414Y-29639717D01*
X120614467Y-29907822D01*
X120775691Y-30149110D01*
X120980890Y-30354309D01*
X121168999Y-30480000D01*
X120980890Y-30605691D01*
X120775691Y-30810890D01*
X120614467Y-31052178D01*
X120503414Y-31320283D01*
X120446800Y-31604902D01*
X120446800Y-31895098D01*
X120503414Y-32179717D01*
X120614467Y-32447822D01*
X120775691Y-32689110D01*
X120980890Y-32894309D01*
X121168999Y-33020000D01*
X120980890Y-33145691D01*
X120775691Y-33350890D01*
X120614467Y-33592178D01*
X120503414Y-33860283D01*
X120446800Y-34144902D01*
X120446800Y-34435098D01*
X120503414Y-34719717D01*
X120614467Y-34987822D01*
X120775691Y-35229110D01*
X120980890Y-35434309D01*
X121168999Y-35560000D01*
X120980890Y-35685691D01*
X120775691Y-35890890D01*
X120614467Y-36132178D01*
X120503414Y-36400283D01*
X120446800Y-36684902D01*
X120446800Y-36975098D01*
X120503414Y-37259717D01*
X120614467Y-37527822D01*
X120775691Y-37769110D01*
X120980890Y-37974309D01*
X121168999Y-38100000D01*
X120980890Y-38225691D01*
X120775691Y-38430890D01*
X120614467Y-38672178D01*
X120503414Y-38940283D01*
X120446800Y-39224902D01*
X120446800Y-39515098D01*
X120503414Y-39799717D01*
X120614467Y-40067822D01*
X120775691Y-40309110D01*
X120980890Y-40514309D01*
X121164943Y-40637289D01*
X121155838Y-40642156D01*
X121079630Y-40890025D01*
X121920000Y-41730395D01*
X122760370Y-40890025D01*
X122684162Y-40642156D01*
X122674592Y-40637601D01*
X122859110Y-40514309D01*
X123064309Y-40309110D01*
X123225533Y-40067822D01*
X123336586Y-39799717D01*
X123393200Y-39515098D01*
X123393200Y-39224902D01*
X123336586Y-38940283D01*
X123225533Y-38672178D01*
X123064309Y-38430890D01*
X122859110Y-38225691D01*
X122671001Y-38100000D01*
X122859110Y-37974309D01*
X123064309Y-37769110D01*
X123225533Y-37527822D01*
X123336586Y-37259717D01*
X123393200Y-36975098D01*
X123393200Y-36684902D01*
X123336586Y-36400283D01*
X123225533Y-36132178D01*
X123064309Y-35890890D01*
X122859110Y-35685691D01*
X122671001Y-35560000D01*
X122859110Y-35434309D01*
X123064309Y-35229110D01*
X123225533Y-34987822D01*
X123336586Y-34719717D01*
X123393200Y-34435098D01*
X123393200Y-34144902D01*
X123336586Y-33860283D01*
X123225533Y-33592178D01*
X123064309Y-33350890D01*
X122859110Y-33145691D01*
X122671001Y-33020000D01*
X122859110Y-32894309D01*
X123064309Y-32689110D01*
X123225533Y-32447822D01*
X123336586Y-32179717D01*
X123393200Y-31895098D01*
X123393200Y-31604902D01*
X123336586Y-31320283D01*
X123225533Y-31052178D01*
X123064309Y-30810890D01*
X122859110Y-30605691D01*
X122671001Y-30480000D01*
X122859110Y-30354309D01*
X123064309Y-30149110D01*
X123225533Y-29907822D01*
X123336586Y-29639717D01*
X123393200Y-29355098D01*
X123393200Y-29064902D01*
X123336586Y-28780283D01*
X123225533Y-28512178D01*
X123064309Y-28270890D01*
X122917016Y-28123597D01*
X123002380Y-28097702D01*
X123112694Y-28038737D01*
X123209385Y-27959385D01*
X123288737Y-27862694D01*
X123347702Y-27752380D01*
X123384012Y-27632682D01*
X123396272Y-27508200D01*
X123396272Y-25831800D01*
X123384012Y-25707318D01*
X123347702Y-25587620D01*
X123288737Y-25477306D01*
X123209385Y-25380615D01*
X123112694Y-25301263D01*
X123002380Y-25242298D01*
X122882682Y-25205988D01*
X122758200Y-25193728D01*
X121081800Y-25193728D01*
X120957318Y-25205988D01*
X120837620Y-25242298D01*
X120727306Y-25301263D01*
X120630615Y-25380615D01*
X120551263Y-25477306D01*
X120492298Y-25587620D01*
X120455988Y-25707318D01*
X120443728Y-25831800D01*
X100375238Y-25831800D01*
X106800148Y-19406890D01*
X109048524Y-19406890D01*
X109093175Y-19554099D01*
X109218359Y-19816920D01*
X109392412Y-20050269D01*
X109608645Y-20245178D01*
X109858748Y-20394157D01*
X110133109Y-20491481D01*
X110363000Y-20370814D01*
X110363000Y-19177000D01*
X110617000Y-19177000D01*
X110617000Y-20370814D01*
X110846891Y-20491481D01*
X111121252Y-20394157D01*
X111371355Y-20245178D01*
X111587588Y-20050269D01*
X111761641Y-19816920D01*
X111886825Y-19554099D01*
X111931476Y-19406890D01*
X111810155Y-19177000D01*
X110617000Y-19177000D01*
X110363000Y-19177000D01*
X109169845Y-19177000D01*
X109048524Y-19406890D01*
X106800148Y-19406890D01*
X108744538Y-17462500D01*
X109012023Y-17462500D01*
X109014188Y-17484482D01*
X109050498Y-17604180D01*
X109109463Y-17714494D01*
X109188815Y-17811185D01*
X109285506Y-17890537D01*
X109395820Y-17949502D01*
X109476466Y-17973966D01*
X109392412Y-18049731D01*
X109218359Y-18283080D01*
X109093175Y-18545901D01*
X109048524Y-18693110D01*
X109169845Y-18923000D01*
X110363000Y-18923000D01*
X110363000Y-18903000D01*
X110617000Y-18903000D01*
X110617000Y-18923000D01*
X111810155Y-18923000D01*
X111931476Y-18693110D01*
X111886825Y-18545901D01*
X111761641Y-18283080D01*
X111587588Y-18049731D01*
X111503534Y-17973966D01*
X111584180Y-17949502D01*
X111694494Y-17890537D01*
X111791185Y-17811185D01*
X111870537Y-17714494D01*
X111929502Y-17604180D01*
X111965812Y-17484482D01*
X111967977Y-17462500D01*
X116165462Y-17462500D01*
X124452512Y-25749551D01*
X124455926Y-25766716D01*
X124537776Y-25964319D01*
X124656604Y-26142157D01*
X124807843Y-26293396D01*
X124985681Y-26412224D01*
X125183284Y-26494074D01*
X125393058Y-26535800D01*
X125606942Y-26535800D01*
X125661730Y-26524902D01*
X128066800Y-26524902D01*
X128066800Y-26815098D01*
X128123414Y-27099717D01*
X128234467Y-27367822D01*
X128395691Y-27609110D01*
X128600890Y-27814309D01*
X128788999Y-27940000D01*
X128600890Y-28065691D01*
X128395691Y-28270890D01*
X128234467Y-28512178D01*
X128123414Y-28780283D01*
X128066800Y-29064902D01*
X128066800Y-29355098D01*
X128123414Y-29639717D01*
X128234467Y-29907822D01*
X128395691Y-30149110D01*
X128600890Y-30354309D01*
X128788999Y-30480000D01*
X128600890Y-30605691D01*
X128395691Y-30810890D01*
X128234467Y-31052178D01*
X128123414Y-31320283D01*
X128066800Y-31604902D01*
X128066800Y-31895098D01*
X128123414Y-32179717D01*
X128234467Y-32447822D01*
X128395691Y-32689110D01*
X128600890Y-32894309D01*
X128788999Y-33020000D01*
X128600890Y-33145691D01*
X128395691Y-33350890D01*
X128234467Y-33592178D01*
X128123414Y-33860283D01*
X128066800Y-34144902D01*
X128066800Y-34435098D01*
X128123414Y-34719717D01*
X128234467Y-34987822D01*
X128395691Y-35229110D01*
X128600890Y-35434309D01*
X128788999Y-35560000D01*
X128600890Y-35685691D01*
X128395691Y-35890890D01*
X128234467Y-36132178D01*
X128123414Y-36400283D01*
X128066800Y-36684902D01*
X128066800Y-36975098D01*
X128123414Y-37259717D01*
X128234467Y-37527822D01*
X128395691Y-37769110D01*
X128600890Y-37974309D01*
X128788999Y-38100000D01*
X128600890Y-38225691D01*
X128395691Y-38430890D01*
X128234467Y-38672178D01*
X128123414Y-38940283D01*
X128066800Y-39224902D01*
X128066800Y-39515098D01*
X128123414Y-39799717D01*
X128234467Y-40067822D01*
X128395691Y-40309110D01*
X128600890Y-40514309D01*
X128788999Y-40640000D01*
X128600890Y-40765691D01*
X128395691Y-40970890D01*
X128234467Y-41212178D01*
X128123414Y-41480283D01*
X128066800Y-41764902D01*
X128066800Y-42055098D01*
X128123414Y-42339717D01*
X128234467Y-42607822D01*
X128395691Y-42849110D01*
X128600890Y-43054309D01*
X128842178Y-43215533D01*
X129110283Y-43326586D01*
X129394902Y-43383200D01*
X129685098Y-43383200D01*
X129969717Y-43326586D01*
X130237822Y-43215533D01*
X130479110Y-43054309D01*
X130684309Y-42849110D01*
X130845533Y-42607822D01*
X130956586Y-42339717D01*
X131013200Y-42055098D01*
X131013200Y-41764902D01*
X130956586Y-41480283D01*
X130845533Y-41212178D01*
X130684309Y-40970890D01*
X130479110Y-40765691D01*
X130291001Y-40640000D01*
X130479110Y-40514309D01*
X130684309Y-40309110D01*
X130845533Y-40067822D01*
X130956586Y-39799717D01*
X131013200Y-39515098D01*
X131013200Y-39224902D01*
X130956586Y-38940283D01*
X130845533Y-38672178D01*
X130684309Y-38430890D01*
X130479110Y-38225691D01*
X130291001Y-38100000D01*
X130479110Y-37974309D01*
X130684309Y-37769110D01*
X130845533Y-37527822D01*
X130956586Y-37259717D01*
X131013200Y-36975098D01*
X131013200Y-36684902D01*
X130956586Y-36400283D01*
X130845533Y-36132178D01*
X130684309Y-35890890D01*
X130479110Y-35685691D01*
X130291001Y-35560000D01*
X130479110Y-35434309D01*
X130684309Y-35229110D01*
X130845533Y-34987822D01*
X130956586Y-34719717D01*
X131013200Y-34435098D01*
X131013200Y-34144902D01*
X130956586Y-33860283D01*
X130845533Y-33592178D01*
X130684309Y-33350890D01*
X130479110Y-33145691D01*
X130291001Y-33020000D01*
X130479110Y-32894309D01*
X130684309Y-32689110D01*
X130845533Y-32447822D01*
X130956586Y-32179717D01*
X131013200Y-31895098D01*
X131013200Y-31604902D01*
X130956586Y-31320283D01*
X130845533Y-31052178D01*
X130684309Y-30810890D01*
X130479110Y-30605691D01*
X130291001Y-30480000D01*
X130479110Y-30354309D01*
X130684309Y-30149110D01*
X130845533Y-29907822D01*
X130956586Y-29639717D01*
X131013200Y-29355098D01*
X131013200Y-29064902D01*
X130956586Y-28780283D01*
X130845533Y-28512178D01*
X130684309Y-28270890D01*
X130479110Y-28065691D01*
X130291001Y-27940000D01*
X130479110Y-27814309D01*
X130684309Y-27609110D01*
X130845533Y-27367822D01*
X130956586Y-27099717D01*
X130971071Y-27026891D01*
X139528519Y-27026891D01*
X139625843Y-27301252D01*
X139774822Y-27551355D01*
X139969731Y-27767588D01*
X140203080Y-27941641D01*
X140465901Y-28066825D01*
X140613110Y-28111476D01*
X140843000Y-27990155D01*
X140843000Y-26797000D01*
X139649186Y-26797000D01*
X139528519Y-27026891D01*
X130971071Y-27026891D01*
X131013200Y-26815098D01*
X131013200Y-26524902D01*
X130971072Y-26313109D01*
X139528519Y-26313109D01*
X139649186Y-26543000D01*
X140843000Y-26543000D01*
X140843000Y-25349845D01*
X141097000Y-25349845D01*
X141097000Y-26543000D01*
X141117000Y-26543000D01*
X141117000Y-26797000D01*
X141097000Y-26797000D01*
X141097000Y-27990155D01*
X141326890Y-28111476D01*
X141474099Y-28066825D01*
X141736920Y-27941641D01*
X141970269Y-27767588D01*
X142165178Y-27551355D01*
X142234799Y-27434477D01*
X142269294Y-27499014D01*
X142454866Y-27725134D01*
X142680986Y-27910706D01*
X142938966Y-28048599D01*
X143218889Y-28133513D01*
X143437050Y-28155000D01*
X143582950Y-28155000D01*
X143801111Y-28133513D01*
X144081034Y-28048599D01*
X144339014Y-27910706D01*
X144565134Y-27725134D01*
X144750706Y-27499014D01*
X144780000Y-27444209D01*
X144809294Y-27499014D01*
X144994866Y-27725134D01*
X145220986Y-27910706D01*
X145478966Y-28048599D01*
X145758889Y-28133513D01*
X145977050Y-28155000D01*
X146122950Y-28155000D01*
X146341111Y-28133513D01*
X146621034Y-28048599D01*
X146879014Y-27910706D01*
X147105134Y-27725134D01*
X147290706Y-27499014D01*
X147320000Y-27444209D01*
X147349294Y-27499014D01*
X147534866Y-27725134D01*
X147760986Y-27910706D01*
X148018966Y-28048599D01*
X148298889Y-28133513D01*
X148517050Y-28155000D01*
X148662950Y-28155000D01*
X148881111Y-28133513D01*
X149161034Y-28048599D01*
X149419014Y-27910706D01*
X149645134Y-27725134D01*
X149830706Y-27499014D01*
X149860000Y-27444209D01*
X149889294Y-27499014D01*
X150074866Y-27725134D01*
X150300986Y-27910706D01*
X150558966Y-28048599D01*
X150838889Y-28133513D01*
X151057050Y-28155000D01*
X151202950Y-28155000D01*
X151421111Y-28133513D01*
X151701034Y-28048599D01*
X151959014Y-27910706D01*
X152185134Y-27725134D01*
X152370706Y-27499014D01*
X152400000Y-27444209D01*
X152429294Y-27499014D01*
X152614866Y-27725134D01*
X152840986Y-27910706D01*
X153098966Y-28048599D01*
X153378889Y-28133513D01*
X153597050Y-28155000D01*
X153742950Y-28155000D01*
X153961111Y-28133513D01*
X154241034Y-28048599D01*
X154499014Y-27910706D01*
X154725134Y-27725134D01*
X154910706Y-27499014D01*
X154940000Y-27444209D01*
X154969294Y-27499014D01*
X155154866Y-27725134D01*
X155380986Y-27910706D01*
X155638966Y-28048599D01*
X155918889Y-28133513D01*
X156137050Y-28155000D01*
X156282950Y-28155000D01*
X156501111Y-28133513D01*
X156781034Y-28048599D01*
X157039014Y-27910706D01*
X157265134Y-27725134D01*
X157289607Y-27695313D01*
X157310498Y-27764180D01*
X157369463Y-27874494D01*
X157448815Y-27971185D01*
X157545506Y-28050537D01*
X157655820Y-28109502D01*
X157775518Y-28145812D01*
X157900000Y-28158072D01*
X159600000Y-28158072D01*
X159724482Y-28145812D01*
X159844180Y-28109502D01*
X159954494Y-28050537D01*
X160051185Y-27971185D01*
X160130537Y-27874494D01*
X160189502Y-27764180D01*
X160225812Y-27644482D01*
X160238072Y-27520000D01*
X160238072Y-25820000D01*
X160225812Y-25695518D01*
X160189502Y-25575820D01*
X160130537Y-25465506D01*
X160051185Y-25368815D01*
X159954494Y-25289463D01*
X159844180Y-25230498D01*
X159724482Y-25194188D01*
X159600000Y-25181928D01*
X157900000Y-25181928D01*
X157775518Y-25194188D01*
X157655820Y-25230498D01*
X157545506Y-25289463D01*
X157448815Y-25368815D01*
X157369463Y-25465506D01*
X157310498Y-25575820D01*
X157289607Y-25644687D01*
X157265134Y-25614866D01*
X157039014Y-25429294D01*
X156781034Y-25291401D01*
X156501111Y-25206487D01*
X156282950Y-25185000D01*
X156137050Y-25185000D01*
X155918889Y-25206487D01*
X155638966Y-25291401D01*
X155380986Y-25429294D01*
X155154866Y-25614866D01*
X154969294Y-25840986D01*
X154940000Y-25895791D01*
X154910706Y-25840986D01*
X154725134Y-25614866D01*
X154499014Y-25429294D01*
X154241034Y-25291401D01*
X153961111Y-25206487D01*
X153742950Y-25185000D01*
X153597050Y-25185000D01*
X153378889Y-25206487D01*
X153098966Y-25291401D01*
X152840986Y-25429294D01*
X152614866Y-25614866D01*
X152429294Y-25840986D01*
X152400000Y-25895791D01*
X152370706Y-25840986D01*
X152185134Y-25614866D01*
X151959014Y-25429294D01*
X151701034Y-25291401D01*
X151421111Y-25206487D01*
X151202950Y-25185000D01*
X151057050Y-25185000D01*
X150838889Y-25206487D01*
X150558966Y-25291401D01*
X150300986Y-25429294D01*
X150074866Y-25614866D01*
X149889294Y-25840986D01*
X149860000Y-25895791D01*
X149830706Y-25840986D01*
X149645134Y-25614866D01*
X149419014Y-25429294D01*
X149161034Y-25291401D01*
X148881111Y-25206487D01*
X148662950Y-25185000D01*
X148517050Y-25185000D01*
X148298889Y-25206487D01*
X148018966Y-25291401D01*
X147760986Y-25429294D01*
X147534866Y-25614866D01*
X147349294Y-25840986D01*
X147320000Y-25895791D01*
X147290706Y-25840986D01*
X147105134Y-25614866D01*
X146879014Y-25429294D01*
X146621034Y-25291401D01*
X146341111Y-25206487D01*
X146122950Y-25185000D01*
X145977050Y-25185000D01*
X145758889Y-25206487D01*
X145478966Y-25291401D01*
X145220986Y-25429294D01*
X144994866Y-25614866D01*
X144809294Y-25840986D01*
X144780000Y-25895791D01*
X144750706Y-25840986D01*
X144565134Y-25614866D01*
X144339014Y-25429294D01*
X144081034Y-25291401D01*
X143801111Y-25206487D01*
X143582950Y-25185000D01*
X143437050Y-25185000D01*
X143218889Y-25206487D01*
X142938966Y-25291401D01*
X142680986Y-25429294D01*
X142454866Y-25614866D01*
X142269294Y-25840986D01*
X142234799Y-25905523D01*
X142165178Y-25788645D01*
X141970269Y-25572412D01*
X141736920Y-25398359D01*
X141474099Y-25273175D01*
X141326890Y-25228524D01*
X141097000Y-25349845D01*
X140843000Y-25349845D01*
X140613110Y-25228524D01*
X140465901Y-25273175D01*
X140203080Y-25398359D01*
X139969731Y-25572412D01*
X139774822Y-25788645D01*
X139625843Y-26038748D01*
X139528519Y-26313109D01*
X130971072Y-26313109D01*
X130956586Y-26240283D01*
X130845533Y-25972178D01*
X130684309Y-25730890D01*
X130479110Y-25525691D01*
X130237822Y-25364467D01*
X129969717Y-25253414D01*
X129685098Y-25196800D01*
X129394902Y-25196800D01*
X129110283Y-25253414D01*
X128842178Y-25364467D01*
X128600890Y-25525691D01*
X128395691Y-25730890D01*
X128234467Y-25972178D01*
X128123414Y-26240283D01*
X128066800Y-26524902D01*
X125661730Y-26524902D01*
X125816716Y-26494074D01*
X126014319Y-26412224D01*
X126192157Y-26293396D01*
X126343396Y-26142157D01*
X126462224Y-25964319D01*
X126544074Y-25766716D01*
X126585800Y-25556942D01*
X126585800Y-25343058D01*
X126544074Y-25133284D01*
X126462224Y-24935681D01*
X126343396Y-24757843D01*
X126192157Y-24606604D01*
X126014319Y-24487776D01*
X125816716Y-24405926D01*
X125799551Y-24402512D01*
X117266607Y-15869569D01*
X117236778Y-15833222D01*
X117091741Y-15714194D01*
X116926269Y-15625748D01*
X116746723Y-15571283D01*
X116606785Y-15557500D01*
X116560000Y-15552892D01*
X116513215Y-15557500D01*
X111967977Y-15557500D01*
X111965812Y-15535518D01*
X111929502Y-15415820D01*
X111870537Y-15305506D01*
X111791185Y-15208815D01*
X111694494Y-15129463D01*
X111584180Y-15070498D01*
X111464482Y-15034188D01*
X111340000Y-15021928D01*
X109640000Y-15021928D01*
X109515518Y-15034188D01*
X109395820Y-15070498D01*
X109285506Y-15129463D01*
X109188815Y-15208815D01*
X109109463Y-15305506D01*
X109050498Y-15415820D01*
X109014188Y-15535518D01*
X109012023Y-15557500D01*
X108396785Y-15557500D01*
X108350000Y-15552892D01*
X108303215Y-15557500D01*
X108163277Y-15571283D01*
X108073504Y-15598515D01*
X107983730Y-15625748D01*
X107900995Y-15669971D01*
X107818259Y-15714194D01*
X107673222Y-15833222D01*
X107643393Y-15869569D01*
X98270451Y-25242511D01*
X98253284Y-25245926D01*
X98055681Y-25327776D01*
X97877843Y-25446604D01*
X97726604Y-25597843D01*
X97607776Y-25775681D01*
X97525926Y-25973284D01*
X97484200Y-26183058D01*
X69240000Y-26183058D01*
X69240000Y-13360000D01*
X165710000Y-13360000D01*
X165710001Y-81890000D01*
X165710001Y-81890000D01*
G37*
X165710001Y-81890000D02*
X69240000Y-81890000D01*
X69240000Y-76556890D01*
X78568524Y-76556890D01*
X78613175Y-76704099D01*
X78738359Y-76966920D01*
X78912412Y-77200269D01*
X79128645Y-77395178D01*
X79378748Y-77544157D01*
X79653109Y-77641481D01*
X79883000Y-77520814D01*
X79883000Y-76327000D01*
X80137000Y-76327000D01*
X80137000Y-77520814D01*
X80366891Y-77641481D01*
X80641252Y-77544157D01*
X80891355Y-77395178D01*
X81107588Y-77200269D01*
X81281641Y-76966920D01*
X81406825Y-76704099D01*
X81451476Y-76556890D01*
X81330155Y-76327000D01*
X80137000Y-76327000D01*
X79883000Y-76327000D01*
X78689845Y-76327000D01*
X78568524Y-76556890D01*
X69240000Y-76556890D01*
X69240000Y-60960000D01*
X78517815Y-60960000D01*
X78546487Y-61251111D01*
X78631401Y-61531034D01*
X78769294Y-61789014D01*
X78954866Y-62015134D01*
X79180986Y-62200706D01*
X79235791Y-62230000D01*
X79180986Y-62259294D01*
X78954866Y-62444866D01*
X78769294Y-62670986D01*
X78631401Y-62928966D01*
X78546487Y-63208889D01*
X78517815Y-63500000D01*
X78546487Y-63791111D01*
X78631401Y-64071034D01*
X78769294Y-64329014D01*
X78954866Y-64555134D01*
X79180986Y-64740706D01*
X79235791Y-64770000D01*
X79180986Y-64799294D01*
X78954866Y-64984866D01*
X78769294Y-65210986D01*
X78631401Y-65468966D01*
X78546487Y-65748889D01*
X78517815Y-66040000D01*
X78546487Y-66331111D01*
X78631401Y-66611034D01*
X78769294Y-66869014D01*
X78954866Y-67095134D01*
X79180986Y-67280706D01*
X79235791Y-67310000D01*
X79180986Y-67339294D01*
X78954866Y-67524866D01*
X78769294Y-67750986D01*
X78631401Y-68008966D01*
X78546487Y-68288889D01*
X78517815Y-68580000D01*
X78546487Y-68871111D01*
X78631401Y-69151034D01*
X78769294Y-69409014D01*
X78954866Y-69635134D01*
X79180986Y-69820706D01*
X79235791Y-69850000D01*
X79180986Y-69879294D01*
X78954866Y-70064866D01*
X78769294Y-70290986D01*
X78631401Y-70548966D01*
X78546487Y-70828889D01*
X78517815Y-71120000D01*
X78546487Y-71411111D01*
X78631401Y-71691034D01*
X78769294Y-71949014D01*
X78954866Y-72175134D01*
X79180986Y-72360706D01*
X79235791Y-72390000D01*
X79180986Y-72419294D01*
X78954866Y-72604866D01*
X78769294Y-72830986D01*
X78631401Y-73088966D01*
X78546487Y-73368889D01*
X78517815Y-73660000D01*
X78546487Y-73951111D01*
X78631401Y-74231034D01*
X78769294Y-74489014D01*
X78954866Y-74715134D01*
X79180986Y-74900706D01*
X79245523Y-74935201D01*
X79128645Y-75004822D01*
X78912412Y-75199731D01*
X78738359Y-75433080D01*
X78613175Y-75695901D01*
X78568524Y-75843110D01*
X78689845Y-76073000D01*
X79883000Y-76073000D01*
X79883000Y-76053000D01*
X80137000Y-76053000D01*
X80137000Y-76073000D01*
X81330155Y-76073000D01*
X81451476Y-75843110D01*
X81406825Y-75695901D01*
X81281641Y-75433080D01*
X81107588Y-75199731D01*
X80891355Y-75004822D01*
X80774477Y-74935201D01*
X80839014Y-74900706D01*
X81065134Y-74715134D01*
X81250706Y-74489014D01*
X81388599Y-74231034D01*
X81473513Y-73951111D01*
X81502185Y-73660000D01*
X81473513Y-73368889D01*
X81388599Y-73088966D01*
X81250706Y-72830986D01*
X81065134Y-72604866D01*
X80839014Y-72419294D01*
X80784209Y-72390000D01*
X80839014Y-72360706D01*
X81065134Y-72175134D01*
X81250706Y-71949014D01*
X81388599Y-71691034D01*
X81473513Y-71411111D01*
X81502185Y-71120000D01*
X81473513Y-70828889D01*
X81388599Y-70548966D01*
X81250706Y-70290986D01*
X81065134Y-70064866D01*
X80839014Y-69879294D01*
X80784209Y-69850000D01*
X80839014Y-69820706D01*
X81065134Y-69635134D01*
X81250706Y-69409014D01*
X81388599Y-69151034D01*
X81473513Y-68871111D01*
X81502185Y-68580000D01*
X81473513Y-68288889D01*
X81388599Y-68008966D01*
X81250706Y-67750986D01*
X81065134Y-67524866D01*
X80839014Y-67339294D01*
X80784209Y-67310000D01*
X80839014Y-67280706D01*
X81065134Y-67095134D01*
X81250706Y-66869014D01*
X81388599Y-66611034D01*
X81473513Y-66331111D01*
X81502185Y-66040000D01*
X81473513Y-65748889D01*
X81388599Y-65468966D01*
X81250706Y-65210986D01*
X81065134Y-64984866D01*
X80839014Y-64799294D01*
X80784209Y-64770000D01*
X80839014Y-64740706D01*
X81065134Y-64555134D01*
X81250706Y-64329014D01*
X81388599Y-64071034D01*
X81473513Y-63791111D01*
X81502185Y-63500000D01*
X81473513Y-63208889D01*
X81388599Y-62928966D01*
X81250706Y-62670986D01*
X81065134Y-62444866D01*
X80839014Y-62259294D01*
X80784209Y-62230000D01*
X80839014Y-62200706D01*
X81065134Y-62015134D01*
X81250706Y-61789014D01*
X81388599Y-61531034D01*
X81427420Y-61403058D01*
X85784200Y-61403058D01*
X85784200Y-61616942D01*
X85825926Y-61826716D01*
X85907776Y-62024319D01*
X86026604Y-62202157D01*
X86177843Y-62353396D01*
X86355681Y-62472224D01*
X86553284Y-62554074D01*
X86763058Y-62595800D01*
X86976942Y-62595800D01*
X87186716Y-62554074D01*
X87384319Y-62472224D01*
X87562157Y-62353396D01*
X87713396Y-62202157D01*
X87832224Y-62024319D01*
X87914074Y-61826716D01*
X87955800Y-61616942D01*
X87955800Y-61403058D01*
X87914074Y-61193284D01*
X87861502Y-61066364D01*
X90361952Y-58565914D01*
X90395926Y-58736716D01*
X90477776Y-58934319D01*
X90596604Y-59112157D01*
X90747843Y-59263396D01*
X90925681Y-59382224D01*
X91123284Y-59464074D01*
X91333058Y-59505800D01*
X91546942Y-59505800D01*
X91756716Y-59464074D01*
X91954319Y-59382224D01*
X92132157Y-59263396D01*
X92137353Y-59258200D01*
X110763595Y-59258200D01*
X110715926Y-59373284D01*
X110674200Y-59583058D01*
X110674200Y-59796942D01*
X110715926Y-60006716D01*
X110797776Y-60204319D01*
X110916604Y-60382157D01*
X111067843Y-60533396D01*
X111245681Y-60652224D01*
X111443284Y-60734074D01*
X111653058Y-60775800D01*
X111660406Y-60775800D01*
X111918192Y-61033586D01*
X111944436Y-61065564D01*
X112072068Y-61170309D01*
X112217683Y-61248142D01*
X112375684Y-61296071D01*
X112498830Y-61308200D01*
X112498837Y-61308200D01*
X112540000Y-61312254D01*
X112581163Y-61308200D01*
X113725750Y-61308200D01*
X113718929Y-61330685D01*
X113702746Y-61495000D01*
X113706801Y-61536172D01*
X113706801Y-62327855D01*
X113592038Y-62422038D01*
X113481595Y-62556613D01*
X113399528Y-62710149D01*
X113348992Y-62876745D01*
X113331928Y-63049999D01*
X113331928Y-63950001D01*
X113348992Y-64123255D01*
X113399528Y-64289851D01*
X113481595Y-64443387D01*
X113592038Y-64577962D01*
X113726613Y-64688405D01*
X113880149Y-64770472D01*
X114046745Y-64821008D01*
X114219999Y-64838072D01*
X114870001Y-64838072D01*
X115043255Y-64821008D01*
X115209851Y-64770472D01*
X115363387Y-64688405D01*
X115497962Y-64577962D01*
X115503342Y-64571406D01*
X115568815Y-64651185D01*
X115665506Y-64730537D01*
X115775820Y-64789502D01*
X115895518Y-64825812D01*
X116020000Y-64838072D01*
X116309250Y-64835000D01*
X116468000Y-64676250D01*
X116468000Y-63627000D01*
X116722000Y-63627000D01*
X116722000Y-64676250D01*
X116880750Y-64835000D01*
X117170000Y-64838072D01*
X117294482Y-64825812D01*
X117414180Y-64789502D01*
X117524494Y-64730537D01*
X117621185Y-64651185D01*
X117700537Y-64554494D01*
X117759502Y-64444180D01*
X117795812Y-64324482D01*
X117808072Y-64200000D01*
X117805000Y-63785750D01*
X117646250Y-63627000D01*
X116722000Y-63627000D01*
X116468000Y-63627000D01*
X116448000Y-63627000D01*
X116448000Y-63373000D01*
X116468000Y-63373000D01*
X116468000Y-62323750D01*
X116722000Y-62323750D01*
X116722000Y-63373000D01*
X117646250Y-63373000D01*
X117805000Y-63214250D01*
X117808072Y-62800000D01*
X117795812Y-62675518D01*
X117759502Y-62555820D01*
X117700537Y-62445506D01*
X117621185Y-62348815D01*
X117524494Y-62269463D01*
X117414180Y-62210498D01*
X117294482Y-62174188D01*
X117170000Y-62161928D01*
X116880750Y-62165000D01*
X116722000Y-62323750D01*
X116468000Y-62323750D01*
X116309250Y-62165000D01*
X116020000Y-62161928D01*
X115895518Y-62174188D01*
X115775820Y-62210498D01*
X115665506Y-62269463D01*
X115568815Y-62348815D01*
X115503342Y-62428594D01*
X115497962Y-62422038D01*
X115383200Y-62327855D01*
X115383200Y-61842193D01*
X115542321Y-61683072D01*
X116020001Y-61683072D01*
X116193255Y-61666008D01*
X116359851Y-61615472D01*
X116513387Y-61533405D01*
X116647962Y-61422962D01*
X116758405Y-61288387D01*
X116840472Y-61134851D01*
X116891008Y-60968255D01*
X116908072Y-60795001D01*
X116908072Y-60144999D01*
X116891008Y-59971745D01*
X116840472Y-59805149D01*
X116778924Y-59690000D01*
X142017815Y-59690000D01*
X142046487Y-59981111D01*
X142131401Y-60261034D01*
X142269294Y-60519014D01*
X142454866Y-60745134D01*
X142680986Y-60930706D01*
X142735791Y-60960000D01*
X142680986Y-60989294D01*
X142454866Y-61174866D01*
X142269294Y-61400986D01*
X142131401Y-61658966D01*
X142046487Y-61938889D01*
X142017815Y-62230000D01*
X142046487Y-62521111D01*
X142131401Y-62801034D01*
X142269294Y-63059014D01*
X142454866Y-63285134D01*
X142680986Y-63470706D01*
X142735791Y-63500000D01*
X142680986Y-63529294D01*
X142454866Y-63714866D01*
X142269294Y-63940986D01*
X142131401Y-64198966D01*
X142046487Y-64478889D01*
X142017815Y-64770000D01*
X142046487Y-65061111D01*
X142131401Y-65341034D01*
X142269294Y-65599014D01*
X142454866Y-65825134D01*
X142680986Y-66010706D01*
X142735791Y-66040000D01*
X142680986Y-66069294D01*
X142454866Y-66254866D01*
X142269294Y-66480986D01*
X142131401Y-66738966D01*
X142046487Y-67018889D01*
X142017815Y-67310000D01*
X142046487Y-67601111D01*
X142131401Y-67881034D01*
X142269294Y-68139014D01*
X142454866Y-68365134D01*
X142680986Y-68550706D01*
X142735791Y-68580000D01*
X142680986Y-68609294D01*
X142454866Y-68794866D01*
X142269294Y-69020986D01*
X142131401Y-69278966D01*
X142046487Y-69558889D01*
X142017815Y-69850000D01*
X142046487Y-70141111D01*
X142131401Y-70421034D01*
X142269294Y-70679014D01*
X142454866Y-70905134D01*
X142680986Y-71090706D01*
X142735791Y-71120000D01*
X142680986Y-71149294D01*
X142454866Y-71334866D01*
X142269294Y-71560986D01*
X142131401Y-71818966D01*
X142046487Y-72098889D01*
X142017815Y-72390000D01*
X142046487Y-72681111D01*
X142131401Y-72961034D01*
X142269294Y-73219014D01*
X142454866Y-73445134D01*
X142484687Y-73469607D01*
X142415820Y-73490498D01*
X142305506Y-73549463D01*
X142208815Y-73628815D01*
X142129463Y-73725506D01*
X142070498Y-73835820D01*
X142034188Y-73955518D01*
X142021928Y-74080000D01*
X142021928Y-75780000D01*
X142034188Y-75904482D01*
X142070498Y-76024180D01*
X142129463Y-76134494D01*
X142208815Y-76231185D01*
X142305506Y-76310537D01*
X142415820Y-76369502D01*
X142535518Y-76405812D01*
X142660000Y-76418072D01*
X144360000Y-76418072D01*
X144484482Y-76405812D01*
X144604180Y-76369502D01*
X144714494Y-76310537D01*
X144811185Y-76231185D01*
X144890537Y-76134494D01*
X144949502Y-76024180D01*
X144985812Y-75904482D01*
X144998072Y-75780000D01*
X144998072Y-74080000D01*
X144985812Y-73955518D01*
X144949502Y-73835820D01*
X144890537Y-73725506D01*
X144811185Y-73628815D01*
X144714494Y-73549463D01*
X144604180Y-73490498D01*
X144535313Y-73469607D01*
X144565134Y-73445134D01*
X144750706Y-73219014D01*
X144888599Y-72961034D01*
X144973513Y-72681111D01*
X145002185Y-72390000D01*
X144973513Y-72098889D01*
X144888599Y-71818966D01*
X144750706Y-71560986D01*
X144565134Y-71334866D01*
X144339014Y-71149294D01*
X144284209Y-71120000D01*
X144339014Y-71090706D01*
X144565134Y-70905134D01*
X144750706Y-70679014D01*
X144888599Y-70421034D01*
X144973513Y-70141111D01*
X145002185Y-69850000D01*
X144973513Y-69558889D01*
X144888599Y-69278966D01*
X144750706Y-69020986D01*
X144565134Y-68794866D01*
X144339014Y-68609294D01*
X144284209Y-68580000D01*
X144339014Y-68550706D01*
X144565134Y-68365134D01*
X144750706Y-68139014D01*
X144888599Y-67881034D01*
X144973513Y-67601111D01*
X145002185Y-67310000D01*
X144973513Y-67018889D01*
X144888599Y-66738966D01*
X144750706Y-66480986D01*
X144565134Y-66254866D01*
X144339014Y-66069294D01*
X144284209Y-66040000D01*
X144339014Y-66010706D01*
X144565134Y-65825134D01*
X144750706Y-65599014D01*
X144888599Y-65341034D01*
X144973513Y-65061111D01*
X145002185Y-64770000D01*
X144973513Y-64478889D01*
X144888599Y-64198966D01*
X144750706Y-63940986D01*
X144565134Y-63714866D01*
X144339014Y-63529294D01*
X144284209Y-63500000D01*
X144339014Y-63470706D01*
X144565134Y-63285134D01*
X144750706Y-63059014D01*
X144888599Y-62801034D01*
X144973513Y-62521111D01*
X145002185Y-62230000D01*
X144973513Y-61938889D01*
X144888599Y-61658966D01*
X144750706Y-61400986D01*
X144565134Y-61174866D01*
X144339014Y-60989294D01*
X144284209Y-60960000D01*
X144339014Y-60930706D01*
X144565134Y-60745134D01*
X144750706Y-60519014D01*
X144888599Y-60261034D01*
X144973513Y-59981111D01*
X145002185Y-59690000D01*
X144973513Y-59398889D01*
X144888599Y-59118966D01*
X144750706Y-58860986D01*
X144565134Y-58634866D01*
X144339014Y-58449294D01*
X144274477Y-58414799D01*
X144391355Y-58345178D01*
X144607588Y-58150269D01*
X144781641Y-57916920D01*
X144906825Y-57654099D01*
X144951476Y-57506890D01*
X144830155Y-57277000D01*
X143637000Y-57277000D01*
X143637000Y-57297000D01*
X143383000Y-57297000D01*
X143383000Y-57277000D01*
X142189845Y-57277000D01*
X142068524Y-57506890D01*
X142113175Y-57654099D01*
X142238359Y-57916920D01*
X142412412Y-58150269D01*
X142628645Y-58345178D01*
X142745523Y-58414799D01*
X142680986Y-58449294D01*
X142454866Y-58634866D01*
X142269294Y-58860986D01*
X142131401Y-59118966D01*
X142046487Y-59398889D01*
X142017815Y-59690000D01*
X116778924Y-59690000D01*
X116758405Y-59651613D01*
X116647962Y-59517038D01*
X116560184Y-59445000D01*
X116647962Y-59372962D01*
X116742145Y-59258200D01*
X133181310Y-59258200D01*
X133222473Y-59262254D01*
X133263636Y-59258200D01*
X133263643Y-59258200D01*
X133386789Y-59246071D01*
X133544790Y-59198142D01*
X133690405Y-59120309D01*
X133818037Y-59015564D01*
X133844284Y-58983582D01*
X136034756Y-56793110D01*
X142068524Y-56793110D01*
X142189845Y-57023000D01*
X143383000Y-57023000D01*
X143383000Y-55829186D01*
X143637000Y-55829186D01*
X143637000Y-57023000D01*
X144830155Y-57023000D01*
X144951476Y-56793110D01*
X144906825Y-56645901D01*
X144781641Y-56383080D01*
X144607588Y-56149731D01*
X144391355Y-55954822D01*
X144141252Y-55805843D01*
X143866891Y-55708519D01*
X143637000Y-55829186D01*
X143383000Y-55829186D01*
X143153109Y-55708519D01*
X142878748Y-55805843D01*
X142628645Y-55954822D01*
X142412412Y-56149731D01*
X142238359Y-56383080D01*
X142113175Y-56645901D01*
X142068524Y-56793110D01*
X136034756Y-56793110D01*
X137656364Y-55171502D01*
X137783284Y-55224074D01*
X137993058Y-55265800D01*
X138206942Y-55265800D01*
X138416716Y-55224074D01*
X138614319Y-55142224D01*
X138792157Y-55023396D01*
X138943396Y-54872157D01*
X139062224Y-54694319D01*
X139144074Y-54496716D01*
X139185800Y-54286942D01*
X139185800Y-54073058D01*
X139144074Y-53863284D01*
X139062224Y-53665681D01*
X138943396Y-53487843D01*
X138792157Y-53336604D01*
X138614319Y-53217776D01*
X138416716Y-53135926D01*
X138206942Y-53094200D01*
X137993058Y-53094200D01*
X137783284Y-53135926D01*
X137585681Y-53217776D01*
X137407843Y-53336604D01*
X137400609Y-53343838D01*
X137298157Y-53353929D01*
X137140156Y-53401858D01*
X136994541Y-53479691D01*
X136866909Y-53584436D01*
X136840662Y-53616418D01*
X132875280Y-57581800D01*
X116742145Y-57581800D01*
X116647962Y-57467038D01*
X116513387Y-57356595D01*
X116359851Y-57274528D01*
X116193255Y-57223992D01*
X116020001Y-57206928D01*
X115119999Y-57206928D01*
X114946745Y-57223992D01*
X114780149Y-57274528D01*
X114626613Y-57356595D01*
X114492038Y-57467038D01*
X114397855Y-57581800D01*
X92137353Y-57581800D01*
X92132157Y-57576604D01*
X91954319Y-57457776D01*
X91756716Y-57375926D01*
X91585914Y-57341952D01*
X95587866Y-53340000D01*
X106457815Y-53340000D01*
X106486487Y-53631111D01*
X106571401Y-53911034D01*
X106709294Y-54169014D01*
X106894866Y-54395134D01*
X107120986Y-54580706D01*
X107378966Y-54718599D01*
X107658889Y-54803513D01*
X107877050Y-54825000D01*
X108022950Y-54825000D01*
X108241111Y-54803513D01*
X108521034Y-54718599D01*
X108779014Y-54580706D01*
X109005134Y-54395134D01*
X109190706Y-54169014D01*
X109220000Y-54114209D01*
X109249294Y-54169014D01*
X109434866Y-54395134D01*
X109660986Y-54580706D01*
X109918966Y-54718599D01*
X110198889Y-54803513D01*
X110417050Y-54825000D01*
X110562950Y-54825000D01*
X110781111Y-54803513D01*
X111061034Y-54718599D01*
X111319014Y-54580706D01*
X111545134Y-54395134D01*
X111730706Y-54169014D01*
X111760000Y-54114209D01*
X111789294Y-54169014D01*
X111974866Y-54395134D01*
X112200986Y-54580706D01*
X112458966Y-54718599D01*
X112738889Y-54803513D01*
X112957050Y-54825000D01*
X113102950Y-54825000D01*
X113321111Y-54803513D01*
X113601034Y-54718599D01*
X113859014Y-54580706D01*
X114085134Y-54395134D01*
X114270706Y-54169014D01*
X114300000Y-54114209D01*
X114329294Y-54169014D01*
X114514866Y-54395134D01*
X114740986Y-54580706D01*
X114998966Y-54718599D01*
X115278889Y-54803513D01*
X115497050Y-54825000D01*
X115642950Y-54825000D01*
X115861111Y-54803513D01*
X116141034Y-54718599D01*
X116399014Y-54580706D01*
X116625134Y-54395134D01*
X116810706Y-54169014D01*
X116845201Y-54104477D01*
X116914822Y-54221355D01*
X117109731Y-54437588D01*
X117343080Y-54611641D01*
X117605901Y-54736825D01*
X117753110Y-54781476D01*
X117983000Y-54660155D01*
X117983000Y-53467000D01*
X117963000Y-53467000D01*
X117963000Y-53213000D01*
X117983000Y-53213000D01*
X117983000Y-52019845D01*
X118237000Y-52019845D01*
X118237000Y-53213000D01*
X118257000Y-53213000D01*
X118257000Y-53467000D01*
X118237000Y-53467000D01*
X118237000Y-54660155D01*
X118466890Y-54781476D01*
X118614099Y-54736825D01*
X118876920Y-54611641D01*
X119110269Y-54437588D01*
X119186034Y-54353534D01*
X119210498Y-54434180D01*
X119269463Y-54544494D01*
X119348815Y-54641185D01*
X119445506Y-54720537D01*
X119555820Y-54779502D01*
X119675518Y-54815812D01*
X119800000Y-54828072D01*
X121500000Y-54828072D01*
X121624482Y-54815812D01*
X121744180Y-54779502D01*
X121854494Y-54720537D01*
X121951185Y-54641185D01*
X122030537Y-54544494D01*
X122089502Y-54434180D01*
X122125812Y-54314482D01*
X122138072Y-54190000D01*
X122138072Y-53343058D01*
X126954200Y-53343058D01*
X126954200Y-53556942D01*
X126995926Y-53766716D01*
X127077776Y-53964319D01*
X127196604Y-54142157D01*
X127347843Y-54293396D01*
X127525681Y-54412224D01*
X127723284Y-54494074D01*
X127933058Y-54535800D01*
X128146942Y-54535800D01*
X128356716Y-54494074D01*
X128554319Y-54412224D01*
X128732157Y-54293396D01*
X128883396Y-54142157D01*
X129002224Y-53964319D01*
X129084074Y-53766716D01*
X129125800Y-53556942D01*
X129125800Y-53549593D01*
X130303588Y-52371806D01*
X130335564Y-52345564D01*
X130440309Y-52217932D01*
X130518142Y-52072317D01*
X130566071Y-51914316D01*
X130578200Y-51791170D01*
X130578200Y-51791164D01*
X130582254Y-51750001D01*
X130578200Y-51708838D01*
X130578200Y-46057353D01*
X130583396Y-46052157D01*
X130702224Y-45874319D01*
X130784074Y-45676716D01*
X130825800Y-45466942D01*
X130825800Y-45253058D01*
X130784074Y-45043284D01*
X130702224Y-44845681D01*
X130583396Y-44667843D01*
X130432157Y-44516604D01*
X130254319Y-44397776D01*
X130056716Y-44315926D01*
X129846942Y-44274200D01*
X129633058Y-44274200D01*
X129423284Y-44315926D01*
X129225681Y-44397776D01*
X129047843Y-44516604D01*
X128896604Y-44667843D01*
X128777776Y-44845681D01*
X128695926Y-45043284D01*
X128654200Y-45253058D01*
X128654200Y-45466942D01*
X128695926Y-45676716D01*
X128777776Y-45874319D01*
X128896604Y-46052157D01*
X128901800Y-46057353D01*
X128901801Y-51402805D01*
X127940407Y-52364200D01*
X127933058Y-52364200D01*
X127723284Y-52405926D01*
X127525681Y-52487776D01*
X127347843Y-52606604D01*
X127196604Y-52757843D01*
X127077776Y-52935681D01*
X126995926Y-53133284D01*
X126954200Y-53343058D01*
X122138072Y-53343058D01*
X122138072Y-52490000D01*
X122125812Y-52365518D01*
X122089502Y-52245820D01*
X122030537Y-52135506D01*
X121951185Y-52038815D01*
X121854494Y-51959463D01*
X121744180Y-51900498D01*
X121624482Y-51864188D01*
X121500000Y-51851928D01*
X119800000Y-51851928D01*
X119675518Y-51864188D01*
X119555820Y-51900498D01*
X119445506Y-51959463D01*
X119348815Y-52038815D01*
X119269463Y-52135506D01*
X119210498Y-52245820D01*
X119186034Y-52326466D01*
X119110269Y-52242412D01*
X118876920Y-52068359D01*
X118614099Y-51943175D01*
X118466890Y-51898524D01*
X118237000Y-52019845D01*
X117983000Y-52019845D01*
X117753110Y-51898524D01*
X117605901Y-51943175D01*
X117343080Y-52068359D01*
X117109731Y-52242412D01*
X116914822Y-52458645D01*
X116845201Y-52575523D01*
X116810706Y-52510986D01*
X116625134Y-52284866D01*
X116399014Y-52099294D01*
X116141034Y-51961401D01*
X115861111Y-51876487D01*
X115642950Y-51855000D01*
X115497050Y-51855000D01*
X115278889Y-51876487D01*
X114998966Y-51961401D01*
X114740986Y-52099294D01*
X114514866Y-52284866D01*
X114329294Y-52510986D01*
X114300000Y-52565791D01*
X114270706Y-52510986D01*
X114085134Y-52284866D01*
X113859014Y-52099294D01*
X113601034Y-51961401D01*
X113321111Y-51876487D01*
X113102950Y-51855000D01*
X112957050Y-51855000D01*
X112738889Y-51876487D01*
X112458966Y-51961401D01*
X112200986Y-52099294D01*
X111974866Y-52284866D01*
X111789294Y-52510986D01*
X111760000Y-52565791D01*
X111730706Y-52510986D01*
X111545134Y-52284866D01*
X111319014Y-52099294D01*
X111061034Y-51961401D01*
X110781111Y-51876487D01*
X110562950Y-51855000D01*
X110417050Y-51855000D01*
X110198889Y-51876487D01*
X109918966Y-51961401D01*
X109660986Y-52099294D01*
X109434866Y-52284866D01*
X109249294Y-52510986D01*
X109220000Y-52565791D01*
X109190706Y-52510986D01*
X109005134Y-52284866D01*
X108779014Y-52099294D01*
X108521034Y-51961401D01*
X108241111Y-51876487D01*
X108022950Y-51855000D01*
X107877050Y-51855000D01*
X107658889Y-51876487D01*
X107378966Y-51961401D01*
X107120986Y-52099294D01*
X106894866Y-52284866D01*
X106709294Y-52510986D01*
X106571401Y-52768966D01*
X106486487Y-53048889D01*
X106457815Y-53340000D01*
X95587866Y-53340000D01*
X98149667Y-50778200D01*
X125522647Y-50778200D01*
X125527843Y-50783396D01*
X125705681Y-50902224D01*
X125903284Y-50984074D01*
X126113058Y-51025800D01*
X126326942Y-51025800D01*
X126536716Y-50984074D01*
X126734319Y-50902224D01*
X126912157Y-50783396D01*
X127063396Y-50632157D01*
X127182224Y-50454319D01*
X127264074Y-50256716D01*
X127305800Y-50046942D01*
X127305800Y-49833058D01*
X127264074Y-49623284D01*
X127182224Y-49425681D01*
X127063396Y-49247843D01*
X126912157Y-49096604D01*
X126734319Y-48977776D01*
X126536716Y-48895926D01*
X126326942Y-48854200D01*
X126113058Y-48854200D01*
X125903284Y-48895926D01*
X125705681Y-48977776D01*
X125527843Y-49096604D01*
X125522647Y-49101800D01*
X97843636Y-49101800D01*
X97802473Y-49097746D01*
X97761310Y-49101800D01*
X97761303Y-49101800D01*
X97638157Y-49113929D01*
X97480156Y-49161858D01*
X97334541Y-49239691D01*
X97206909Y-49344436D01*
X97180667Y-49376412D01*
X86306413Y-60250667D01*
X86274437Y-60276909D01*
X86248195Y-60308885D01*
X86248192Y-60308888D01*
X86169691Y-60404542D01*
X86091858Y-60550157D01*
X86066329Y-60634315D01*
X86043929Y-60708157D01*
X86033838Y-60810609D01*
X86026604Y-60817843D01*
X85907776Y-60995681D01*
X85825926Y-61193284D01*
X85784200Y-61403058D01*
X81427420Y-61403058D01*
X81473513Y-61251111D01*
X81502185Y-60960000D01*
X81473513Y-60668889D01*
X81388599Y-60388966D01*
X81250706Y-60130986D01*
X81065134Y-59904866D01*
X81035313Y-59880393D01*
X81104180Y-59859502D01*
X81214494Y-59800537D01*
X81311185Y-59721185D01*
X81390537Y-59624494D01*
X81449502Y-59514180D01*
X81485812Y-59394482D01*
X81498072Y-59270000D01*
X81498072Y-57570000D01*
X81485812Y-57445518D01*
X81449502Y-57325820D01*
X81390537Y-57215506D01*
X81311185Y-57118815D01*
X81214494Y-57039463D01*
X81104180Y-56980498D01*
X80984482Y-56944188D01*
X80860000Y-56931928D01*
X79160000Y-56931928D01*
X79035518Y-56944188D01*
X78915820Y-56980498D01*
X78805506Y-57039463D01*
X78708815Y-57118815D01*
X78629463Y-57215506D01*
X78570498Y-57325820D01*
X78534188Y-57445518D01*
X78521928Y-57570000D01*
X78521928Y-59270000D01*
X78534188Y-59394482D01*
X78570498Y-59514180D01*
X78629463Y-59624494D01*
X78708815Y-59721185D01*
X78805506Y-59800537D01*
X78915820Y-59859502D01*
X78984687Y-59880393D01*
X78954866Y-59904866D01*
X78769294Y-60130986D01*
X78631401Y-60388966D01*
X78546487Y-60668889D01*
X78517815Y-60960000D01*
X69240000Y-60960000D01*
X69240000Y-53243058D01*
X75134200Y-53243058D01*
X75134200Y-53456942D01*
X75175926Y-53666716D01*
X75257776Y-53864319D01*
X75376604Y-54042157D01*
X75527843Y-54193396D01*
X75705681Y-54312224D01*
X75903284Y-54394074D01*
X76113058Y-54435800D01*
X76326942Y-54435800D01*
X76536716Y-54394074D01*
X76734319Y-54312224D01*
X76912157Y-54193396D01*
X76917353Y-54188200D01*
X77021583Y-54188200D01*
X77062746Y-54192254D01*
X77103909Y-54188200D01*
X77103916Y-54188200D01*
X77227062Y-54176071D01*
X77385063Y-54128142D01*
X77530678Y-54050309D01*
X77658310Y-53945564D01*
X77684557Y-53913582D01*
X84995081Y-46603058D01*
X90994200Y-46603058D01*
X90994200Y-46816942D01*
X91035926Y-47026716D01*
X91117776Y-47224319D01*
X91236604Y-47402157D01*
X91387843Y-47553396D01*
X91565681Y-47672224D01*
X91763284Y-47754074D01*
X91973058Y-47795800D01*
X92186942Y-47795800D01*
X92396716Y-47754074D01*
X92594319Y-47672224D01*
X92675171Y-47618200D01*
X98472647Y-47618200D01*
X98477843Y-47623396D01*
X98655681Y-47742224D01*
X98853284Y-47824074D01*
X99063058Y-47865800D01*
X99276942Y-47865800D01*
X99486716Y-47824074D01*
X99684319Y-47742224D01*
X99862157Y-47623396D01*
X100013396Y-47472157D01*
X100132224Y-47294319D01*
X100214074Y-47096716D01*
X100255800Y-46886942D01*
X100255800Y-46673058D01*
X100214074Y-46463284D01*
X100132224Y-46265681D01*
X100013396Y-46087843D01*
X99862157Y-45936604D01*
X99684319Y-45817776D01*
X99486716Y-45735926D01*
X99276942Y-45694200D01*
X99063058Y-45694200D01*
X98853284Y-45735926D01*
X98655681Y-45817776D01*
X98477843Y-45936604D01*
X98472647Y-45941800D01*
X92847353Y-45941800D01*
X92772157Y-45866604D01*
X92594319Y-45747776D01*
X92396716Y-45665926D01*
X92186942Y-45624200D01*
X91973058Y-45624200D01*
X91763284Y-45665926D01*
X91565681Y-45747776D01*
X91387843Y-45866604D01*
X91236604Y-46017843D01*
X91117776Y-46195681D01*
X91035926Y-46393284D01*
X90994200Y-46603058D01*
X84995081Y-46603058D01*
X89763589Y-41834551D01*
X89795564Y-41808310D01*
X89832410Y-41763414D01*
X89900309Y-41680678D01*
X89954598Y-41579110D01*
X89978142Y-41535063D01*
X90026071Y-41377062D01*
X90038200Y-41253916D01*
X90038200Y-41253907D01*
X90042254Y-41212747D01*
X90038200Y-41171587D01*
X90038200Y-38827353D01*
X90043396Y-38822157D01*
X90162224Y-38644319D01*
X90244074Y-38446716D01*
X90285800Y-38236942D01*
X90285800Y-38023058D01*
X90244074Y-37813284D01*
X90162224Y-37615681D01*
X90043396Y-37437843D01*
X89892157Y-37286604D01*
X89714319Y-37167776D01*
X89516716Y-37085926D01*
X89306942Y-37044200D01*
X89093058Y-37044200D01*
X88883284Y-37085926D01*
X88685681Y-37167776D01*
X88507843Y-37286604D01*
X88356604Y-37437843D01*
X88237776Y-37615681D01*
X88155926Y-37813284D01*
X88114200Y-38023058D01*
X88114200Y-38236942D01*
X88155926Y-38446716D01*
X88237776Y-38644319D01*
X88356604Y-38822157D01*
X88361801Y-38827354D01*
X88361800Y-40865552D01*
X86494530Y-42732822D01*
X86429754Y-42550372D01*
X86357844Y-42415838D01*
X86109975Y-42339630D01*
X85269605Y-43180000D01*
X85283748Y-43194143D01*
X85104143Y-43373748D01*
X85090000Y-43359605D01*
X84249630Y-44199975D01*
X84325838Y-44447844D01*
X84587865Y-44572563D01*
X84641272Y-44586081D01*
X76797416Y-52429937D01*
X76734319Y-52387776D01*
X76536716Y-52305926D01*
X76326942Y-52264200D01*
X76113058Y-52264200D01*
X75903284Y-52305926D01*
X75705681Y-52387776D01*
X75527843Y-52506604D01*
X75376604Y-52657843D01*
X75257776Y-52835681D01*
X75175926Y-53033284D01*
X75134200Y-53243058D01*
X69240000Y-53243058D01*
X69240000Y-43248999D01*
X83611281Y-43248999D01*
X83653155Y-43536157D01*
X83750246Y-43809628D01*
X83822156Y-43944162D01*
X84070025Y-44020370D01*
X84910395Y-43180000D01*
X84070025Y-42339630D01*
X83822156Y-42415838D01*
X83697437Y-42677865D01*
X83626232Y-42959189D01*
X83611281Y-43248999D01*
X69240000Y-43248999D01*
X69240000Y-27101800D01*
X83613728Y-27101800D01*
X83613728Y-28778200D01*
X83625988Y-28902682D01*
X83662298Y-29022380D01*
X83721263Y-29132694D01*
X83800615Y-29229385D01*
X83897306Y-29308737D01*
X84007620Y-29367702D01*
X84092984Y-29393597D01*
X83945691Y-29540890D01*
X83784467Y-29782178D01*
X83673414Y-30050283D01*
X83616800Y-30334902D01*
X83616800Y-30625098D01*
X83673414Y-30909717D01*
X83784467Y-31177822D01*
X83945691Y-31419110D01*
X84150890Y-31624309D01*
X84338999Y-31750000D01*
X84150890Y-31875691D01*
X83945691Y-32080890D01*
X83784467Y-32322178D01*
X83673414Y-32590283D01*
X83616800Y-32874902D01*
X83616800Y-33165098D01*
X83673414Y-33449717D01*
X83784467Y-33717822D01*
X83945691Y-33959110D01*
X84150890Y-34164309D01*
X84338999Y-34290000D01*
X84150890Y-34415691D01*
X83945691Y-34620890D01*
X83784467Y-34862178D01*
X83673414Y-35130283D01*
X83616800Y-35414902D01*
X83616800Y-35705098D01*
X83673414Y-35989717D01*
X83784467Y-36257822D01*
X83945691Y-36499110D01*
X84150890Y-36704309D01*
X84338999Y-36830000D01*
X84150890Y-36955691D01*
X83945691Y-37160890D01*
X83784467Y-37402178D01*
X83673414Y-37670283D01*
X83616800Y-37954902D01*
X83616800Y-38245098D01*
X83673414Y-38529717D01*
X83784467Y-38797822D01*
X83945691Y-39039110D01*
X84150890Y-39244309D01*
X84338999Y-39370000D01*
X84150890Y-39495691D01*
X83945691Y-39700890D01*
X83784467Y-39942178D01*
X83673414Y-40210283D01*
X83616800Y-40494902D01*
X83616800Y-40785098D01*
X83673414Y-41069717D01*
X83784467Y-41337822D01*
X83945691Y-41579110D01*
X84150890Y-41784309D01*
X84334943Y-41907289D01*
X84325838Y-41912156D01*
X84249630Y-42160025D01*
X85090000Y-43000395D01*
X85930370Y-42160025D01*
X85854162Y-41912156D01*
X85844592Y-41907601D01*
X86029110Y-41784309D01*
X86234309Y-41579110D01*
X86395533Y-41337822D01*
X86506586Y-41069717D01*
X86563200Y-40785098D01*
X86563200Y-40494902D01*
X86506586Y-40210283D01*
X86395533Y-39942178D01*
X86234309Y-39700890D01*
X86029110Y-39495691D01*
X85841001Y-39370000D01*
X86029110Y-39244309D01*
X86234309Y-39039110D01*
X86395533Y-38797822D01*
X86506586Y-38529717D01*
X86563200Y-38245098D01*
X86563200Y-37954902D01*
X86506586Y-37670283D01*
X86395533Y-37402178D01*
X86234309Y-37160890D01*
X86029110Y-36955691D01*
X85841001Y-36830000D01*
X86029110Y-36704309D01*
X86234309Y-36499110D01*
X86395533Y-36257822D01*
X86506586Y-35989717D01*
X86563200Y-35705098D01*
X86563200Y-35414902D01*
X86506586Y-35130283D01*
X86395533Y-34862178D01*
X86234309Y-34620890D01*
X86029110Y-34415691D01*
X85841001Y-34290000D01*
X86029110Y-34164309D01*
X86234309Y-33959110D01*
X86395533Y-33717822D01*
X86506586Y-33449717D01*
X86563200Y-33165098D01*
X86563200Y-32874902D01*
X86506586Y-32590283D01*
X86395533Y-32322178D01*
X86234309Y-32080890D01*
X86029110Y-31875691D01*
X85841001Y-31750000D01*
X86029110Y-31624309D01*
X86234309Y-31419110D01*
X86395533Y-31177822D01*
X86506586Y-30909717D01*
X86563200Y-30625098D01*
X86563200Y-30334902D01*
X86506586Y-30050283D01*
X86395533Y-29782178D01*
X86234309Y-29540890D01*
X86087016Y-29393597D01*
X86172380Y-29367702D01*
X86282694Y-29308737D01*
X86379385Y-29229385D01*
X86458737Y-29132694D01*
X86517702Y-29022380D01*
X86554012Y-28902682D01*
X86566272Y-28778200D01*
X86566272Y-27794902D01*
X91236800Y-27794902D01*
X91236800Y-28085098D01*
X91293414Y-28369717D01*
X91404467Y-28637822D01*
X91565691Y-28879110D01*
X91770890Y-29084309D01*
X91958999Y-29210000D01*
X91770890Y-29335691D01*
X91565691Y-29540890D01*
X91404467Y-29782178D01*
X91293414Y-30050283D01*
X91236800Y-30334902D01*
X91236800Y-30625098D01*
X91293414Y-30909717D01*
X91404467Y-31177822D01*
X91565691Y-31419110D01*
X91770890Y-31624309D01*
X91958999Y-31750000D01*
X91770890Y-31875691D01*
X91565691Y-32080890D01*
X91404467Y-32322178D01*
X91293414Y-32590283D01*
X91236800Y-32874902D01*
X91236800Y-33165098D01*
X91293414Y-33449717D01*
X91404467Y-33717822D01*
X91565691Y-33959110D01*
X91770890Y-34164309D01*
X91958999Y-34290000D01*
X91770890Y-34415691D01*
X91565691Y-34620890D01*
X91404467Y-34862178D01*
X91293414Y-35130283D01*
X91236800Y-35414902D01*
X91236800Y-35705098D01*
X91293414Y-35989717D01*
X91404467Y-36257822D01*
X91565691Y-36499110D01*
X91770890Y-36704309D01*
X91958999Y-36830000D01*
X91770890Y-36955691D01*
X91565691Y-37160890D01*
X91404467Y-37402178D01*
X91293414Y-37670283D01*
X91236800Y-37954902D01*
X91236800Y-38245098D01*
X91293414Y-38529717D01*
X91404467Y-38797822D01*
X91565691Y-39039110D01*
X91770890Y-39244309D01*
X91958999Y-39370000D01*
X91770890Y-39495691D01*
X91565691Y-39700890D01*
X91404467Y-39942178D01*
X91293414Y-40210283D01*
X91236800Y-40494902D01*
X91236800Y-40785098D01*
X91293414Y-41069717D01*
X91404467Y-41337822D01*
X91565691Y-41579110D01*
X91770890Y-41784309D01*
X91958999Y-41910000D01*
X91770890Y-42035691D01*
X91565691Y-42240890D01*
X91404467Y-42482178D01*
X91293414Y-42750283D01*
X91236800Y-43034902D01*
X91236800Y-43325098D01*
X91293414Y-43609717D01*
X91404467Y-43877822D01*
X91565691Y-44119110D01*
X91770890Y-44324309D01*
X92012178Y-44485533D01*
X92280283Y-44596586D01*
X92564902Y-44653200D01*
X92855098Y-44653200D01*
X93139717Y-44596586D01*
X93407822Y-44485533D01*
X93649110Y-44324309D01*
X93854309Y-44119110D01*
X94015533Y-43877822D01*
X94126586Y-43609717D01*
X94183200Y-43325098D01*
X94183200Y-43034902D01*
X94162329Y-42929975D01*
X121079630Y-42929975D01*
X121155838Y-43177844D01*
X121417865Y-43302563D01*
X121699189Y-43373768D01*
X121988999Y-43388719D01*
X122276157Y-43346845D01*
X122549628Y-43249754D01*
X122684162Y-43177844D01*
X122760370Y-42929975D01*
X121920000Y-42089605D01*
X121079630Y-42929975D01*
X94162329Y-42929975D01*
X94126586Y-42750283D01*
X94015533Y-42482178D01*
X93854309Y-42240890D01*
X93649110Y-42035691D01*
X93564265Y-41978999D01*
X120441281Y-41978999D01*
X120483155Y-42266157D01*
X120580246Y-42539628D01*
X120652156Y-42674162D01*
X120900025Y-42750370D01*
X121740395Y-41910000D01*
X122099605Y-41910000D01*
X122939975Y-42750370D01*
X123187844Y-42674162D01*
X123312563Y-42412135D01*
X123383768Y-42130811D01*
X123398719Y-41841001D01*
X123356845Y-41553843D01*
X123259754Y-41280372D01*
X123187844Y-41145838D01*
X122939975Y-41069630D01*
X122099605Y-41910000D01*
X121740395Y-41910000D01*
X120900025Y-41069630D01*
X120652156Y-41145838D01*
X120527437Y-41407865D01*
X120456232Y-41689189D01*
X120441281Y-41978999D01*
X93564265Y-41978999D01*
X93461001Y-41910000D01*
X93649110Y-41784309D01*
X93854309Y-41579110D01*
X94015533Y-41337822D01*
X94126586Y-41069717D01*
X94183200Y-40785098D01*
X94183200Y-40494902D01*
X94126586Y-40210283D01*
X94015533Y-39942178D01*
X93854309Y-39700890D01*
X93649110Y-39495691D01*
X93461001Y-39370000D01*
X93649110Y-39244309D01*
X93854309Y-39039110D01*
X94015533Y-38797822D01*
X94126586Y-38529717D01*
X94183200Y-38245098D01*
X94183200Y-37954902D01*
X94162943Y-37853058D01*
X98344200Y-37853058D01*
X98344200Y-38066942D01*
X98385926Y-38276716D01*
X98467776Y-38474319D01*
X98586604Y-38652157D01*
X98737843Y-38803396D01*
X98915681Y-38922224D01*
X99113284Y-39004074D01*
X99323058Y-39045800D01*
X99536942Y-39045800D01*
X99746716Y-39004074D01*
X99944319Y-38922224D01*
X100122157Y-38803396D01*
X100273396Y-38652157D01*
X100392224Y-38474319D01*
X100474074Y-38276716D01*
X100515800Y-38066942D01*
X100515800Y-38059593D01*
X104549931Y-34025463D01*
X104654319Y-33982224D01*
X104832157Y-33863396D01*
X104983396Y-33712157D01*
X105102224Y-33534319D01*
X105184074Y-33336716D01*
X105225800Y-33126942D01*
X105225800Y-32913058D01*
X105184074Y-32703284D01*
X105102224Y-32505681D01*
X104983396Y-32327843D01*
X104832157Y-32176604D01*
X104654319Y-32057776D01*
X104456716Y-31975926D01*
X104246942Y-31934200D01*
X104033058Y-31934200D01*
X103823284Y-31975926D01*
X103625681Y-32057776D01*
X103447843Y-32176604D01*
X103296604Y-32327843D01*
X103177776Y-32505681D01*
X103095926Y-32703284D01*
X103054200Y-32913058D01*
X103054200Y-33126942D01*
X103058093Y-33146513D01*
X99330407Y-36874200D01*
X99323058Y-36874200D01*
X99113284Y-36915926D01*
X98915681Y-36997776D01*
X98737843Y-37116604D01*
X98586604Y-37267843D01*
X98467776Y-37445681D01*
X98385926Y-37643284D01*
X98344200Y-37853058D01*
X94162943Y-37853058D01*
X94126586Y-37670283D01*
X94015533Y-37402178D01*
X93854309Y-37160890D01*
X93649110Y-36955691D01*
X93461001Y-36830000D01*
X93649110Y-36704309D01*
X93854309Y-36499110D01*
X94015533Y-36257822D01*
X94126586Y-35989717D01*
X94183200Y-35705098D01*
X94183200Y-35414902D01*
X94126586Y-35130283D01*
X94015533Y-34862178D01*
X93854309Y-34620890D01*
X93649110Y-34415691D01*
X93461001Y-34290000D01*
X93649110Y-34164309D01*
X93854309Y-33959110D01*
X94015533Y-33717822D01*
X94126586Y-33449717D01*
X94183200Y-33165098D01*
X94183200Y-32874902D01*
X94126586Y-32590283D01*
X94015533Y-32322178D01*
X93854309Y-32080890D01*
X93649110Y-31875691D01*
X93461001Y-31750000D01*
X93649110Y-31624309D01*
X93854309Y-31419110D01*
X94015533Y-31177822D01*
X94126586Y-30909717D01*
X94183200Y-30625098D01*
X94183200Y-30334902D01*
X94126586Y-30050283D01*
X94015533Y-29782178D01*
X93854309Y-29540890D01*
X93649110Y-29335691D01*
X93461001Y-29210000D01*
X93649110Y-29084309D01*
X93854309Y-28879110D01*
X94015533Y-28637822D01*
X94126586Y-28369717D01*
X94183200Y-28085098D01*
X94183200Y-27794902D01*
X94126586Y-27510283D01*
X94015533Y-27242178D01*
X93854309Y-27000890D01*
X93649110Y-26795691D01*
X93407822Y-26634467D01*
X93139717Y-26523414D01*
X92855098Y-26466800D01*
X92564902Y-26466800D01*
X92280283Y-26523414D01*
X92012178Y-26634467D01*
X91770890Y-26795691D01*
X91565691Y-27000890D01*
X91404467Y-27242178D01*
X91293414Y-27510283D01*
X91236800Y-27794902D01*
X86566272Y-27794902D01*
X86566272Y-27101800D01*
X86554012Y-26977318D01*
X86517702Y-26857620D01*
X86458737Y-26747306D01*
X86379385Y-26650615D01*
X86282694Y-26571263D01*
X86172380Y-26512298D01*
X86052682Y-26475988D01*
X85928200Y-26463728D01*
X84251800Y-26463728D01*
X84127318Y-26475988D01*
X84007620Y-26512298D01*
X83897306Y-26571263D01*
X83800615Y-26650615D01*
X83721263Y-26747306D01*
X83662298Y-26857620D01*
X83625988Y-26977318D01*
X83613728Y-27101800D01*
X69240000Y-27101800D01*
X69240000Y-26183058D01*
X97484200Y-26183058D01*
X97484200Y-26396942D01*
X97525926Y-26606716D01*
X97607776Y-26804319D01*
X97726604Y-26982157D01*
X97877843Y-27133396D01*
X98055681Y-27252224D01*
X98253284Y-27334074D01*
X98463058Y-27375800D01*
X98676942Y-27375800D01*
X98886716Y-27334074D01*
X99084319Y-27252224D01*
X99262157Y-27133396D01*
X99413396Y-26982157D01*
X99532224Y-26804319D01*
X99614074Y-26606716D01*
X99617489Y-26589549D01*
X100375238Y-25831800D01*
X120443728Y-25831800D01*
X120443728Y-27508200D01*
X120455988Y-27632682D01*
X120492298Y-27752380D01*
X120551263Y-27862694D01*
X120630615Y-27959385D01*
X120727306Y-28038737D01*
X120837620Y-28097702D01*
X120922984Y-28123597D01*
X120775691Y-28270890D01*
X120614467Y-28512178D01*
X120503414Y-28780283D01*
X120446800Y-29064902D01*
X120446800Y-29355098D01*
X120503414Y-29639717D01*
X120614467Y-29907822D01*
X120775691Y-30149110D01*
X120980890Y-30354309D01*
X121168999Y-30480000D01*
X120980890Y-30605691D01*
X120775691Y-30810890D01*
X120614467Y-31052178D01*
X120503414Y-31320283D01*
X120446800Y-31604902D01*
X120446800Y-31895098D01*
X120503414Y-32179717D01*
X120614467Y-32447822D01*
X120775691Y-32689110D01*
X120980890Y-32894309D01*
X121168999Y-33020000D01*
X120980890Y-33145691D01*
X120775691Y-33350890D01*
X120614467Y-33592178D01*
X120503414Y-33860283D01*
X120446800Y-34144902D01*
X120446800Y-34435098D01*
X120503414Y-34719717D01*
X120614467Y-34987822D01*
X120775691Y-35229110D01*
X120980890Y-35434309D01*
X121168999Y-35560000D01*
X120980890Y-35685691D01*
X120775691Y-35890890D01*
X120614467Y-36132178D01*
X120503414Y-36400283D01*
X120446800Y-36684902D01*
X120446800Y-36975098D01*
X120503414Y-37259717D01*
X120614467Y-37527822D01*
X120775691Y-37769110D01*
X120980890Y-37974309D01*
X121168999Y-38100000D01*
X120980890Y-38225691D01*
X120775691Y-38430890D01*
X120614467Y-38672178D01*
X120503414Y-38940283D01*
X120446800Y-39224902D01*
X120446800Y-39515098D01*
X120503414Y-39799717D01*
X120614467Y-40067822D01*
X120775691Y-40309110D01*
X120980890Y-40514309D01*
X121164943Y-40637289D01*
X121155838Y-40642156D01*
X121079630Y-40890025D01*
X121920000Y-41730395D01*
X122760370Y-40890025D01*
X122684162Y-40642156D01*
X122674592Y-40637601D01*
X122859110Y-40514309D01*
X123064309Y-40309110D01*
X123225533Y-40067822D01*
X123336586Y-39799717D01*
X123393200Y-39515098D01*
X123393200Y-39224902D01*
X123336586Y-38940283D01*
X123225533Y-38672178D01*
X123064309Y-38430890D01*
X122859110Y-38225691D01*
X122671001Y-38100000D01*
X122859110Y-37974309D01*
X123064309Y-37769110D01*
X123225533Y-37527822D01*
X123336586Y-37259717D01*
X123393200Y-36975098D01*
X123393200Y-36684902D01*
X123336586Y-36400283D01*
X123225533Y-36132178D01*
X123064309Y-35890890D01*
X122859110Y-35685691D01*
X122671001Y-35560000D01*
X122859110Y-35434309D01*
X123064309Y-35229110D01*
X123225533Y-34987822D01*
X123336586Y-34719717D01*
X123393200Y-34435098D01*
X123393200Y-34144902D01*
X123336586Y-33860283D01*
X123225533Y-33592178D01*
X123064309Y-33350890D01*
X122859110Y-33145691D01*
X122671001Y-33020000D01*
X122859110Y-32894309D01*
X123064309Y-32689110D01*
X123225533Y-32447822D01*
X123336586Y-32179717D01*
X123393200Y-31895098D01*
X123393200Y-31604902D01*
X123336586Y-31320283D01*
X123225533Y-31052178D01*
X123064309Y-30810890D01*
X122859110Y-30605691D01*
X122671001Y-30480000D01*
X122859110Y-30354309D01*
X123064309Y-30149110D01*
X123225533Y-29907822D01*
X123336586Y-29639717D01*
X123393200Y-29355098D01*
X123393200Y-29064902D01*
X123336586Y-28780283D01*
X123225533Y-28512178D01*
X123064309Y-28270890D01*
X122917016Y-28123597D01*
X123002380Y-28097702D01*
X123112694Y-28038737D01*
X123209385Y-27959385D01*
X123288737Y-27862694D01*
X123347702Y-27752380D01*
X123384012Y-27632682D01*
X123396272Y-27508200D01*
X123396272Y-25831800D01*
X123384012Y-25707318D01*
X123347702Y-25587620D01*
X123288737Y-25477306D01*
X123209385Y-25380615D01*
X123112694Y-25301263D01*
X123002380Y-25242298D01*
X122882682Y-25205988D01*
X122758200Y-25193728D01*
X121081800Y-25193728D01*
X120957318Y-25205988D01*
X120837620Y-25242298D01*
X120727306Y-25301263D01*
X120630615Y-25380615D01*
X120551263Y-25477306D01*
X120492298Y-25587620D01*
X120455988Y-25707318D01*
X120443728Y-25831800D01*
X100375238Y-25831800D01*
X106800148Y-19406890D01*
X109048524Y-19406890D01*
X109093175Y-19554099D01*
X109218359Y-19816920D01*
X109392412Y-20050269D01*
X109608645Y-20245178D01*
X109858748Y-20394157D01*
X110133109Y-20491481D01*
X110363000Y-20370814D01*
X110363000Y-19177000D01*
X110617000Y-19177000D01*
X110617000Y-20370814D01*
X110846891Y-20491481D01*
X111121252Y-20394157D01*
X111371355Y-20245178D01*
X111587588Y-20050269D01*
X111761641Y-19816920D01*
X111886825Y-19554099D01*
X111931476Y-19406890D01*
X111810155Y-19177000D01*
X110617000Y-19177000D01*
X110363000Y-19177000D01*
X109169845Y-19177000D01*
X109048524Y-19406890D01*
X106800148Y-19406890D01*
X108744538Y-17462500D01*
X109012023Y-17462500D01*
X109014188Y-17484482D01*
X109050498Y-17604180D01*
X109109463Y-17714494D01*
X109188815Y-17811185D01*
X109285506Y-17890537D01*
X109395820Y-17949502D01*
X109476466Y-17973966D01*
X109392412Y-18049731D01*
X109218359Y-18283080D01*
X109093175Y-18545901D01*
X109048524Y-18693110D01*
X109169845Y-18923000D01*
X110363000Y-18923000D01*
X110363000Y-18903000D01*
X110617000Y-18903000D01*
X110617000Y-18923000D01*
X111810155Y-18923000D01*
X111931476Y-18693110D01*
X111886825Y-18545901D01*
X111761641Y-18283080D01*
X111587588Y-18049731D01*
X111503534Y-17973966D01*
X111584180Y-17949502D01*
X111694494Y-17890537D01*
X111791185Y-17811185D01*
X111870537Y-17714494D01*
X111929502Y-17604180D01*
X111965812Y-17484482D01*
X111967977Y-17462500D01*
X116165462Y-17462500D01*
X124452512Y-25749551D01*
X124455926Y-25766716D01*
X124537776Y-25964319D01*
X124656604Y-26142157D01*
X124807843Y-26293396D01*
X124985681Y-26412224D01*
X125183284Y-26494074D01*
X125393058Y-26535800D01*
X125606942Y-26535800D01*
X125661730Y-26524902D01*
X128066800Y-26524902D01*
X128066800Y-26815098D01*
X128123414Y-27099717D01*
X128234467Y-27367822D01*
X128395691Y-27609110D01*
X128600890Y-27814309D01*
X128788999Y-27940000D01*
X128600890Y-28065691D01*
X128395691Y-28270890D01*
X128234467Y-28512178D01*
X128123414Y-28780283D01*
X128066800Y-29064902D01*
X128066800Y-29355098D01*
X128123414Y-29639717D01*
X128234467Y-29907822D01*
X128395691Y-30149110D01*
X128600890Y-30354309D01*
X128788999Y-30480000D01*
X128600890Y-30605691D01*
X128395691Y-30810890D01*
X128234467Y-31052178D01*
X128123414Y-31320283D01*
X128066800Y-31604902D01*
X128066800Y-31895098D01*
X128123414Y-32179717D01*
X128234467Y-32447822D01*
X128395691Y-32689110D01*
X128600890Y-32894309D01*
X128788999Y-33020000D01*
X128600890Y-33145691D01*
X128395691Y-33350890D01*
X128234467Y-33592178D01*
X128123414Y-33860283D01*
X128066800Y-34144902D01*
X128066800Y-34435098D01*
X128123414Y-34719717D01*
X128234467Y-34987822D01*
X128395691Y-35229110D01*
X128600890Y-35434309D01*
X128788999Y-35560000D01*
X128600890Y-35685691D01*
X128395691Y-35890890D01*
X128234467Y-36132178D01*
X128123414Y-36400283D01*
X128066800Y-36684902D01*
X128066800Y-36975098D01*
X128123414Y-37259717D01*
X128234467Y-37527822D01*
X128395691Y-37769110D01*
X128600890Y-37974309D01*
X128788999Y-38100000D01*
X128600890Y-38225691D01*
X128395691Y-38430890D01*
X128234467Y-38672178D01*
X128123414Y-38940283D01*
X128066800Y-39224902D01*
X128066800Y-39515098D01*
X128123414Y-39799717D01*
X128234467Y-40067822D01*
X128395691Y-40309110D01*
X128600890Y-40514309D01*
X128788999Y-40640000D01*
X128600890Y-40765691D01*
X128395691Y-40970890D01*
X128234467Y-41212178D01*
X128123414Y-41480283D01*
X128066800Y-41764902D01*
X128066800Y-42055098D01*
X128123414Y-42339717D01*
X128234467Y-42607822D01*
X128395691Y-42849110D01*
X128600890Y-43054309D01*
X128842178Y-43215533D01*
X129110283Y-43326586D01*
X129394902Y-43383200D01*
X129685098Y-43383200D01*
X129969717Y-43326586D01*
X130237822Y-43215533D01*
X130479110Y-43054309D01*
X130684309Y-42849110D01*
X130845533Y-42607822D01*
X130956586Y-42339717D01*
X131013200Y-42055098D01*
X131013200Y-41764902D01*
X130956586Y-41480283D01*
X130845533Y-41212178D01*
X130684309Y-40970890D01*
X130479110Y-40765691D01*
X130291001Y-40640000D01*
X130479110Y-40514309D01*
X130684309Y-40309110D01*
X130845533Y-40067822D01*
X130956586Y-39799717D01*
X131013200Y-39515098D01*
X131013200Y-39224902D01*
X130956586Y-38940283D01*
X130845533Y-38672178D01*
X130684309Y-38430890D01*
X130479110Y-38225691D01*
X130291001Y-38100000D01*
X130479110Y-37974309D01*
X130684309Y-37769110D01*
X130845533Y-37527822D01*
X130956586Y-37259717D01*
X131013200Y-36975098D01*
X131013200Y-36684902D01*
X130956586Y-36400283D01*
X130845533Y-36132178D01*
X130684309Y-35890890D01*
X130479110Y-35685691D01*
X130291001Y-35560000D01*
X130479110Y-35434309D01*
X130684309Y-35229110D01*
X130845533Y-34987822D01*
X130956586Y-34719717D01*
X131013200Y-34435098D01*
X131013200Y-34144902D01*
X130956586Y-33860283D01*
X130845533Y-33592178D01*
X130684309Y-33350890D01*
X130479110Y-33145691D01*
X130291001Y-33020000D01*
X130479110Y-32894309D01*
X130684309Y-32689110D01*
X130845533Y-32447822D01*
X130956586Y-32179717D01*
X131013200Y-31895098D01*
X131013200Y-31604902D01*
X130956586Y-31320283D01*
X130845533Y-31052178D01*
X130684309Y-30810890D01*
X130479110Y-30605691D01*
X130291001Y-30480000D01*
X130479110Y-30354309D01*
X130684309Y-30149110D01*
X130845533Y-29907822D01*
X130956586Y-29639717D01*
X131013200Y-29355098D01*
X131013200Y-29064902D01*
X130956586Y-28780283D01*
X130845533Y-28512178D01*
X130684309Y-28270890D01*
X130479110Y-28065691D01*
X130291001Y-27940000D01*
X130479110Y-27814309D01*
X130684309Y-27609110D01*
X130845533Y-27367822D01*
X130956586Y-27099717D01*
X130971071Y-27026891D01*
X139528519Y-27026891D01*
X139625843Y-27301252D01*
X139774822Y-27551355D01*
X139969731Y-27767588D01*
X140203080Y-27941641D01*
X140465901Y-28066825D01*
X140613110Y-28111476D01*
X140843000Y-27990155D01*
X140843000Y-26797000D01*
X139649186Y-26797000D01*
X139528519Y-27026891D01*
X130971071Y-27026891D01*
X131013200Y-26815098D01*
X131013200Y-26524902D01*
X130971072Y-26313109D01*
X139528519Y-26313109D01*
X139649186Y-26543000D01*
X140843000Y-26543000D01*
X140843000Y-25349845D01*
X141097000Y-25349845D01*
X141097000Y-26543000D01*
X141117000Y-26543000D01*
X141117000Y-26797000D01*
X141097000Y-26797000D01*
X141097000Y-27990155D01*
X141326890Y-28111476D01*
X141474099Y-28066825D01*
X141736920Y-27941641D01*
X141970269Y-27767588D01*
X142165178Y-27551355D01*
X142234799Y-27434477D01*
X142269294Y-27499014D01*
X142454866Y-27725134D01*
X142680986Y-27910706D01*
X142938966Y-28048599D01*
X143218889Y-28133513D01*
X143437050Y-28155000D01*
X143582950Y-28155000D01*
X143801111Y-28133513D01*
X144081034Y-28048599D01*
X144339014Y-27910706D01*
X144565134Y-27725134D01*
X144750706Y-27499014D01*
X144780000Y-27444209D01*
X144809294Y-27499014D01*
X144994866Y-27725134D01*
X145220986Y-27910706D01*
X145478966Y-28048599D01*
X145758889Y-28133513D01*
X145977050Y-28155000D01*
X146122950Y-28155000D01*
X146341111Y-28133513D01*
X146621034Y-28048599D01*
X146879014Y-27910706D01*
X147105134Y-27725134D01*
X147290706Y-27499014D01*
X147320000Y-27444209D01*
X147349294Y-27499014D01*
X147534866Y-27725134D01*
X147760986Y-27910706D01*
X148018966Y-28048599D01*
X148298889Y-28133513D01*
X148517050Y-28155000D01*
X148662950Y-28155000D01*
X148881111Y-28133513D01*
X149161034Y-28048599D01*
X149419014Y-27910706D01*
X149645134Y-27725134D01*
X149830706Y-27499014D01*
X149860000Y-27444209D01*
X149889294Y-27499014D01*
X150074866Y-27725134D01*
X150300986Y-27910706D01*
X150558966Y-28048599D01*
X150838889Y-28133513D01*
X151057050Y-28155000D01*
X151202950Y-28155000D01*
X151421111Y-28133513D01*
X151701034Y-28048599D01*
X151959014Y-27910706D01*
X152185134Y-27725134D01*
X152370706Y-27499014D01*
X152400000Y-27444209D01*
X152429294Y-27499014D01*
X152614866Y-27725134D01*
X152840986Y-27910706D01*
X153098966Y-28048599D01*
X153378889Y-28133513D01*
X153597050Y-28155000D01*
X153742950Y-28155000D01*
X153961111Y-28133513D01*
X154241034Y-28048599D01*
X154499014Y-27910706D01*
X154725134Y-27725134D01*
X154910706Y-27499014D01*
X154940000Y-27444209D01*
X154969294Y-27499014D01*
X155154866Y-27725134D01*
X155380986Y-27910706D01*
X155638966Y-28048599D01*
X155918889Y-28133513D01*
X156137050Y-28155000D01*
X156282950Y-28155000D01*
X156501111Y-28133513D01*
X156781034Y-28048599D01*
X157039014Y-27910706D01*
X157265134Y-27725134D01*
X157289607Y-27695313D01*
X157310498Y-27764180D01*
X157369463Y-27874494D01*
X157448815Y-27971185D01*
X157545506Y-28050537D01*
X157655820Y-28109502D01*
X157775518Y-28145812D01*
X157900000Y-28158072D01*
X159600000Y-28158072D01*
X159724482Y-28145812D01*
X159844180Y-28109502D01*
X159954494Y-28050537D01*
X160051185Y-27971185D01*
X160130537Y-27874494D01*
X160189502Y-27764180D01*
X160225812Y-27644482D01*
X160238072Y-27520000D01*
X160238072Y-25820000D01*
X160225812Y-25695518D01*
X160189502Y-25575820D01*
X160130537Y-25465506D01*
X160051185Y-25368815D01*
X159954494Y-25289463D01*
X159844180Y-25230498D01*
X159724482Y-25194188D01*
X159600000Y-25181928D01*
X157900000Y-25181928D01*
X157775518Y-25194188D01*
X157655820Y-25230498D01*
X157545506Y-25289463D01*
X157448815Y-25368815D01*
X157369463Y-25465506D01*
X157310498Y-25575820D01*
X157289607Y-25644687D01*
X157265134Y-25614866D01*
X157039014Y-25429294D01*
X156781034Y-25291401D01*
X156501111Y-25206487D01*
X156282950Y-25185000D01*
X156137050Y-25185000D01*
X155918889Y-25206487D01*
X155638966Y-25291401D01*
X155380986Y-25429294D01*
X155154866Y-25614866D01*
X154969294Y-25840986D01*
X154940000Y-25895791D01*
X154910706Y-25840986D01*
X154725134Y-25614866D01*
X154499014Y-25429294D01*
X154241034Y-25291401D01*
X153961111Y-25206487D01*
X153742950Y-25185000D01*
X153597050Y-25185000D01*
X153378889Y-25206487D01*
X153098966Y-25291401D01*
X152840986Y-25429294D01*
X152614866Y-25614866D01*
X152429294Y-25840986D01*
X152400000Y-25895791D01*
X152370706Y-25840986D01*
X152185134Y-25614866D01*
X151959014Y-25429294D01*
X151701034Y-25291401D01*
X151421111Y-25206487D01*
X151202950Y-25185000D01*
X151057050Y-25185000D01*
X150838889Y-25206487D01*
X150558966Y-25291401D01*
X150300986Y-25429294D01*
X150074866Y-25614866D01*
X149889294Y-25840986D01*
X149860000Y-25895791D01*
X149830706Y-25840986D01*
X149645134Y-25614866D01*
X149419014Y-25429294D01*
X149161034Y-25291401D01*
X148881111Y-25206487D01*
X148662950Y-25185000D01*
X148517050Y-25185000D01*
X148298889Y-25206487D01*
X148018966Y-25291401D01*
X147760986Y-25429294D01*
X147534866Y-25614866D01*
X147349294Y-25840986D01*
X147320000Y-25895791D01*
X147290706Y-25840986D01*
X147105134Y-25614866D01*
X146879014Y-25429294D01*
X146621034Y-25291401D01*
X146341111Y-25206487D01*
X146122950Y-25185000D01*
X145977050Y-25185000D01*
X145758889Y-25206487D01*
X145478966Y-25291401D01*
X145220986Y-25429294D01*
X144994866Y-25614866D01*
X144809294Y-25840986D01*
X144780000Y-25895791D01*
X144750706Y-25840986D01*
X144565134Y-25614866D01*
X144339014Y-25429294D01*
X144081034Y-25291401D01*
X143801111Y-25206487D01*
X143582950Y-25185000D01*
X143437050Y-25185000D01*
X143218889Y-25206487D01*
X142938966Y-25291401D01*
X142680986Y-25429294D01*
X142454866Y-25614866D01*
X142269294Y-25840986D01*
X142234799Y-25905523D01*
X142165178Y-25788645D01*
X141970269Y-25572412D01*
X141736920Y-25398359D01*
X141474099Y-25273175D01*
X141326890Y-25228524D01*
X141097000Y-25349845D01*
X140843000Y-25349845D01*
X140613110Y-25228524D01*
X140465901Y-25273175D01*
X140203080Y-25398359D01*
X139969731Y-25572412D01*
X139774822Y-25788645D01*
X139625843Y-26038748D01*
X139528519Y-26313109D01*
X130971072Y-26313109D01*
X130956586Y-26240283D01*
X130845533Y-25972178D01*
X130684309Y-25730890D01*
X130479110Y-25525691D01*
X130237822Y-25364467D01*
X129969717Y-25253414D01*
X129685098Y-25196800D01*
X129394902Y-25196800D01*
X129110283Y-25253414D01*
X128842178Y-25364467D01*
X128600890Y-25525691D01*
X128395691Y-25730890D01*
X128234467Y-25972178D01*
X128123414Y-26240283D01*
X128066800Y-26524902D01*
X125661730Y-26524902D01*
X125816716Y-26494074D01*
X126014319Y-26412224D01*
X126192157Y-26293396D01*
X126343396Y-26142157D01*
X126462224Y-25964319D01*
X126544074Y-25766716D01*
X126585800Y-25556942D01*
X126585800Y-25343058D01*
X126544074Y-25133284D01*
X126462224Y-24935681D01*
X126343396Y-24757843D01*
X126192157Y-24606604D01*
X126014319Y-24487776D01*
X125816716Y-24405926D01*
X125799551Y-24402512D01*
X117266607Y-15869569D01*
X117236778Y-15833222D01*
X117091741Y-15714194D01*
X116926269Y-15625748D01*
X116746723Y-15571283D01*
X116606785Y-15557500D01*
X116560000Y-15552892D01*
X116513215Y-15557500D01*
X111967977Y-15557500D01*
X111965812Y-15535518D01*
X111929502Y-15415820D01*
X111870537Y-15305506D01*
X111791185Y-15208815D01*
X111694494Y-15129463D01*
X111584180Y-15070498D01*
X111464482Y-15034188D01*
X111340000Y-15021928D01*
X109640000Y-15021928D01*
X109515518Y-15034188D01*
X109395820Y-15070498D01*
X109285506Y-15129463D01*
X109188815Y-15208815D01*
X109109463Y-15305506D01*
X109050498Y-15415820D01*
X109014188Y-15535518D01*
X109012023Y-15557500D01*
X108396785Y-15557500D01*
X108350000Y-15552892D01*
X108303215Y-15557500D01*
X108163277Y-15571283D01*
X108073504Y-15598515D01*
X107983730Y-15625748D01*
X107900995Y-15669971D01*
X107818259Y-15714194D01*
X107673222Y-15833222D01*
X107643393Y-15869569D01*
X98270451Y-25242511D01*
X98253284Y-25245926D01*
X98055681Y-25327776D01*
X97877843Y-25446604D01*
X97726604Y-25597843D01*
X97607776Y-25775681D01*
X97525926Y-25973284D01*
X97484200Y-26183058D01*
X69240000Y-26183058D01*
X69240000Y-13360000D01*
X165710000Y-13360000D01*
X165710001Y-81890000D01*
M02*
