M48
; DRILL file {KiCad (5.1.0)-1} date 5/27/2019 3:49:14 PM
; FORMAT={-:-/ absolute / inch / decimal}
; #@! TF.CreationDate,2019-05-27T15:49:14-07:00
; #@! TF.GenerationSoftware,Kicad,Pcbnew,(5.1.0)-1
; #@! TF.FileFunction,Plated,1,2,PTH
FMAT,2
INCH
T1C0.0157
T2C0.0394
T3C0.0440
%
G90
G05
T1
X3.0008Y-2.1004
X3.4201Y-2.4217
X3.5118Y-1.5012
X3.6Y-2.3
X3.6252Y-1.839
X3.8807Y-1.035
X3.9043Y-1.8417
X3.9146Y-1.4945
X4.1Y-1.3
X4.4Y-2.35
X4.9409Y-1.002
X4.9693Y-1.9661
X5.0409Y-2.1043
X5.1079Y-1.7858
X5.437Y-2.1331
T2
X5.55Y-1.05
X5.65Y-1.05
X5.75Y-1.05
X5.85Y-1.05
X5.95Y-1.05
X6.05Y-1.05
X6.15Y-1.05
X6.25Y-1.05
X5.65Y-2.25
X5.65Y-2.35
X5.65Y-2.45
X5.65Y-2.55
X5.65Y-2.65
X5.65Y-2.75
X5.65Y-2.85
X5.65Y-2.95
X3.15Y-2.3
X3.15Y-2.4
X3.15Y-2.5
X3.15Y-2.6
X3.15Y-2.7
X3.15Y-2.8
X3.15Y-2.9
X3.15Y-3.0
X4.25Y-2.1
X4.35Y-2.1
X4.45Y-2.1
X4.55Y-2.1
X4.65Y-2.1
X4.75Y-2.1
X4.35Y-0.65
X4.35Y-0.75
T3
X4.8Y-1.05
X4.8Y-1.15
X4.8Y-1.25
X4.8Y-1.35
X4.8Y-1.45
X4.8Y-1.55
X4.8Y-1.65
X5.1Y-1.05
X5.1Y-1.15
X5.1Y-1.25
X5.1Y-1.35
X5.1Y-1.45
X5.1Y-1.55
X5.1Y-1.65
X3.35Y-1.1
X3.35Y-1.2
X3.35Y-1.3
X3.35Y-1.4
X3.35Y-1.5
X3.35Y-1.6
X3.35Y-1.7
X3.65Y-1.1
X3.65Y-1.2
X3.65Y-1.3
X3.65Y-1.4
X3.65Y-1.5
X3.65Y-1.6
X3.65Y-1.7
T0
M30
